<svg xmlns="http://www.w3.org/2000/svg" width="480" height="389" fill="none">
  <path fill="url(#a)" d="m235.199 338.391 150.064-94.883 27.535-197.913-177.599 70.799v221.997Z"/>
  <path fill="url(#b)" d="M60 45.595 87.59 243.53l147.609 94.86V116.394L60 45.594Z"/>
  <path fill="#25225E" d="M235.199 116.399 60 45.599 235.199 0l177.599 45.6-177.599 70.799Z"/>
  <path fill="#3553BF" d="M326.905 274.771c-11.601 12.454-34.236 11.249-49.129-1.634-14.93-12.907-17.906-31.361-7.885-42.147 5.262-5.271 34.193-31.585 56.337-61.725 23.385-29.177 39.981-62.183 49.243-58.598 9.037 3.057 9.064 44.896-4.628 83.444-12.104 39.174-37.926 75.058-43.938 80.66Z"/>
  <path fill="#213FAB" d="M299.618 219.767c11.611-3.834 72.155-32.19 73.659-33.005a182.43 182.43 0 0 1-2.435 7.346c-12.104 39.175-37.926 75.059-43.938 80.659-11.602 12.455-34.236 11.249-49.13-1.634-5.622-4.86-9.547-10.507-11.723-16.235.571-2.78 1.558-26.563 33.567-37.131Z"/>
  <path fill="#5271E1" d="M337.761 307.608c-15.659 6.671-35.852-3.625-44.23-21.446-8.402-17.856-3.625-35.93 9.911-41.717 6.949-2.678 44.074-14.973 76.551-33.525 33.22-17.165 61.791-40.586 68.797-33.548 7.016 6.463-9.951 44.707-38.119 74.373-26.97 30.882-65.141 53.186-72.91 55.863Z"/>
  <path fill="#3553BF" d="M405.927 219.977a189.9 189.9 0 0 1-5.916 14.788c-15.288 38.044-43.979 71.682-50.431 76.768-12.587 11.458-35.045 8.393-48.828-5.673-13.817-14.09-15.262-32.729-4.388-42.653 1.08-.917 103.806-40.44 109.563-43.23Z"/>
  <path fill="#0086FF" d="M325.355 337.176c-17.019-.26-31.295-17.864-31.72-37.551-.432-19.73 11.272-34.309 25.991-34.103 7.437.371 46.358 4.203 83.568.431 37.327-2.205 72.943-12.015 76.492-2.737 3.789 8.754-27.241 36.821-65.024 52.5-37.181 17.275-81.12 22.167-89.307 21.46Z"/>
  <path fill="#3553BF" d="M153.094 274.771c11.601 12.454 34.235 11.249 49.129-1.634 14.93-12.907 17.905-31.361 7.885-42.148-5.262-5.27-34.193-31.584-56.337-61.724-23.386-29.177-39.981-62.183-49.243-58.598-9.037 3.057-9.064 44.896 4.628 83.444 12.103 39.174 37.926 75.059 43.938 80.66Z"/>
  <path fill="#213FAB" d="M180.375 219.767c-11.611-3.834-72.156-32.19-73.66-33.005a185.65 185.65 0 0 0 2.435 7.346c12.104 39.175 37.926 75.059 43.939 80.659 11.601 12.455 34.235 11.249 49.129-1.634 5.622-4.86 9.548-10.507 11.723-16.235-.571-2.78-1.558-26.563-33.566-37.131Z"/>
  <path fill="#5271E1" d="M142.235 307.608c15.66 6.67 35.853-3.625 44.232-21.446 8.401-17.856 3.624-35.931-9.913-41.718-6.947-2.678-44.073-14.973-76.55-33.524-33.22-17.166-61.79-40.586-68.797-33.548-7.017 6.463 9.951 44.707 38.118 74.373 26.97 30.881 65.143 53.185 72.91 55.863Z"/>
  <path fill="#3553BF" d="M72.947 219.977a189.941 189.941 0 0 0 5.916 14.788c15.288 38.044 43.979 71.681 50.432 76.767 12.587 11.457 35.044 8.392 48.827-5.674 13.817-14.09 15.262-32.729 4.388-42.653-1.08-.917-103.806-40.438-109.563-43.228Z"/>
  <path fill="#0086FF" d="M154.646 337.177c17.019-.261 31.296-17.866 31.72-37.553.432-19.729-11.271-34.308-25.991-34.103-7.437.373-46.357 4.204-83.567.431-37.328-2.206-72.946-12.013-76.494-2.736-3.79 8.754 27.24 36.821 65.024 52.499 37.183 17.276 81.123 22.168 89.308 21.462Z"/>
  <path fill="url(#c)" d="M359.703 313.514c0 66.109-53.593 74.865-119.702 74.865s-119.702-8.757-119.702-74.865c0-66.109 53.591-128.163 119.701-128.163 66.11 0 119.703 62.054 119.703 128.163Z"/>
  <path fill="#fff" d="M217.105 217.558c-10.229 3.526-19.194 8.998-26.647 16.264a7.347 7.347 0 1 1-10.257-10.522c9.017-8.789 19.821-15.395 32.113-19.635 3.836-1.322 8.024.713 9.34 4.55 1.774 5.164-3.491 8.978-4.549 9.343Z"/>
  <path fill="#121212" d="M165.55 298.266c7.475 0 13.535-6.06 13.535-13.534 0-7.475-6.06-13.535-13.535-13.535-7.474 0-13.534 6.06-13.534 13.535 0 7.474 6.06 13.534 13.534 13.534ZM316.131 298.266c7.474 0 13.534-6.06 13.534-13.535 0-7.475-6.06-13.534-13.534-13.534-7.475 0-13.535 6.059-13.535 13.534 0 7.475 6.06 13.535 13.535 13.535ZM238.673 340.132c9.209 0 17.734-1.331 25.576-3.993 7.842-2.662 15.109-6.583 21.8-11.763l4.856 7.122c-6.834 5.612-14.713 10.109-23.634 13.49-8.849 3.454-18.383 5.18-28.598 5.18-10.217 0-19.786-1.726-28.707-5.18-8.85-3.381-16.692-7.878-23.527-13.49l4.856-7.122c6.692 5.18 13.959 9.101 21.801 11.763 7.842 2.662 16.367 3.993 25.577 3.993Z"/>
  <defs>
    <linearGradient id="a" x1="328.799" x2="351.598" y1="184.798" y2="10.8" gradientUnits="userSpaceOnUse">
      <stop stop-color="#837BFF"/>
      <stop offset="1" stop-color="#5371DD"/>
    </linearGradient>
    <linearGradient id="b" x1="110.4" x2="160.799" y1="191.998" y2="122.398" gradientUnits="userSpaceOnUse">
      <stop stop-color="#0086FF"/>
      <stop offset="1" stop-color="#5371DD"/>
    </linearGradient>
    <linearGradient id="c" x1="240.001" x2="240.001" y1="185.351" y2="388.379" gradientUnits="userSpaceOnUse">
      <stop stop-color="#93EAFF"/>
      <stop offset="1" stop-color="#0086FF"/>
    </linearGradient>
  </defs>
</svg>
