<svg xmlns="http://www.w3.org/2000/svg" width="283" height="274" fill="none">
  <path fill="#0EBCE9" d="M218.476 184.867c36.589 6.603 63.549 14.856 63.549 34.113 0 37.138-72.902 55.02-140.577 55.02C73.774 274 .872 254.468.872 218.98c0-31.637 72.902-40.44 140.576-40.44h.826s-19.257 6.878-36.314 12.655c-15.405 5.227-48.142 11.829-56.12 13.755-26.685 6.877-32.462 14.305-32.462 15.956 0 1.65 5.777 9.078 32.462 15.955 24.209 6.328 56.946 9.904 91.333 9.904 34.388 0 67.125-3.576 91.334-9.904 26.684-6.877 32.461-14.305 32.461-15.955 0-1.651-5.777-9.079-32.461-15.956-8.804-2.201-18.707-4.127-29.161-5.777l15.13-14.306ZM141.448 96.01C73.774 96.01.872 79.504.872 49.243.872 16.506 73.774 0 141.448 0c67.675 0 140.577 17.056 140.577 49.243.55 30.261-72.627 46.767-140.577 46.767Zm0-70.976c-34.662 0-67.124 3.301-91.333 9.354-26.685 6.602-32.462 13.48-32.462 14.855s5.777 8.528 32.462 14.855c24.209 6.053 56.946 9.354 91.333 9.354 34.388 0 67.125-3.301 91.334-9.354 26.684-6.602 32.461-13.48 32.461-14.855 0-1.376-5.777-8.528-32.461-14.855-23.934-6.053-56.671-9.354-91.334-9.354Z"/>
  <path fill="#0EBCE9" d="M261.117 125.722c-96.011 112.516-155.432 125.17-168.912 125.17-.825 0-72.352-15.68-72.627-15.68l-2.476-14.031c57.496-6.052 162.585-22.558 244.015-95.459Z"/>
  <path fill="#0EBCE9" d="M159.055 172.488c19.807-9.353 72.076-61.897 66.574-93.809L282.3 49.52c.275 75.377-106.464 113.891-123.245 122.969Z"/>
</svg>
