<svg fill="none" xmlns="http://www.w3.org/2000/svg" viewBox="0 0 76 76">
  <path d="M64.99 18.958a10.844 10.844 0 0 1 10.843 10.845v14.332A10.846 10.846 0 0 1 64.99 54.979H37.917c0 1.479 1.213 3.64 2.692 3.64h16.266v6.37a10.844 10.844 0 0 1-10.844 10.844H29.802A10.844 10.844 0 0 1 18.959 64.99V50.77a10.807 10.807 0 0 1 10.845-10.806h19.906A10.807 10.807 0 0 0 60.515 29.12V18.958h4.474ZM48.76 63.662c-1.516 0-2.73 1.138-2.73 3.375s1.214 2.692 2.73 2.692a2.692 2.692 0 0 0 2.693-2.692c0-2.237-1.213-3.375-2.692-3.375Zm-37.916-6.787A10.844 10.844 0 0 1 0 46.031V31.698a10.844 10.844 0 0 1 10.844-10.844h27.073c0-1.479-1.214-3.64-2.692-3.64H18.958v-6.37A10.844 10.844 0 0 1 29.803 0H46.03a10.844 10.844 0 0 1 10.844 10.844v14.219a10.807 10.807 0 0 1-10.844 10.806H26.125a10.806 10.806 0 0 0-10.807 10.844v10.162h-4.474Zm16.229-44.704c1.516 0 2.73-1.137 2.73-3.374s-1.214-2.692-2.73-2.692c-1.48 0-2.693.455-2.693 2.692s1.214 3.374 2.693 3.374Z" fill="#fff"/>
</svg>
