<svg fill="none" xmlns="http://www.w3.org/2000/svg" viewBox="0 0 300 300">
  <path d="M81.918 72.68c-.344-.325-.717-.675-1.086-1.03-7.57-7.272-13.429-15.682-16.968-25.62-.99-2.783-1.738-5.62-1.605-8.616.012-.284.011-.57.031-.853.267-3.868 2.855-5.822 6.635-4.906a16.4 16.4 0 0 1 3.439 1.317c4.134 2.074 7.504 5.139 10.602 8.5A67.515 67.515 0 0 1 96 61.53c.067.176.145.349.233.516.043.078.134.128.336.312A105.812 105.812 0 0 1 145.18 47.44c-.106-.525-.169-.927-.269-1.32a67.528 67.528 0 0 1-1.592-22.174 50.491 50.491 0 0 1 2.667-13.058 18.808 18.808 0 0 1 3.286-6.103 9.417 9.417 0 0 1 1.898-1.693 4.217 4.217 0 0 1 4.82-.033 10.37 10.37 0 0 1 3.504 4.039 31.843 31.843 0 0 1 3.157 8.806 67.501 67.501 0 0 1 1.274 19.802 57.321 57.321 0 0 1-2.095 11.947c4.273.787 8.526 1.397 12.689 2.386a111.86 111.86 0 0 1 12.264 3.602 113.012 113.012 0 0 1 11.862 5.141c3.807 1.899 7.431 4.165 11.231 6.323.123-.26.302-.57.423-.901a65.202 65.202 0 0 1 19.741-28.057 22.654 22.654 0 0 1 7.093-4.13c.715-.25 1.455-.42 2.207-.507 3.758-.43 5.336 1.934 5.614 4.759a17.981 17.981 0 0 1-.464 6.213 52.77 52.77 0 0 1-6.438 14.812c-4.075 6.583-8.911 12.513-15.056 17.299-.182.14-.341.31-.648.594a106.692 106.692 0 0 1 15.956 18.53 6.595 6.595 0 0 1-1.014.178c-6.357.009-12.715-.011-19.072.027a2.404 2.404 0 0 1-1.903-1.014 88.725 88.725 0 0 0-52.907-27.929 86.006 86.006 0 0 0-18.167-.701 87.845 87.845 0 0 0-49.523 19.086 84.03 84.03 0 0 0-10.185 9.505 2.838 2.838 0 0 1-2.319 1.055c-6.072-.043-12.145-.021-18.217-.021h-1.292c.371-1.445 4.105-6.563 8.33-11.132 3.152-3.407 6.49-6.642 9.882-10.091ZM236.718 208.747a106.055 106.055 0 0 1-14.384 16.299l1.117.93a64.993 64.993 0 0 1 20.21 28.887 20.773 20.773 0 0 1 1.321 8.652 8.92 8.92 0 0 1-.449 2.216 4.33 4.33 0 0 1-1.874 2.438 4.329 4.329 0 0 1-3.02.576 13.368 13.368 0 0 1-4.058-1.204 30.755 30.755 0 0 1-5.509-3.489 64.56 64.56 0 0 1-19.762-28.025c-.112-.308-.235-.612-.433-1.126a116.77 116.77 0 0 1-15.007 8.405 108.967 108.967 0 0 1-16.013 5.835 112.509 112.509 0 0 1-16.982 3.232c.101.504.158.906.262 1.296a65.515 65.515 0 0 1 1.783 21.866 48.486 48.486 0 0 1-2.654 13.486 46.916 46.916 0 0 1-2.499 5.247 8.013 8.013 0 0 1-1.403 1.782c-2.388 2.466-5.239 2.487-7.567-.044a16.382 16.382 0 0 1-2.344-3.37c-1.846-3.466-2.796-7.234-3.475-11.077a70.124 70.124 0 0 1-.815-15.879c.18-3.886.76-7.743 1.731-11.511.084-.319.16-.641.222-.966.016-.082-.038-.178-.102-.443a105.666 105.666 0 0 1-48.581-14.996c-.246.545-.457 1.005-.661 1.467a66.286 66.286 0 0 1-18.54 24.853 22.892 22.892 0 0 1-7.229 4.175 7.251 7.251 0 0 1-3.91.42 4.27 4.27 0 0 1-3.241-2.693c-.85-2.055-.7-4.191-.41-6.31a33.267 33.267 0 0 1 2.584-8.551 67.496 67.496 0 0 1 15.907-22.657c.275-.261.557-.515.828-.78.086-.124.16-.255.22-.393a107.368 107.368 0 0 1-17.082-18.79c.59-.049.986-.108 1.381-.109 6.309-.006 12.617.017 18.926-.026a2.817 2.817 0 0 1 2.222.976 88.17 88.17 0 0 0 23.642 17.331 83.97 83.97 0 0 0 29.822 8.864c28.272 2.748 52.592-5.823 72.96-25.713a4.585 4.585 0 0 1 3.595-1.466c5.881.073 11.763.03 17.645.03h1.52l.106.355ZM210.441 118.657c1.673 0 3.283.114 4.869-.03 1.797-.163 3.084.48 4.394 1.688 7.568 6.973 15.215 13.861 22.836 20.776.383.348.774.687 1.266 1.122.458-.394.888-.746 1.299-1.119 7.855-7.151 15.705-14.308 23.549-21.472a3.256 3.256 0 0 1 2.522-.987c1.931.078 3.868.022 5.904.022v63.221c-1.033.302-14.925.362-16.583.037v-32.017l-.322-.153-16.343 14.905-16.474-14.842-.315.115c-.014 2.672-.005 5.345-.006 8.018-.002 2.655-.002 5.311-.001 7.967v16.123h-16.457c-.308-1.064-.451-59.797-.138-63.374ZM58.58 118.729H74.94c.33 1.052.395 61.783.056 63.315H58.623c-.09-4.022-.029-8.03-.04-12.036-.011-3.974-.002-7.947-.002-12.024H38.308v23.844c-1.236.369-15.2.405-16.588.074v-63.165h16.522v22.313c1.181.341 18.554.404 20.324.078.005-1.787.012-3.616.014-5.446.003-1.897.003-3.794 0-5.692v-11.261ZM94.545 182.021v-63.104c.97-.318 36.927-.442 39.278-.123v13.448c-.527.038-1.072.111-1.616.111-6.403.008-12.807.01-19.21.005h-1.781v10.461h20.008v13.915h-19.829c-.332 1.191-.423 9.49-.154 11.787.507.034 1.05.102 1.593.102 6.404.008 12.807.01 19.211.005h1.781v13.393h-39.28ZM152.57 182.045c-.301-1.693-.24-62.161.058-63.31h16.297v46.659c.704.036 1.255.089 1.807.09 6.451.005 12.902.007 19.354.004h1.744v16.557h-39.26Z" fill="#fff"/>
</svg>
