<svg fill="none" xmlns="http://www.w3.org/2000/svg" viewBox="0 0 896 190">
  <g clip-path="url(#a)">
    <path d="M372.472 38v114h-19.896V62.541h-.265L316.764 152H303.5l-36.343-89.459h-.265V152h-18.304V38h28.65l32.894 84.444h.531L345.414 38h27.058Zm16.447 8.708c0-3.166 1.062-5.805 3.449-7.916 2.388-2.112 5.04-3.167 8.224-3.167 3.448 0 6.366 1.055 8.489 3.166 2.122 2.112 3.448 4.75 3.448 7.917s-1.061 5.806-3.448 7.917c-2.388 2.111-5.041 3.166-8.489 3.166-3.449 0-6.102-1.055-8.224-3.166-2.122-2.375-3.449-5.014-3.449-7.917Zm21.488 23.486V152h-19.365V70.194h19.365Zm58.626 67.82c2.918 0 6.102-.528 9.55-2.111 3.449-1.32 6.632-3.167 9.55-5.278v17.944c-3.183 1.848-6.632 3.167-10.611 3.959-3.979.791-8.223 1.319-12.998 1.319-12.203 0-22.018-3.694-29.446-11.347-7.693-7.653-11.407-17.417-11.407-29.028 0-13.194 3.979-24.014 11.672-32.458 7.693-8.445 18.57-12.667 32.895-12.667 3.713 0 7.427.528 10.876 1.32 3.714.791 6.632 2.11 8.754 3.166v18.472c-2.918-2.11-6.101-3.958-9.019-5.014-3.184-1.055-6.367-1.847-9.55-1.847-7.693 0-13.795 2.375-18.57 7.39-4.775 5.013-6.897 11.61-6.897 20.055 0 8.18 2.387 14.778 6.897 19.264 4.51 4.486 10.611 6.861 18.304 6.861Zm74.013-69.14c1.592 0 2.918 0 4.244.265 1.327.264 2.388.528 3.184.791v19.528c-1.061-.791-2.388-1.583-4.51-2.11-2.122-.529-4.245-1.056-7.163-1.056-4.775 0-8.754 2.11-11.937 6.069-3.183 3.958-5.04 10.028-5.04 18.472V152h-19.366V70.194h19.366v12.93h.265c1.857-4.485 4.51-7.916 7.958-10.555 3.714-2.375 7.959-3.694 12.999-3.694Zm8.489 43.543c0-13.459 3.979-24.278 11.407-32.195 7.693-7.917 18.304-11.875 31.833-11.875 12.733 0 22.814 3.695 29.976 11.347 7.163 7.653 10.877 17.945 10.877 30.875 0 13.195-3.979 23.75-11.407 31.667-7.693 7.917-18.039 11.875-31.303 11.875-12.733 0-22.814-3.694-30.242-11.083-7.427-7.653-11.141-17.945-11.141-30.611Zm20.161-.792c0 8.444 1.857 15.042 5.836 19.528 3.979 4.486 9.55 6.861 16.712 6.861 6.898 0 12.469-2.111 16.182-6.861 3.714-4.486 5.571-11.084 5.571-20.056 0-8.708-1.857-15.305-5.571-20.055-3.713-4.487-9.284-6.862-15.916-6.862-7.163 0-12.468 2.375-16.447 7.125-4.51 5.014-6.367 11.612-6.367 20.32Zm92.847-19.792c0 2.64.796 5.014 2.653 6.597 1.857 1.584 5.571 3.431 11.672 5.806 7.693 3.167 13.264 6.597 16.182 10.292 3.183 3.958 4.775 8.444 4.775 13.986 0 7.653-2.918 13.722-9.019 18.472-5.837 4.75-14.06 6.861-24.141 6.861-3.448 0-7.162-.528-11.407-1.319-4.244-.792-7.693-1.848-10.611-3.167v-19c3.449 2.375 7.428 4.486 11.407 5.806 3.979 1.319 7.693 2.111 11.142 2.111 4.244 0 7.693-.528 9.55-1.848 2.122-1.319 3.183-3.166 3.183-6.069 0-2.639-1.061-4.75-3.183-6.861-2.122-1.847-6.367-3.958-12.203-6.333-7.162-2.903-12.203-6.334-15.121-10.028-2.918-3.695-4.509-8.445-4.509-14.25 0-7.39 2.918-13.459 8.754-18.209 5.836-4.75 13.529-7.125 22.814-7.125 2.918 0 6.101.264 9.55 1.056 3.448.792 6.632 1.583 9.019 2.375v18.736c-2.653-1.583-5.571-3.167-9.019-4.486a28.209 28.209 0 0 0-10.081-1.847c-3.714 0-6.632.791-8.489 2.11-1.857 1.848-2.918 3.695-2.918 6.334Zm43.506 20.584c0-13.459 3.979-24.278 11.407-32.195 7.693-7.917 18.304-11.875 31.833-11.875 12.733 0 22.814 3.695 29.976 11.347 7.163 7.653 10.877 17.945 10.877 30.875 0 13.195-3.98 23.75-11.407 31.667-7.693 7.917-18.039 11.875-31.303 11.875-12.733 0-22.814-3.694-30.242-11.083-7.162-7.653-11.141-17.945-11.141-30.611Zm20.161-.792c0 8.444 1.857 15.042 5.836 19.528 3.979 4.486 9.55 6.861 16.712 6.861 6.898 0 12.468-2.111 16.182-6.861 3.714-4.486 5.571-11.084 5.571-20.056 0-8.708-1.857-15.305-5.571-20.055-3.714-4.487-9.284-6.862-15.916-6.862-7.163 0-12.468 2.375-16.448 7.125-4.244 5.014-6.366 11.612-6.366 20.32Zm128.394-25.597h-28.915V152h-19.631V86.028h-13.794V70.194h13.794V58.847c0-8.444 2.918-15.57 8.489-21.111 5.571-5.542 12.734-8.18 21.488-8.18 2.387 0 4.509.263 6.366.263 1.857 0 3.449.528 4.775 1.056V47.5c-.53-.264-1.857-.792-3.448-1.32-1.592-.527-3.449-.791-5.571-.791-3.979 0-7.163 1.32-9.285 3.694-2.122 2.375-3.183 6.334-3.183 11.084v9.763h28.915V51.458l19.365-5.805V69.93H895.6v15.834h-19.631v38.264c0 5.014 1.062 8.444 2.653 10.555 1.857 2.111 4.775 3.167 8.754 3.167 1.062 0 2.388-.264 3.98-.792 1.591-.528 2.918-1.055 3.979-1.847v15.833c-1.327.792-3.184 1.32-6.102 1.848-2.918.527-5.57.791-8.489.791-8.223 0-14.325-2.111-18.304-6.333-3.979-4.222-6.101-10.82-6.101-19.528l.265-41.694Z" fill="#737373"/>
    <path d="M90.747 0H.022v90.25h90.725V0Z" fill="#F25022"/>
    <path d="M191.022 0h-90.725v90.25h90.725V0Z" fill="#7FBA00"/>
    <path d="M90.747 99.75H.022V190h90.725V99.75Z" fill="#00A4EF"/>
    <path d="M191.022 99.75h-90.725V190h90.725V99.75Z" fill="#FFB900"/>
  </g>
  <defs>
    <clipPath id="a">
      <path fill="#fff" d="M.022 0H895.6v190H.022z"/>
    </clipPath>
  </defs>
</svg>
