<?xml version="1.0" encoding="UTF-8" standalone="no"?>
<!DOCTYPE svg PUBLIC "-//W3C//DTD SVG 1.1//EN"
 "http://www.w3.org/Graphics/SVG/1.1/DTD/svg11.dtd">
<!-- Generated by graphviz version 2.43.0 (0)
 -->
<!-- Title: polytree Pages: 1 -->
<svg width="246pt" height="196pt"
 viewBox="0.00 0.00 245.85 196.09" xmlns="http://www.w3.org/2000/svg" xmlns:xlink="http://www.w3.org/1999/xlink">
<g id="graph0" class="graph" transform="scale(1 1) rotate(0) translate(4 192.09)">
<title>polytree</title>
<polygon fill="white" stroke="transparent" points="-4,4 -4,-192.09 241.85,-192.09 241.85,4 -4,4"/>
<!-- A -->
<g id="node1" class="node">
<title>A</title>
<ellipse fill="none" stroke="black" cx="58" cy="-170.09" rx="18" ry="18"/>
<text text-anchor="middle" x="58" y="-166.39" font-family="Times,serif" font-size="14.00">A</text>
</g>
<!-- F -->
<g id="node4" class="node">
<title>F</title>
<ellipse fill="none" stroke="black" cx="58" cy="-68.85" rx="18" ry="18"/>
<text text-anchor="middle" x="58" y="-65.15" font-family="Times,serif" font-size="14.00">F</text>
</g>
<!-- A&#45;&gt;F -->
<!-- C -->
<g id="node7" class="node">
<title>C</title>
<ellipse fill="none" stroke="black" cx="18" cy="-119.9" rx="18" ry="18"/>
<text text-anchor="middle" x="18" y="-116.2" font-family="Times,serif" font-size="14.00">C</text>
</g>
<!-- A&#45;&gt;C -->
<g id="edge1" class="edge">
<title>A&#45;&gt;C</title>
<path fill="none" stroke="black" d="M46.86,-155.67C43.39,-151.49 39.48,-146.77 35.68,-142.2"/>
<polygon fill="black" stroke="black" points="38.16,-139.71 29.08,-134.25 32.78,-144.18 38.16,-139.71"/>
</g>
<!-- D -->
<g id="node8" class="node">
<title>D</title>
<ellipse fill="none" stroke="black" cx="98" cy="-119.9" rx="18.4" ry="18.4"/>
<text text-anchor="middle" x="98" y="-116.2" font-family="Times,serif" font-size="14.00">D</text>
</g>
<!-- A&#45;&gt;D -->
<g id="edge2" class="edge">
<title>A&#45;&gt;D</title>
<path fill="none" stroke="black" d="M69.14,-155.67C72.55,-151.56 76.39,-146.93 80.13,-142.43"/>
<polygon fill="black" stroke="black" points="82.95,-144.51 86.64,-134.58 77.56,-140.04 82.95,-144.51"/>
</g>
<!-- B -->
<g id="node2" class="node">
<title>B</title>
<ellipse fill="none" stroke="black" cx="138" cy="-170.09" rx="18" ry="18"/>
<text text-anchor="middle" x="138" y="-166.39" font-family="Times,serif" font-size="14.00">B</text>
</g>
<!-- E -->
<g id="node3" class="node">
<title>E</title>
<ellipse fill="none" stroke="black" cx="178" cy="-119.9" rx="18" ry="18"/>
<text text-anchor="middle" x="178" y="-116.2" font-family="Times,serif" font-size="14.00">E</text>
</g>
<!-- B&#45;&gt;E -->
<g id="edge3" class="edge">
<title>B&#45;&gt;E</title>
<path fill="none" stroke="black" d="M149.14,-155.67C152.61,-151.49 156.52,-146.77 160.32,-142.2"/>
<polygon fill="black" stroke="black" points="163.22,-144.18 166.92,-134.25 157.84,-139.71 163.22,-144.18"/>
</g>
<!-- G -->
<g id="node5" class="node">
<title>G</title>
<ellipse fill="none" stroke="black" cx="138" cy="-68.85" rx="18.4" ry="18.4"/>
<text text-anchor="middle" x="138" y="-65.15" font-family="Times,serif" font-size="14.00">G</text>
</g>
<!-- B&#45;&gt;G -->
<!-- B&#45;&gt;D -->
<g id="edge4" class="edge">
<title>B&#45;&gt;D</title>
<path fill="none" stroke="black" d="M126.86,-155.67C123.45,-151.56 119.61,-146.93 115.87,-142.43"/>
<polygon fill="black" stroke="black" points="118.44,-140.04 109.36,-134.58 113.05,-144.51 118.44,-140.04"/>
</g>
<!-- I -->
<g id="node6" class="node">
<title>I</title>
<ellipse fill="none" stroke="black" cx="178" cy="-18" rx="18" ry="18"/>
<text text-anchor="middle" x="178" y="-14.3" font-family="Times,serif" font-size="14.00">I</text>
</g>
<!-- E&#45;&gt;I -->
<!-- G&#45;&gt;I -->
<g id="edge7" class="edge">
<title>G&#45;&gt;I</title>
<path fill="none" stroke="black" d="M149.14,-54.24C152.61,-50.01 156.52,-45.23 160.32,-40.59"/>
<polygon fill="black" stroke="black" points="163.29,-42.49 166.92,-32.53 157.87,-38.05 163.29,-42.49"/>
</g>
<!-- C&#45;&gt;I -->
<!-- D&#45;&gt;F -->
<g id="edge5" class="edge">
<title>D&#45;&gt;F</title>
<path fill="none" stroke="black" d="M86.86,-105.23C83.39,-100.98 79.48,-96.18 75.68,-91.52"/>
<polygon fill="black" stroke="black" points="78.12,-88.97 69.08,-83.44 72.69,-93.4 78.12,-88.97"/>
</g>
<!-- D&#45;&gt;G -->
<g id="edge6" class="edge">
<title>D&#45;&gt;G</title>
<path fill="none" stroke="black" d="M109.14,-105.23C112.61,-100.98 116.52,-96.18 120.32,-91.52"/>
<polygon fill="black" stroke="black" points="123.31,-93.4 126.92,-83.44 117.88,-88.97 123.31,-93.4"/>
</g>
<!-- H -->
<g id="node9" class="node">
<title>H</title>
<ellipse fill="none" stroke="black" cx="219" cy="-68.85" rx="18.7" ry="18.7"/>
<text text-anchor="middle" x="219" y="-65.15" font-family="Times,serif" font-size="14.00">H</text>
</g>
<!-- H&#45;&gt;I -->
<g id="edge8" class="edge">
<title>H&#45;&gt;I</title>
<path fill="none" stroke="black" d="M207.36,-53.98C203.81,-49.75 199.82,-45 195.95,-40.39"/>
<polygon fill="black" stroke="black" points="198.35,-37.81 189.24,-32.4 192.99,-42.31 198.35,-37.81"/>
</g>
</g>
</svg>
