<svg xmlns="http://www.w3.org/2000/svg" width="720" height="720" fill="none">
  <path fill="#1E1658" d="M0 0h720v720H0z"/>
  <path fill="#fff" d="M202.647 202.185c4.16 0 7.097.918 8.81 2.753 1.836 1.714 2.753 4.65 2.753 8.811v77.273c6.241-6.974 13.461-12.297 21.659-15.968 8.199-3.794 17.07-5.69 26.614-5.69 16.03 0 30.041 3.915 42.033 11.747 11.992 7.831 21.169 18.477 27.532 31.937 6.363 13.46 9.545 28.511 9.545 45.153s-3.182 31.692-9.545 45.153c-6.363 13.46-15.54 24.106-27.532 31.937-11.992 7.831-26.003 11.747-42.033 11.747-11.624 0-22.209-2.692-31.753-8.076-9.545-5.506-17.499-13.154-23.862-22.944v15.418c0 4.161-.917 7.159-2.753 8.994-1.713 1.713-4.65 2.57-8.81 2.57H154.19c-2.937 0-5.2-.489-6.791-1.468-1.591-1.102-2.814-2.998-3.671-5.69-.734-2.692-1.101-6.608-1.101-11.747 0-5.14.367-9.055 1.101-11.747.857-2.693 2.08-4.528 3.671-5.507 1.591-.979 3.854-1.468 6.791-1.468h14.133v-165.56h-17.804c-2.936 0-5.2-.49-6.791-1.469-1.591-.979-2.814-2.814-3.671-5.506-.734-2.692-1.101-6.608-1.101-11.747 0-5.14.367-9.055 1.101-11.747.857-2.692 2.08-4.528 3.671-5.507 1.591-1.101 3.855-1.652 6.791-1.652h52.128Zm52.495 108.844c-7.832 0-14.929 1.836-21.292 5.507-6.363 3.67-11.441 9.116-15.234 16.335-3.794 7.097-5.69 15.541-5.69 25.33 0 9.789 1.896 18.293 5.69 25.513 3.793 7.097 8.871 12.481 15.234 16.152 6.363 3.671 13.46 5.507 21.292 5.507 7.586 0 14.194-1.897 19.823-5.69 5.629-3.916 9.911-9.422 12.848-16.52 3.059-7.097 4.589-15.418 4.589-24.962 0-9.545-1.53-17.865-4.589-24.963-2.937-7.097-7.219-12.542-12.848-16.335-5.629-3.916-12.237-5.874-19.823-5.874Zm172.902-108.844c4.16 0 7.097.918 8.81 2.753 1.835 1.714 2.753 4.65 2.753 8.811v77.273c6.241-6.974 13.46-12.297 21.659-15.968 8.198-3.794 17.07-5.69 26.614-5.69 16.03 0 30.041 3.915 42.033 11.747 11.992 7.831 21.169 18.477 27.532 31.937 6.363 13.46 9.544 28.511 9.544 45.153s-3.181 31.692-9.544 45.153c-6.363 13.46-15.54 24.106-27.532 31.937-11.992 7.831-26.003 11.747-42.033 11.747-11.624 0-22.209-2.692-31.754-8.076-9.544-5.506-17.498-13.154-23.861-22.944v15.418c0 4.161-.917 7.159-2.753 8.994-1.713 1.713-4.65 2.57-8.81 2.57h-41.115c-2.937 0-5.2-.489-6.791-1.468-1.591-1.102-2.815-2.998-3.671-5.69-.734-2.692-1.101-6.608-1.101-11.747 0-5.14.367-9.055 1.101-11.747.856-2.693 2.08-4.528 3.671-5.507 1.591-.979 3.854-1.468 6.791-1.468h14.133v-165.56h-17.804c-2.937 0-5.2-.49-6.791-1.469-1.591-.979-2.815-2.814-3.671-5.506-.734-2.692-1.101-6.608-1.101-11.747 0-5.14.367-9.055 1.101-11.747.856-2.692 2.08-4.528 3.671-5.507 1.591-1.101 3.854-1.652 6.791-1.652h52.128Zm52.494 108.844c-7.831 0-14.928 1.836-21.291 5.507-6.363 3.67-11.441 9.116-15.235 16.335-3.793 7.097-5.69 15.541-5.69 25.33 0 9.789 1.897 18.293 5.69 25.513 3.794 7.097 8.872 12.481 15.235 16.152 6.363 3.671 13.46 5.507 21.291 5.507 7.587 0 14.195-1.897 19.824-5.69 5.628-3.916 9.911-9.422 12.848-16.52 3.059-7.097 4.589-15.418 4.589-24.962 0-9.545-1.53-17.865-4.589-24.963-2.937-7.097-7.22-12.542-12.848-16.335-5.629-3.916-12.237-5.874-19.824-5.874Z"/>
</svg>
