<svg width="82" height="82" viewBox="0 0 82 82" fill="none" xmlns="http://www.w3.org/2000/svg">
<path d="M69.3951 0L62.0688 2.00111L49.737 5.32113L41.7281 7.50416L32.3085 10.0965L4.45949 17.6007L0 35.1559L11.4218 46.5713L20.0677 55.2579L28.2586 46.9806L28.2131 36.4748L44.4584 20.2385L47.5982 23.3311L46.3241 32.0177L50.9656 36.6567L59.657 35.3833L62.7514 38.5213L46.5061 54.7121L35.949 54.6667L27.758 62.853L34.4018 69.5385L46.8701 82L64.5261 77.7249L66.7103 69.5385L69.3496 59.8059L75.0832 38.3849L77.6315 28.9706L82 12.7343L69.3951 0Z" fill="#F72E5C"/>
</svg>