<?xml version="1.0" encoding="UTF-8"?>
<svg version="1.1" xmlns="http://www.w3.org/2000/svg" width="800" height="799">
<path d="M0 0 C3.69818993 0.73701406 7.37241684 1.54812369 11.04882812 2.38696289 C11.71059052 2.53636322 12.37235291 2.68576355 13.0541687 2.83969116 C27.85476326 6.20090037 42.26726323 10.6267151 56.67382812 15.38696289 C57.73609619 15.60126953 58.79836426 15.81557617 59.89282227 16.03637695 C62.67382812 17.38696289 62.67382812 17.38696289 64.08935547 20.6875 C64.42330479 22.09024928 64.72842644 23.50006622 65.00976562 24.91430664 C65.1788443 25.65902725 65.34792297 26.40374786 65.52212524 27.17103577 C66.05582318 29.55080643 66.55219167 31.93671364 67.04882812 34.32446289 C67.40456133 35.92849919 67.76260838 37.53202422 68.12304688 39.13500977 C70.67382812 50.64696739 70.67382812 50.64696739 70.67382812 54.38696289 C71.51558594 54.64477539 72.35734375 54.90258789 73.22460938 55.16821289 C76.92662952 56.47628796 80.37213274 58.10610639 83.86132812 59.88696289 C84.55057373 60.23662109 85.23981934 60.5862793 85.94995117 60.9465332 C87.42915295 61.69960542 88.90706493 62.45521556 90.38378906 63.21313477 C91.90837315 63.99460601 93.43507125 64.77196688 94.96386719 65.54516602 C104.13101949 70.1848992 113.04741744 75.08478766 121.73632812 80.57446289 C122.53723877 81.07888916 123.33814941 81.58331543 124.16333008 82.10302734 C128.38292501 84.79965443 132.28844753 87.65723321 136.17382812 90.82446289 C138.72925475 92.63158075 139.96323666 93.46661893 143.11962891 93.11279297 C143.98571777 92.83846436 144.85180664 92.56413574 145.74414062 92.28149414 C146.70932617 91.9844458 147.67451172 91.68739746 148.66894531 91.38134766 C149.66055664 91.05320068 150.65216797 90.72505371 151.67382812 90.38696289 C152.62161133 90.08008545 153.56939453 89.77320801 154.54589844 89.45703125 C158.35618548 88.20954563 162.15897815 86.94236228 165.95117188 85.64086914 C166.87800781 85.33536133 167.80484375 85.02985352 168.75976562 84.71508789 C169.58524902 84.43568359 170.41073242 84.1562793 171.26123047 83.8684082 C175.11793704 83.0987841 177.75369867 83.77970827 181.00585938 85.92602539 C197.26785643 99.60146858 213.69614248 114.29879722 226.80664062 131.08227539 C228.62108539 133.45600683 228.62108539 133.45600683 230.96679688 135.39086914 C232.67382812 137.38696289 232.67382812 137.38696289 232.65429688 139.59399414 C232.39261719 140.45379883 232.1309375 141.31360352 231.86132812 142.19946289 C231.56226563 143.23844727 231.26320313 144.27743164 230.95507812 145.34790039 C230.24739495 147.60749951 229.52114593 149.86078665 228.79492188 152.11450195 C228.14240413 154.14272261 227.49516485 156.17264783 226.8527832 158.20410156 C226.19735315 160.26690667 225.52555261 162.32458909 224.83666992 164.37646484 C224.37514526 165.81832153 224.37514526 165.81832153 223.90429688 167.28930664 C223.61965576 168.15031982 223.33501465 169.01133301 223.04174805 169.8984375 C222.40671951 174.19362389 224.4461295 177.34170489 226.88867188 180.74243164 C227.32147461 181.3543335 227.75427734 181.96623535 228.20019531 182.59667969 C228.89870605 183.57568237 228.89870605 183.57568237 229.61132812 184.57446289 C239.04317906 198.11298265 247.20828812 212.12387064 254.79882812 226.76196289 C255.13483032 227.40805511 255.47083252 228.05414734 255.8170166 228.71981812 C256.77754503 230.57216896 257.73106071 232.42792769 258.68164062 234.28540039 C259.23480957 235.3648291 259.78797852 236.44425781 260.35791016 237.55639648 C261.4371651 239.8778959 262.19067393 241.88827936 262.67382812 244.38696289 C263.24053223 244.43014648 263.80723633 244.47333008 264.39111328 244.51782227 C271.71823079 245.15534436 278.85199303 246.38728264 286.04882812 247.88696289 C287.21027344 248.09321289 288.37171875 248.29946289 289.56835938 248.51196289 C297.6870011 250.23893408 297.6870011 250.23893408 300.19677734 253.15869141 C301.30088426 255.53716472 301.99441332 257.85426316 302.67382812 260.38696289 C303.38527647 262.41856193 304.10175978 264.44840216 304.82226562 266.47680664 C305.57301295 268.75655767 306.31481276 271.03926974 307.04882812 273.32446289 C307.63482788 275.1466333 307.63482788 275.1466333 308.23266602 277.00561523 C311.81400181 288.39548556 314.63991206 299.9125998 317.08740234 311.5949707 C317.47856 313.45728501 317.88648953 315.31615473 318.31103516 317.17114258 C318.5042334 318.04416016 318.69743164 318.91717773 318.89648438 319.81665039 C319.07058838 320.57961426 319.24469238 321.34257812 319.42407227 322.12866211 C319.71859848 324.79177795 319.39873762 326.81389705 318.67382812 329.38696289 C316.91601562 331.35180664 316.91601562 331.35180664 314.54882812 333.32446289 C313.66195312 334.09661133 312.77507813 334.86875977 311.86132812 335.66430664 C310.15848011 337.12459782 308.44899729 338.57611258 306.73242188 340.02026367 C304.65003884 341.78604151 302.59926845 343.58425777 300.54882812 345.38696289 C299.87319824 345.94375732 299.19756836 346.50055176 298.50146484 347.07421875 C294.97184911 350.19457149 294.97184911 350.19457149 293.21386719 354.44165039 C293.17920185 356.80309509 293.41626777 359.03921631 293.67382812 361.38696289 C294.42537621 368.56096621 294.82310506 375.63524783 294.80664062 382.84790039 C294.80759735 383.80032623 294.80855408 384.75275208 294.80953979 385.73403931 C294.81021486 387.73228014 294.80840808 389.73052325 294.80419922 391.72875977 C294.7988534 394.74769136 294.80416125 397.7664734 294.81054688 400.78540039 C294.82069144 426.69835377 294.82069144 426.69835377 292.67382812 434.38696289 C293.26679687 434.6512207 293.85976563 434.91547852 294.47070312 435.18774414 C296.75411867 436.43066714 298.14809536 437.69097935 299.92382812 439.57446289 C302.3823395 442.10620652 304.88419975 444.51016415 307.54882812 446.82446289 C308.20367188 447.40969727 308.85851562 447.99493164 309.53320312 448.59790039 C311.68429818 450.45987191 311.68429818 450.45987191 314.25195312 452.11352539 C316.95543626 454.06235526 318.76691073 455.64745528 320.67382812 458.38696289 C320.72241211 461.38842773 320.72241211 461.38842773 320.10742188 464.78540039 C319.77871094 466.65095581 319.77871094 466.65095581 319.44335938 468.55419922 C319.18941406 469.81901123 318.93546875 471.08382324 318.67382812 472.38696289 C318.33158203 474.11112427 318.33158203 474.11112427 317.98242188 475.87011719 C317.24014407 479.4092998 316.43876737 482.92923978 315.61132812 486.44946289 C315.31331299 487.72354004 315.01529785 488.99761719 314.70825195 490.31030273 C311.40682126 504.1631764 307.46102 517.97190901 302.67382812 531.38696289 C302.35369751 532.50385498 302.35369751 532.50385498 302.02709961 533.64331055 C299.79163288 536.52364672 296.51838593 536.47798269 293.10351562 536.96508789 C291.55086546 537.24055775 289.99879554 537.51931438 288.44726562 537.80102539 C286.00806312 538.22791025 283.57285091 538.63355177 281.12109375 538.98168945 C271.84221735 540.1216009 271.84221735 540.1216009 264.21801758 544.97763062 C261.66616707 548.84816169 260.02030803 553.04810644 258.43731689 557.38726807 C257.35002738 560.23504698 255.93325891 562.86056406 254.47070312 565.53149414 C253.97135254 566.46590332 253.47200195 567.4003125 252.95751953 568.36303711 C245.14511436 582.81138529 237.12763736 597.42939637 226.68554688 610.18383789 C224.41425417 615.12981892 227.1120041 621.16860084 228.77539062 626.05493164 C229.38640625 627.88894531 229.38640625 627.88894531 230.00976562 629.76000977 C230.65572646 631.67693552 231.30503159 633.59262132 231.95898438 635.50683594 C232.59428937 637.37399542 233.21627926 639.24566876 233.83789062 641.11743164 C234.21381348 642.22497803 234.58973633 643.33252441 234.97705078 644.47363281 C235.67167757 647.37797111 235.81402626 648.67486661 234.67382812 651.38696289 C232.63476562 653.90258789 232.63476562 653.90258789 230.04882812 656.63696289 C229.13279345 657.6155027 228.21743203 658.59467318 227.30273438 659.57446289 C226.43519531 660.50258789 225.56765625 661.43071289 224.67382812 662.38696289 C223.43736483 663.79726558 222.20716751 665.21311377 220.98632812 666.63696289 C217.71669143 670.39896841 214.23159518 673.89972426 210.67382812 677.38696289 C208.00651641 680.04084854 205.35582229 682.70919351 202.72851562 685.40258789 C186.47116165 701.98829613 186.47116165 701.98829613 179.67382812 705.38696289 C177.20392328 704.75239489 174.82207189 704.04856879 172.40039062 703.26196289 C170.92126227 702.798299 169.44209435 702.33476128 167.96289062 701.87133789 C165.62915645 701.1304387 163.29653258 700.38622716 160.96484375 699.63891602 C158.716817 698.92129867 156.46516491 698.2161147 154.21289062 697.51196289 C153.51797516 697.28492676 152.82305969 697.05789063 152.10708618 696.82397461 C147.36195243 695.31593175 147.36195243 695.31593175 142.67382812 696.38696289 C140.24684893 697.96420836 137.89835938 699.57693395 135.54882812 701.26196289 C118.03156305 713.50667297 98.57969572 726.12874969 78.44482422 733.58227539 C75.20473392 735.69247341 74.66753743 737.26575503 73.87692261 740.98620605 C73.7454483 741.72689331 73.613974 742.46758057 73.47851562 743.23071289 C73.31892365 743.9962146 73.15933167 744.76171631 72.99490356 745.55041504 C72.488469 747.99172764 72.016122 750.43788098 71.54882812 752.88696289 C71.07113663 755.33507165 70.58599683 757.78081429 70.08132935 760.22351074 C69.76863202 761.74160163 69.47180425 763.26306933 69.19284058 764.78771973 C68.56717935 767.86404813 68.07078764 769.97753344 65.85522461 772.26269531 C63.54427819 773.45373149 61.30768761 774.39149971 58.84179688 775.21899414 C57.89038818 775.53956787 56.93897949 775.8601416 55.95874023 776.19042969 C54.93659424 776.52341064 53.91444824 776.8563916 52.86132812 777.19946289 C51.26140015 777.72503784 51.26140015 777.72503784 49.62915039 778.26123047 C34.62257412 783.11015513 19.36494175 786.86260522 3.98632812 790.32446289 C3.01171631 790.54835693 2.03710449 790.77225098 1.03295898 791.00292969 C0.12682861 791.20055908 -0.77930176 791.39818848 -1.71289062 791.60180664 C-2.50912842 791.77832764 -3.30536621 791.95484863 -4.12573242 792.13671875 C-6.57614466 792.41539095 -8.03155573 792.28657823 -10.32617188 791.38696289 C-12.03027344 789.94750977 -12.03027344 789.94750977 -13.71679688 788.10571289 C-14.33973633 787.43217773 -14.96267578 786.75864258 -15.60449219 786.06469727 C-16.58047363 784.98671875 -16.58047363 784.98671875 -17.57617188 783.88696289 C-18.2500293 783.1631543 -18.92388672 782.4393457 -19.61816406 781.69360352 C-23.14402779 777.88655684 -26.4112506 774.00136055 -29.57617188 769.88696289 C-31.63658283 767.56624306 -32.69172231 766.5380716 -35.72070312 765.81665039 C-38.64858811 765.75663518 -41.41422615 766.0715021 -44.32617188 766.38696289 C-54.62312055 767.2677514 -64.85554955 767.54398589 -75.18618774 767.51486206 C-77.63237862 767.51189471 -80.07804133 767.52665476 -82.52416992 767.54345703 C-95.99481834 767.59580379 -95.99481834 767.59580379 -102.39257812 766.56274414 C-110.28533566 765.10834528 -110.28533566 765.10834528 -117.52099609 767.87915039 C-122.08558516 771.84541491 -125.87816866 776.35035486 -129.56640625 781.12475586 C-131.34912206 783.41646572 -133.19411049 785.6311265 -135.09179688 787.82836914 C-135.64125977 788.46589111 -136.19072266 789.10341309 -136.75683594 789.76025391 C-138.32617188 791.38696289 -138.32617188 791.38696289 -141.32617188 793.38696289 C-144.359375 793.09838867 -144.359375 793.09838867 -148.10742188 792.33227539 C-148.78492493 792.19585632 -149.46242798 792.05943726 -150.16046143 791.91888428 C-152.38572005 791.46468151 -154.60588166 790.98982421 -156.82617188 790.51196289 C-157.58482544 790.35246155 -158.343479 790.19296021 -159.12512207 790.02862549 C-172.67176145 787.17334272 -186.08864672 783.8374377 -199.20654297 779.37207031 C-202.3933912 778.30853759 -202.3933912 778.30853759 -206.02783203 777.61474609 C-210.00149951 776.62661953 -212.91972514 775.67383153 -216.32617188 773.38696289 C-219.19916093 768.08658507 -220.17678801 762.71685364 -221.20117188 756.82446289 C-221.51721745 755.29010213 -221.83878908 753.75686871 -222.16601562 752.22485352 C-223.26632295 746.92827466 -224.32617188 741.82059935 -224.32617188 736.38696289 C-225.00421875 736.29286133 -225.68226563 736.19875977 -226.38085938 736.10180664 C-230.01963061 735.21865659 -233.14640924 733.65710848 -236.45117188 731.94946289 C-237.1449292 731.59529297 -237.83868652 731.24112305 -238.5534668 730.8762207 C-240.04390696 730.112877 -241.53271199 729.3463338 -243.02001953 728.5769043 C-245.31807978 727.3911383 -247.62429164 726.22249995 -249.93164062 725.05493164 C-264.25724959 717.7360406 -278.6240532 709.72911612 -291.02539062 699.39868164 C-298.88312333 695.94341378 -309.94512564 702.10531088 -317.50097656 704.74755859 C-319.36011213 705.39426607 -321.22589547 706.02176254 -323.09179688 706.64868164 C-324.19297852 707.02984131 -325.29416016 707.41100098 -326.42871094 707.80371094 C-329.32617187 708.38696289 -329.32617187 708.38696289 -331.50390625 707.66796875 C-333.32349861 706.38884213 -335.03700184 705.0876638 -336.71679688 703.62915039 C-337.33997803 703.08983887 -337.96315918 702.55052734 -338.60522461 701.99487305 C-339.25563721 701.4230127 -339.9060498 700.85115234 -340.57617188 700.26196289 C-341.58369507 699.38290283 -341.58369507 699.38290283 -342.61157227 698.48608398 C-346.75265195 694.84715097 -350.73597551 691.1098825 -354.56835938 687.14477539 C-356.42979848 685.28333629 -358.38117247 683.58913919 -360.38867188 681.88696289 C-363.80408714 678.95184039 -366.70864076 675.7805743 -369.61523438 672.34790039 C-371.25532953 670.46815663 -372.9682485 668.74239357 -374.76367188 667.01196289 C-375.95343825 665.80586105 -377.140753 664.59733795 -378.32617188 663.38696289 C-379.47666016 662.27901367 -379.47666016 662.27901367 -380.65039062 661.14868164 C-381.40964844 660.34043945 -382.16890625 659.53219727 -382.95117188 658.69946289 C-383.6653125 657.9737207 -384.37945312 657.24797852 -385.11523438 656.50024414 C-387.43677334 650.53164236 -384.51115016 644.2442578 -382.15136719 638.55419922 C-381.75143555 637.64822998 -381.35150391 636.74226074 -380.93945312 635.80883789 C-376.40973748 625.29827582 -376.40973748 625.29827582 -377.40087891 614.25366211 C-380.90531772 607.68400749 -385.51049525 601.94423015 -390.17041016 596.16333008 C-393.23171191 592.22073398 -395.71089601 588.05168964 -398.13867188 583.69946289 C-398.56510986 582.94995361 -398.99154785 582.20044434 -399.4309082 581.42822266 C-412.78337533 557.75782479 -412.78337533 557.75782479 -415.27978516 550.68530273 C-416.15566296 548.06045403 -416.15566296 548.06045403 -419.28320312 547.19946289 C-420.55550781 546.93133789 -421.8278125 546.66321289 -423.13867188 546.38696289 C-423.83573242 546.20842773 -424.53279297 546.02989258 -425.25097656 545.84594727 C-429.4520413 544.80715188 -433.30508739 544.31834434 -437.63476562 544.29321289 C-443.62361029 544.00531354 -448.643629 543.38675702 -453.32617188 539.38696289 C-459.48138362 529.2718076 -462.00364558 517.17131587 -464.74798584 505.76745605 C-465.30243093 503.4847085 -465.88184473 501.21021666 -466.47314453 498.93676758 C-468.67284625 490.47078799 -470.73232175 481.9905146 -472.32617188 473.38696289 C-472.54869629 472.38681152 -472.7712207 471.38666016 -473.00048828 470.35620117 C-473.49865895 467.50348286 -473.76898203 465.25013967 -473.32617188 462.38696289 C-471.14232829 459.3823839 -468.32570777 457.52869679 -465.32617188 455.38696289 C-463.8164841 454.02755334 -462.32828334 452.6439413 -460.86132812 451.23852539 C-460.12462891 450.5437207 -459.38792969 449.84891602 -458.62890625 449.13305664 C-457.88962891 448.4330957 -457.15035156 447.73313477 -456.38867188 447.01196289 C-455.62232422 446.28879883 -454.85597656 445.56563477 -454.06640625 444.82055664 C-450.66533265 441.63580017 -450.66533265 441.63580017 -447.32617188 438.38696289 C-447.44651999 436.21372293 -447.62074516 434.04352246 -447.81054688 431.87524414 C-448.39718379 423.90916813 -448.26730629 416.00021633 -448.02674866 408.02352524 C-447.90425969 403.74605261 -447.82212976 399.46753216 -447.73462677 395.18922234 C-447.65549025 391.50072342 -447.55206177 387.81567156 -447.40039062 384.12939453 C-445.87753886 367.17482346 -445.87753886 367.17482346 -451.07568359 351.88378906 C-454.14128625 348.72175631 -457.54745564 346.61802218 -461.32617188 344.38696289 C-463.29030599 342.7771759 -465.10237699 341.07048758 -466.95117188 339.32446289 C-467.7271875 338.63223633 -468.50320313 337.94000977 -469.30273438 337.22680664 C-469.97046875 336.6196582 -470.63820313 336.01250977 -471.32617188 335.38696289 C-471.86604736 334.93409912 -472.40592285 334.48123535 -472.9621582 334.01464844 C-474.32617188 332.38696289 -474.32617188 332.38696289 -474.17382812 328.50415039 C-471.27340531 309.13416651 -466.25451834 290.07672973 -460.28369141 271.44750977 C-459.61873088 269.32207753 -459.00322813 267.18079167 -458.42724609 265.02954102 C-456.10923713 256.87814007 -456.10923713 256.87814007 -452.28710938 254.48071289 C-451.10375 254.28477539 -449.92039062 254.08883789 -448.70117188 253.88696289 C-448.05817139 253.76353516 -447.4151709 253.64010742 -446.75268555 253.51293945 C-445.3617912 253.24693319 -443.96676384 253.00185755 -442.56884766 252.77563477 C-440.17986446 252.36160676 -437.83787336 251.83560441 -435.47851562 251.27758789 C-423.23255429 248.38696289 -423.23255429 248.38696289 -418.32617188 248.38696289 C-418.06835938 247.55680664 -417.81054688 246.72665039 -417.54492188 245.87133789 C-411.55278199 228.7399636 -401.76352276 212.67720741 -392.13867188 197.38696289 C-391.63352051 196.58355469 -391.12836914 195.78014648 -390.60791016 194.95239258 C-387.44231252 189.97921689 -384.10514922 185.25034768 -380.24023438 180.78540039 C-377.27943437 173.01646362 -384.13292899 160.66004115 -386.66796875 153.27368164 C-387.20067383 151.66686523 -387.20067383 151.66686523 -387.74414062 150.02758789 C-388.23563599 148.58174316 -388.23563599 148.58174316 -388.73706055 147.10668945 C-389.39049012 144.09002746 -389.25801977 142.31409052 -388.32617188 139.38696289 C-386.67033967 137.31001073 -385.04974615 135.45991032 -383.20117188 133.57446289 C-382.25994619 132.58985669 -381.31986193 131.60415823 -380.38085938 130.61743164 C-379.88457031 130.09979248 -379.38828125 129.58215332 -378.87695312 129.04882812 C-377.24478634 127.29974762 -375.68790841 125.50000984 -374.13085938 123.68383789 C-369.95624307 118.88320065 -365.5005938 114.37531141 -361.00292969 109.87841797 C-359.5869724 108.46028005 -358.17918898 107.03399624 -356.77148438 105.60766602 C-351.26347576 100.08815042 -345.63276598 95.01062331 -339.53222656 90.16210938 C-337.29260939 88.42513857 -337.29260939 88.42513857 -335.32617188 86.38696289 C-330.37867275 86.72530168 -326.25223051 88.03145904 -321.67773438 89.87524414 C-308.93598843 95.21981737 -308.93598843 95.21981737 -295.55761719 95.80834961 C-290.71169678 93.51233036 -287.04434655 89.91929835 -283.26708984 86.17797852 C-280.05359433 83.21266995 -276.39757787 81.08968098 -272.63867188 78.88696289 C-271.90672607 78.44562012 -271.17478027 78.00427734 -270.4206543 77.54956055 C-264.32273599 73.89593331 -258.11934925 70.43310007 -251.88867188 67.01196289 C-251.00155518 66.52405273 -250.11443848 66.03614258 -249.20043945 65.53344727 C-232.32127563 56.38696289 -232.32127563 56.38696289 -228.32617188 56.38696289 C-227.82297465 52.31325315 -227.34524659 48.31932933 -227.26123047 44.21264648 C-227.05629581 35.4381743 -226.39207408 26.80081568 -221.32617188 19.38696289 C-212.35023595 12.11585642 -198.68025052 10.28427071 -187.69952393 7.91516113 C-183.99838765 7.09145962 -180.33513704 6.13050023 -176.66601562 5.17602539 C-169.59144015 3.37262058 -162.51200842 1.68851653 -155.32617188 0.38696289 C-153.80419189 0.10647095 -153.80419189 0.10647095 -152.25146484 -0.1796875 C-145.24233846 -1.18730095 -145.24233846 -1.18730095 -141.09179688 1.41430664 C-140.26164062 2.3746582 -139.43148438 3.33500977 -138.57617188 4.32446289 C-138.12282471 4.82937256 -137.66947754 5.33428223 -137.20239258 5.85449219 C-135.87994665 7.33880305 -134.60197167 8.86237218 -133.32617188 10.38696289 C-132.05615178 11.82518143 -130.78543719 13.26278735 -129.51367188 14.69946289 C-128.98 15.32723633 -128.44632812 15.95500977 -127.89648438 16.60180664 C-126.30238114 18.41400858 -124.62483357 20.08636498 -122.88867188 21.76196289 C-120.32617188 24.38696289 -120.32617188 24.38696289 -120.32617188 26.38696289 C-118.96842651 26.1823645 -118.96842651 26.1823645 -117.58325195 25.97363281 C-108.38331952 24.65733024 -99.31364541 23.94908836 -90.01367188 23.69946289 C-89.32227112 23.67684387 -88.63087036 23.65422485 -87.91851807 23.63092041 C-79.54400536 23.35922321 -71.23813855 23.36480728 -62.86914062 23.79711914 C-62.09755112 23.83390274 -61.32596161 23.87068634 -60.5309906 23.90858459 C-56.80062353 24.08924712 -53.07989056 24.30804344 -49.35620117 24.59521484 C-42.38235705 25.18091159 -42.38235705 25.18091159 -35.93579102 22.96508789 C-34.15007105 21.20580398 -32.73535911 19.45463307 -31.32617188 17.38696289 C-30.40384766 16.37375977 -30.40384766 16.37375977 -29.46289062 15.34008789 C-28.98464844 14.77805664 -28.50640625 14.21602539 -28.01367188 13.63696289 C-27.43488281 12.9834082 -26.85609375 12.32985352 -26.25976562 11.65649414 C-24.80356962 9.94730247 -23.40985151 8.18458711 -22.04882812 6.39868164 C-21.23285156 5.38418945 -20.416875 4.36969727 -19.57617188 3.32446289 C-18.83882813 2.36411133 -18.10148437 1.40375977 -17.34179688 0.41430664 C-11.87437891 -3.26132798 -6.16956351 -1.13709439 0 0 Z " fill="#257DDC" transform="translate(477.326171875,2.613037109375)"/>
<path d="M0 0 C0.81895752 0.45141357 1.63791504 0.90282715 2.48168945 1.36791992 C3.32046631 1.81868896 4.15924316 2.26945801 5.0234375 2.73388672 C5.92102783 3.25635986 6.81861816 3.77883301 7.7434082 4.31713867 C8.7662793 4.91010742 9.78915039 5.50307617 10.84301758 6.11401367 C11.9406543 6.75467773 13.03829102 7.3953418 14.16918945 8.05541992 C15.33109293 8.73025372 16.49320617 9.40472648 17.65551758 10.07885742 C20.06892985 11.47899082 22.48143405 12.88067011 24.89331055 14.28344727 C30.41436016 17.49283261 35.94870546 20.67917056 41.48168945 23.86791992 C43.64841854 25.11781172 45.81508501 26.36781207 47.98168945 27.61791992 C49.59043945 28.54604492 49.59043945 28.54604492 51.23168945 29.49291992 C56.10668945 32.30541992 56.10668945 32.30541992 60.98168945 35.11791992 C62.05555908 35.73739502 63.12942871 36.35687012 64.23583984 36.99511719 C66.38889983 38.23739798 68.54173424 39.48006981 70.69433594 40.72314453 C75.72270407 43.62628105 80.75308759 46.52570859 85.79190063 49.41067505 C87.5660149 50.42669176 89.33938864 51.4439892 91.11254883 52.46166992 C93.32984259 53.73374284 95.54850021 55.00344277 97.76879883 56.27026367 C100.68732222 57.94650557 103.58754046 59.65000819 106.48168945 61.36791992 C107.60172363 62.00890625 107.60172363 62.00890625 108.74438477 62.6628418 C115.86849554 67.01628375 121.49673773 72.99981187 127.31176758 78.91674805 C129.10286948 80.73903344 130.90444017 82.55041044 132.70825195 84.36010742 C133.87554314 85.53657143 135.04223025 86.71363519 136.20825195 87.89135742 C136.73448151 88.42183685 137.26071106 88.95231628 137.80288696 89.49887085 C140.47752685 92.22379959 143.03820445 94.99919292 145.51245117 97.9074707 C150.4864101 103.63897182 155.92420276 108.92077513 161.30479431 114.26618958 C163.30080469 116.24929026 165.29354651 118.23562566 167.28552246 120.22277832 C171.51476051 124.44065842 175.74792348 128.65458545 179.98168945 132.86791992 C184.89265735 137.75518825 189.80194836 142.64411706 194.70701599 147.53730774 C196.65853196 149.48240037 198.6130633 151.42442658 200.56774902 153.36633301 C205.7544664 158.53186286 210.8505659 163.68274741 215.59802246 169.25939941 C219.77479549 173.93475425 224.30198139 178.29402805 228.74920654 182.71060181 C230.64440839 184.59288168 232.53632998 186.4784061 234.42749023 188.36474609 C238.4427365 192.36864031 242.46190959 196.36857798 246.48168945 200.36791992 C251.14484406 205.00736546 255.806315 209.64847733 260.46356201 214.29385376 C262.3153598 216.13923351 264.17017394 217.98154286 266.02514648 219.82373047 C271.0609208 224.8378379 276.00170978 229.86599303 280.61523438 235.27661133 C284.61066104 239.75337062 288.93638994 243.92880921 293.19361877 248.15501404 C294.9880128 249.93647241 296.77911355 251.7211863 298.56945801 253.50671387 C302.37071221 257.29662258 306.17589533 261.08257089 309.98168945 264.86791992 C314.39703131 269.25954213 318.81068193 273.65283718 323.22010803 278.05039978 C324.97218741 279.79606702 326.72728423 281.53865944 328.48254395 283.28112793 C337.31219614 292.07153289 337.31219614 292.07153289 341.16259766 296.59057617 C345.10966719 301.21509813 349.58779482 305.22491789 354.0559082 309.33666992 C356.81661532 311.94541338 359.56846105 314.56326657 362.31933594 317.18237305 C364.22260018 318.9759057 366.14241535 320.75203215 368.078125 322.51049805 C383.72914253 336.77417879 383.72914253 336.77417879 384.96426392 342.67242432 C384.82651366 347.79893898 382.79712592 351.8756347 380.48168945 356.36791992 C379.89498857 358.09476766 379.33332871 359.83065018 378.8137207 361.57885742 C378.31499861 362.96969563 377.80888749 364.3579143 377.29418945 365.74291992 C377.03444336 366.46479492 376.77469727 367.18666992 376.50708008 367.93041992 C374.6817054 372.96788803 374.6817054 372.96788803 373.48168945 375.36791992 C370.9830649 375.92045819 368.53351584 376.3577228 366.0090332 376.75073242 C364.4530059 377.03210602 362.89768282 377.31739668 361.34301758 377.60620117 C358.89295266 378.05770233 356.44854684 378.4885818 353.98388672 378.8527832 C344.66921144 380.05313739 344.66921144 380.05313739 337.02264404 384.96505737 C334.47211017 388.83475634 332.82611853 393.0321424 331.24417114 397.37023926 C330.15744667 400.21742694 328.74073643 402.84218292 327.27856445 405.51245117 C326.77921387 406.44686035 326.27986328 407.38126953 325.76538086 408.34399414 C317.95297569 422.79234232 309.93549868 437.4103534 299.4934082 450.16479492 C297.2221155 455.11077595 299.91986543 461.14955787 301.58325195 466.03588867 C301.9905957 467.25856445 302.39793945 468.48124023 302.81762695 469.7409668 C303.46358778 471.65789255 304.11289292 473.57357836 304.7668457 475.48779297 C305.4021507 477.35495245 306.02414059 479.22662579 306.64575195 481.09838867 C307.0216748 482.20593506 307.39759766 483.31348145 307.78491211 484.45458984 C308.4795389 487.35892814 308.62188759 488.65582364 307.48168945 491.36791992 C305.44262695 493.88354492 305.44262695 493.88354492 302.85668945 496.61791992 C301.94065478 497.59645973 301.02529336 498.57563021 300.1105957 499.55541992 C299.24305664 500.48354492 298.37551758 501.41166992 297.48168945 502.36791992 C296.24522616 503.77822261 295.01502884 505.1940708 293.79418945 506.61791992 C290.52455276 510.37992544 287.03945651 513.88068129 283.48168945 517.36791992 C280.81437773 520.02180557 278.16368361 522.69015054 275.53637695 525.38354492 C259.27902297 541.96925316 259.27902297 541.96925316 252.48168945 545.36791992 C250.0117846 544.73335192 247.62993322 544.02952582 245.20825195 543.24291992 C243.7291236 542.77925603 242.24995568 542.31571831 240.77075195 541.85229492 C238.43701778 541.11139573 236.10439391 540.36718419 233.77270508 539.61987305 C231.52467833 538.9022557 229.27302624 538.19707173 227.02075195 537.49291992 C226.32583649 537.26588379 225.63092102 537.03884766 224.91494751 536.80493164 C220.16981376 535.29688878 220.16981376 535.29688878 215.48168945 536.36791992 C213.05471026 537.94516539 210.70622071 539.55789098 208.35668945 541.24291992 C190.83942438 553.48763001 171.38755705 566.10970673 151.25268555 573.56323242 C148.01259524 575.67343044 147.47539876 577.24671206 146.68478394 580.96716309 C146.48757248 582.07819397 146.48757248 582.07819397 146.28637695 583.21166992 C146.12678497 583.97717163 145.96719299 584.74267334 145.80276489 585.53137207 C145.29633033 587.97268467 144.82398333 590.41883802 144.35668945 592.86791992 C143.87899796 595.31602868 143.39385816 597.76177132 142.88919067 600.20446777 C142.57649335 601.72255866 142.27966558 603.24402637 142.0007019 604.76867676 C141.37504068 607.84500516 140.87864897 609.95849047 138.66308594 612.24365234 C136.35213952 613.43468852 134.11554894 614.37245674 131.6496582 615.19995117 C130.69824951 615.5205249 129.74684082 615.84109863 128.76660156 616.17138672 C127.74445557 616.50436768 126.72230957 616.83734863 125.66918945 617.18041992 C124.6025708 617.53080322 123.53595215 617.88118652 122.43701172 618.2421875 C107.43043545 623.09111216 92.17280307 626.84356225 76.79418945 630.30541992 C75.81957764 630.52931396 74.84496582 630.75320801 73.84082031 630.98388672 C72.93468994 631.18151611 72.02855957 631.37914551 71.0949707 631.58276367 C70.29873291 631.75928467 69.50249512 631.93580566 68.68212891 632.11767578 C66.23171667 632.39634798 64.7763056 632.26753526 62.48168945 631.36791992 C60.77758789 629.9284668 60.77758789 629.9284668 59.09106445 628.08666992 C58.468125 627.41313477 57.84518555 626.73959961 57.20336914 626.0456543 C56.2273877 624.96767578 56.2273877 624.96767578 55.23168945 623.86791992 C54.55783203 623.14411133 53.88397461 622.42030273 53.18969727 621.67456055 C49.66383354 617.86751387 46.39661073 613.98231758 43.23168945 609.86791992 C41.1712785 607.54720009 40.11613902 606.51902863 37.0871582 605.79760742 C34.15940359 605.73759488 31.3934762 606.05258309 28.48168945 606.36791992 C17.92658353 607.26495442 7.40703192 607.58270684 -3.18334961 607.6081543 C-5.67552846 607.61804782 -8.1669422 607.64929432 -10.65893555 607.68041992 C-12.26049326 607.68693593 -13.86205671 607.69219187 -15.46362305 607.69604492 C-16.20009064 607.70839172 -16.93655823 607.72073853 -17.69534302 607.73345947 C-24.25167345 607.70502463 -27.69293839 605.36972988 -32.3034668 600.99682617 C-32.9931958 600.34576904 -33.6829248 599.69471191 -34.39355469 599.02392578 C-35.47624634 597.98764038 -35.47624634 597.98764038 -36.58081055 596.93041992 C-37.70700806 595.86223022 -37.70700806 595.86223022 -38.85595703 594.77246094 C-44.23828205 589.64750401 -49.51678914 584.43039875 -54.7097168 579.11401367 C-56.87892258 576.99307951 -59.06342834 575.00528585 -61.3581543 573.02807617 C-66.33858589 568.71491316 -70.90768675 564.02953246 -75.51831055 559.32885742 C-78.75828592 556.05091359 -82.02528123 552.87656431 -85.51831055 549.86791992 C-90.45293186 545.6175918 -94.96084444 540.97533654 -99.51831055 536.32885742 C-103.39370102 532.40805221 -107.3732714 528.71116897 -111.54956055 525.11401367 C-115.51503511 521.5970154 -119.16690448 517.75830295 -122.8737793 513.97338867 C-125.98455652 510.82348217 -129.13190434 507.78906033 -132.48706055 504.89916992 C-137.43058277 500.63652079 -141.95046545 495.98591825 -146.51831055 491.32885742 C-149.75828592 488.05091359 -153.02528123 484.87656431 -156.51831055 481.86791992 C-161.45293186 477.6175918 -165.96084444 472.97533654 -170.51831055 468.32885742 C-173.75828592 465.05091359 -177.02528123 461.87656431 -180.51831055 458.86791992 C-185.45293186 454.6175918 -189.96084444 449.97533654 -194.51831055 445.32885742 C-197.75828592 442.05091359 -201.02528123 438.87656431 -204.51831055 435.86791992 C-209.45293186 431.6175918 -213.96084444 426.97533654 -218.51831055 422.32885742 C-222.44832173 418.35279142 -226.46564497 414.59448832 -230.7565918 411.00854492 C-232.61777217 409.27529491 -234.05329835 407.44147565 -235.51831055 405.36791992 C-231.17270748 406.3138327 -227.60763408 408.38208253 -223.76831055 410.55541992 C-222.98391602 410.99539307 -222.19952148 411.43536621 -221.39135742 411.88867188 C-212.82332692 416.717759 -204.34087814 421.69460647 -195.85424805 426.66479492 C-189.46549087 430.40426568 -183.0571673 434.10920094 -176.64331055 437.80541992 C-175.57242188 438.42255859 -174.5015332 439.03969727 -173.39819336 439.67553711 C-171.21662644 440.93250099 -169.03498538 442.18933617 -166.85327148 443.44604492 C-162.28403884 446.0792074 -157.71661292 448.71546776 -153.15161133 451.35595703 C-150.92253982 452.64035132 -148.68921888 453.91740294 -146.45141602 455.18652344 C-141.93528461 457.75494761 -137.49352729 460.30420649 -133.26831055 463.33276367 C-130.1265474 465.54687413 -127.26716085 467.32710801 -123.51831055 468.36791992 C-118.93093606 467.48973236 -115.50852441 465.32785493 -111.68920898 462.78100586 C-108.30970622 460.58121256 -104.79907732 458.61755845 -101.30151367 456.61279297 C-98.18692111 454.82110003 -95.08950192 453.00244958 -91.99487305 451.17651367 C-85.56657471 447.38892997 -79.10906523 443.65361456 -72.64331055 439.93041992 C-71.56549316 439.30917236 -70.48767578 438.6879248 -69.37719727 438.04785156 C-64.99440311 435.52182531 -60.61082139 432.99716726 -56.22729492 430.47241211 C-52.94900001 428.58393504 -49.67113297 426.69471694 -46.39331055 424.80541992 C-45.33321777 424.19504883 -44.273125 423.58467773 -43.1809082 422.95581055 C-37.64646156 419.76529532 -32.1243715 416.55513635 -26.61987305 413.31323242 C-24.95722412 412.33592163 -24.95722412 412.33592163 -23.26098633 411.33886719 C-21.1399356 410.09054212 -19.02102578 408.83857043 -16.90454102 407.58251953 C-15.96239746 407.02830322 -15.02025391 406.47408691 -14.04956055 405.90307617 C-13.22004883 405.41202393 -12.39053711 404.92097168 -11.53588867 404.41503906 C-9.51831055 403.36791992 -9.51831055 403.36791992 -7.51831055 403.36791992 C-7.53775511 397.49566316 -7.58954726 391.62489992 -7.67089844 385.75317383 C-7.69404763 383.75716293 -7.70846691 381.76103041 -7.71386719 379.76489258 C-7.72317925 376.88961267 -7.76421871 374.01623741 -7.8112793 371.14135742 C-7.80538033 369.80976089 -7.80538033 369.80976089 -7.79936218 368.45126343 C-7.89937563 364.17224654 -8.16472289 361.24059441 -10.875 357.81958008 C-14.58214362 354.38121892 -17.3247691 354.15980902 -22.2800293 354.19604492 C-24.61222621 354.3751316 -26.69375517 354.84410785 -28.95581055 355.43041992 C-35.1035263 356.9037518 -40.21141453 356.58665744 -45.83081055 353.61791992 C-50.67944963 349.55859418 -54.05536836 345.4852997 -54.77612305 339.07495117 C-55.04453746 333.16088683 -54.36892903 328.95731986 -50.51831055 324.36791992 C-46.59241408 320.42417847 -43.45852472 317.50504925 -37.6706543 317.23510742 C-36.07930664 317.23897461 -36.07930664 317.23897461 -34.45581055 317.24291992 C-33.39233398 317.2403418 -32.32885742 317.23776367 -31.2331543 317.23510742 C-28.51831055 317.36791992 -28.51831055 317.36791992 -26.51831055 318.36791992 C-18.42665993 319.24817088 -18.42665993 319.24817088 -11.33081055 315.99291992 C-8.13660199 311.36682478 -8.38873792 307.68581436 -8.4206543 302.20385742 C-8.42206924 301.29664948 -8.42348419 300.38944153 -8.42494202 299.45474243 C-8.43054959 296.55076837 -8.44310336 293.64687077 -8.45581055 290.74291992 C-8.46082457 288.7767752 -8.46538765 286.81062927 -8.46948242 284.84448242 C-8.48052148 280.01893202 -8.4977912 275.19343895 -8.51831055 270.36791992 C-9.55217896 269.79460937 -9.55217896 269.79460937 -10.60693359 269.2097168 C-17.23793309 265.5278589 -23.85408257 261.82072645 -30.45776367 258.09008789 C-32.96493122 256.67930615 -35.48111111 255.28778692 -38.00268555 253.90307617 C-39.71198242 252.92661133 -39.71198242 252.92661133 -41.45581055 251.93041992 C-42.41358398 251.39545898 -43.37135742 250.86049805 -44.3581543 250.30932617 C-47.9998268 247.03643063 -48.31414716 243.03346332 -48.8894043 238.34057617 C-49.04932812 231.3321497 -48.27402044 226.66713952 -43.51831055 221.36791992 C-41.58407082 219.60393112 -39.56477058 218.00508795 -37.51831055 216.36791992 C-34.97189718 212.89553805 -35.08301262 209.57579985 -35.51831055 205.36791992 C-37.13487209 202.30799987 -38.59454764 200.12672516 -41.26831055 197.93041992 C-44.74217977 197.06195262 -48.12245963 197.21386121 -51.51831055 198.36791992 C-55.32157557 201.32833684 -56.2577903 204.07885931 -57.39331055 208.68041992 C-60.04758966 217.83204635 -64.10469301 221.95908282 -72.2722168 226.61791992 C-75.16503861 227.58387086 -76.64594369 227.36621488 -79.51831055 226.36791992 C-81.58081055 224.69604492 -81.58081055 224.69604492 -83.51831055 222.61791992 C-84.15768555 221.94245117 -84.79706055 221.26698242 -85.45581055 220.57104492 C-86.91408145 219.01334646 -88.3666638 217.45031334 -89.81518555 215.88354492 C-92.91656556 212.99728954 -96.11444765 210.97391422 -99.76831055 208.86791992 C-100.38577148 208.50311523 -101.00323242 208.13831055 -101.6394043 207.76245117 C-105.1531555 205.69766954 -108.70327028 203.70182923 -112.26733398 201.7253418 C-113.06669373 201.28186401 -113.86605347 200.83838623 -114.68963623 200.38146973 C-115.29309875 200.04699829 -115.89656128 199.71252686 -116.51831055 199.36791992 C-117.08071814 182.13968315 -117.50297559 164.91433405 -117.76180267 147.67899895 C-117.88522096 139.67454931 -118.05317695 131.6758217 -118.32885742 123.67504883 C-118.56924457 116.69518511 -118.72315468 109.71946253 -118.77643442 102.73557484 C-118.80756852 99.03995928 -118.87972122 95.35617863 -119.05583191 91.66439438 C-120.08219595 69.29757511 -120.08219595 69.29757511 -114.16280746 62.77066612 C-108.39001831 58.2530557 -102.08073548 55.24011738 -95.30646896 52.51957893 C-91.76938414 51.05857314 -88.65523118 49.25242187 -85.40112305 47.24682617 C-83.48220403 46.14074684 -81.56294182 45.03526265 -79.64331055 43.93041992 C-77.45840517 42.67132191 -75.27350962 41.41220682 -73.08862305 40.15307617 C-72.00355469 39.52804199 -70.91848633 38.90300781 -69.80053711 38.2590332 C-64.37171114 35.13111845 -58.94510386 31.99935946 -53.51831055 28.86791992 C-47.4411489 25.36147509 -41.36390582 21.85517291 -35.28546143 18.35095215 C-33.53489814 17.34172888 -31.78440644 16.33238156 -30.03393555 15.32299805 C-27.8543889 14.06624333 -25.67471222 12.80971406 -23.49487305 11.5534668 C-21.9944043 10.68818359 -21.9944043 10.68818359 -20.46362305 9.80541992 C-19.00037598 8.97010742 -19.00037598 8.97010742 -17.50756836 8.11791992 C-15.40492836 6.88697223 -13.3278804 5.61177302 -11.27124023 4.30541992 C-10.21582031 3.64541992 -9.16040039 2.98541992 -8.07299805 2.30541992 C-7.12666504 1.69569336 -6.18033203 1.0859668 -5.20532227 0.45776367 C-2.51831055 -0.63208008 -2.51831055 -0.63208008 0 0 Z " fill="#1E6ABC" transform="translate(404.518310546875,162.632080078125)"/>
<path d="M0 0 C0.81895752 0.45141357 1.63791504 0.90282715 2.48168945 1.36791992 C3.32046631 1.81868896 4.15924316 2.26945801 5.0234375 2.73388672 C5.92102783 3.25635986 6.81861816 3.77883301 7.7434082 4.31713867 C9.27771484 5.2065918 9.27771484 5.2065918 10.84301758 6.11401367 C11.9406543 6.75467773 13.03829102 7.3953418 14.16918945 8.05541992 C15.33109293 8.73025372 16.49320617 9.40472648 17.65551758 10.07885742 C20.06892985 11.47899082 22.48143405 12.88067011 24.89331055 14.28344727 C30.41436016 17.49283261 35.94870546 20.67917056 41.48168945 23.86791992 C43.64841854 25.11781172 45.81508501 26.36781207 47.98168945 27.61791992 C49.05418945 28.23666992 50.12668945 28.85541992 51.23168945 29.49291992 C60.98168945 35.11791992 60.98168945 35.11791992 64.23632812 36.99560547 C66.3875217 38.23667246 68.538726 39.47772085 70.68994141 40.71875 C75.74131944 43.63290337 80.79259256 46.5472381 85.84347534 49.46224976 C87.63235863 50.4946547 89.42127663 51.52699948 91.21020508 52.55932617 C93.45506582 53.8547794 95.69986136 55.15034562 97.94458008 56.44604492 C98.96100586 57.03256836 99.97743164 57.6190918 101.0246582 58.22338867 C101.9117749 58.73538818 102.7988916 59.2473877 103.71289062 59.77490234 C105.85824703 61.00922476 108.00557164 62.2398256 110.15473938 63.46748352 C111.2526329 64.09462753 112.35052643 64.72177155 113.48168945 65.36791992 C113.78570214 82.57038983 114.01477003 99.77201891 114.15524769 116.9765625 C114.22221594 124.96551431 114.31346523 132.95279498 114.46240234 140.94067383 C114.59219405 147.90507031 114.67589394 154.86825664 114.70483989 161.83382893 C114.72175728 165.52108442 114.76133628 169.20487901 114.85618019 172.89102173 C115.40942881 195.25645949 115.40942881 195.25645949 112.26169014 200.33705521 C108.89328019 203.70504201 105.01230593 205.00589865 100.48168945 206.36791992 C99.11842073 207.10495302 97.77339079 207.87898402 96.46728516 208.71313477 C95.37504639 209.32882324 94.28280762 209.94451172 93.1574707 210.57885742 C91.93284033 211.27283078 90.70823149 211.96684214 89.48364258 212.66088867 C87.61677426 213.71511435 85.74928133 214.76821979 83.88134766 215.82055664 C82.03433365 216.86226781 80.18956186 217.90786384 78.3449707 218.95385742 C77.26513916 219.56277832 76.18530762 220.17169922 75.07275391 220.79907227 C71.65989216 222.83880563 71.65989216 222.83880563 69.87231445 226.23510742 C68.53503865 233.53663329 69.48261647 240.58117309 72.48168945 247.36791992 C74.77351217 250.15989724 74.77351217 250.15989724 77.48168945 252.36791992 C80.97021658 255.77892422 82.81829377 258.06559499 83.04418945 262.93041992 C82.7942761 267.1718065 81.672349 269.44314867 78.48168945 272.36791992 C74.99504494 274.89273146 71.68417827 274.80266014 67.48168945 274.36791992 C63.77778924 272.34125754 61.82805935 270.88747476 59.48168945 267.36791992 C58.70886328 264.38701895 58.0853613 261.39039061 57.45825195 258.37573242 C55.94955299 253.72893961 53.77291141 251.19696355 49.67700195 248.56713867 C48.66379883 248.06827148 47.6505957 247.5694043 46.60668945 247.05541992 C45.59864258 246.54366211 44.5905957 246.0319043 43.55200195 245.50463867 C39.0936372 243.85402271 35.94534847 243.71861288 31.55664062 245.66552734 C30.55608643 246.26212158 29.55553223 246.85871582 28.5246582 247.47338867 C26.855 248.4546875 26.855 248.4546875 25.15161133 249.45581055 C23.99054827 250.15525595 22.8297423 250.85512828 21.66918945 251.55541992 C20.52082622 252.23698201 19.37174243 252.91733159 18.22192383 253.59643555 C17.10495117 254.25708008 15.98797852 254.91772461 14.8371582 255.59838867 C13.75096191 256.2408252 12.66476562 256.88326172 11.5456543 257.54516602 C9.63082434 258.68429912 7.7234859 259.83623443 5.82788086 261.00708008 C5.04977051 261.47291504 4.27166016 261.93875 3.4699707 262.41870117 C2.8116626 262.82386963 2.15335449 263.22903809 1.47509766 263.64648438 C-1.2639842 264.63778712 -2.75074736 264.22947301 -5.51831055 263.36791992 C-8.14624023 262.06445312 -8.14624023 262.06445312 -10.94018555 260.41870117 C-11.9662793 259.81735352 -12.99237305 259.21600586 -14.04956055 258.59643555 C-15.11174805 257.96415039 -16.17393555 257.33186523 -17.26831055 256.68041992 C-18.3150293 256.0674707 -19.36174805 255.45452148 -20.44018555 254.82299805 C-25.22177867 252.0048466 -29.97608483 249.14062895 -34.65893555 246.16088867 C-35.36050781 245.71640381 -36.06208008 245.27191895 -36.78491211 244.81396484 C-39.8548403 242.25295292 -40.45838533 239.90724691 -40.89331055 235.99291992 C-40.19967529 229.28777913 -35.53762333 225.12871457 -31.10424805 220.39526367 C-26.66574415 214.72141263 -26.75902162 208.2765118 -27.51831055 201.36791992 C-30.0566917 196.10312939 -33.72297438 192.87891245 -38.83081055 190.11791992 C-44.22344117 188.61299975 -48.64447424 188.70099405 -53.70581055 190.99291992 C-61.23746493 195.26724433 -63.09501969 200.5584925 -65.5534668 208.51635742 C-66.99137421 212.76604331 -68.68551703 215.97752484 -72.33081055 218.74291992 C-76.67145405 219.98310378 -80.41038086 219.84105557 -84.55688477 218.0703125 C-86.04986084 217.17542114 -86.04986084 217.17542114 -87.57299805 216.26245117 C-88.68288086 215.60825195 -89.79276367 214.95405273 -90.9362793 214.2800293 C-92.08891752 213.58064459 -93.24125983 212.88077197 -94.39331055 212.18041992 C-96.66125999 210.83229298 -98.929484 209.48462782 -101.19799805 208.13745117 C-102.69435791 207.23410034 -102.69435791 207.23410034 -104.22094727 206.3125 C-106.87062361 204.74988545 -109.53402531 203.23662016 -112.22439575 201.74638367 C-113.43273417 201.07661011 -113.43273417 201.07661011 -114.66548347 200.39330578 C-115.27691641 200.05492845 -115.88834934 199.71655111 -116.51831055 199.36791992 C-117.08071814 182.13968315 -117.50297559 164.91433405 -117.76180267 147.67899895 C-117.88522096 139.67454931 -118.05317695 131.6758217 -118.32885742 123.67504883 C-118.56924457 116.69518511 -118.72315468 109.71946253 -118.77643442 102.73557484 C-118.80756852 99.03995928 -118.87972122 95.35617863 -119.05583191 91.66439438 C-120.08219595 69.29757511 -120.08219595 69.29757511 -114.16280746 62.77066612 C-108.39001831 58.2530557 -102.08073548 55.24011738 -95.30646896 52.51957893 C-91.76938414 51.05857314 -88.65523118 49.25242187 -85.40112305 47.24682617 C-83.48220403 46.14074684 -81.56294182 45.03526265 -79.64331055 43.93041992 C-77.45840517 42.67132191 -75.27350962 41.41220682 -73.08862305 40.15307617 C-72.00355469 39.52804199 -70.91848633 38.90300781 -69.80053711 38.2590332 C-64.37171114 35.13111845 -58.94510386 31.99935946 -53.51831055 28.86791992 C-47.4411489 25.36147509 -41.36390582 21.85517291 -35.28546143 18.35095215 C-33.53489814 17.34172888 -31.78440644 16.33238156 -30.03393555 15.32299805 C-27.8543889 14.06624333 -25.67471222 12.80971406 -23.49487305 11.5534668 C-22.49456055 10.97661133 -21.49424805 10.39975586 -20.46362305 9.80541992 C-19.00037598 8.97010742 -19.00037598 8.97010742 -17.50756836 8.11791992 C-15.40492836 6.88697223 -13.3278804 5.61177302 -11.27124023 4.30541992 C-10.21582031 3.64541992 -9.16040039 2.98541992 -8.07299805 2.30541992 C-7.12666504 1.69569336 -6.18033203 1.0859668 -5.20532227 0.45776367 C-2.51831055 -0.63208008 -2.51831055 -0.63208008 0 0 Z " fill="#FEFEFE" transform="translate(404.518310546875,162.632080078125)"/>
<path d="M0 0 C1.71934044 0.89375257 3.42309042 1.81790133 5.11328125 2.765625 C6.10110596 3.31847168 7.08893066 3.87131836 8.10668945 4.44091797 C9.69356567 5.33641357 9.69356567 5.33641357 11.3125 6.25 C12.42262451 6.87406738 13.53274902 7.49813477 14.67651367 8.14111328 C23.08873547 12.8853086 31.44194898 17.72679176 39.77368164 22.61083984 C47.40469921 27.08118706 55.06846851 31.49221138 62.75 35.875 C63.32700653 36.20437561 63.90401306 36.53375122 64.49850464 36.87310791 C70.60666685 40.3595588 76.71809355 43.84024682 82.83203125 47.31655884 C85.39671011 48.77530793 87.96044461 50.23571173 90.52404785 51.6963501 C92.32855919 52.72356369 94.13446668 53.74829069 95.94042969 54.77294922 C97.04032227 55.39959473 98.14021484 56.02624023 99.2734375 56.671875 C100.23685059 57.2194043 101.20026367 57.76693359 102.19287109 58.33105469 C103.11922363 58.88180664 104.04557617 59.43255859 105 60 C106.02599304 60.43782806 107.05198608 60.87565613 108.10906982 61.32675171 C111.43134986 64.39886999 111.48912678 65.10810831 111.88302612 69.43600464 C111.97375977 71.76997487 112.03080086 74.10539329 112.06201172 76.44091797 C112.1014389 77.71623886 112.14086609 78.99155975 112.18148804 80.30552673 C112.30752023 84.533956 112.36990841 88.76239212 112.4296875 92.9921875 C112.45398791 94.45299056 112.47868988 95.913787 112.50378799 97.37457657 C112.61809511 104.24515211 112.70344889 111.11534337 112.75345981 117.98668659 C112.81196535 125.89280964 112.96939458 133.78878835 113.21246517 141.69133842 C113.39429491 147.81565747 113.48234759 153.93709689 113.50214589 160.06405938 C113.51617878 163.7176154 113.56869629 167.36035054 113.72091293 171.01098251 C114.59430879 193.07457677 114.59430879 193.07457677 108.63636017 199.58138275 C102.85956759 204.08247894 96.55250668 207.10519682 89.7904377 209.83971119 C86.23436542 211.31835767 83.09054653 213.14265315 79.8125 215.15625 C77.87526421 216.27129248 75.93777146 217.38588868 74 218.5 C62.64508119 225.04050858 51.32068627 231.63207167 40.00732422 238.24414062 C36.90367348 240.0562413 33.79783148 241.8645351 30.69140625 243.671875 C29.65234131 244.27692871 28.61327637 244.88198242 27.54272461 245.50537109 C25.49889982 246.69480353 23.45416377 247.88267175 21.40844727 249.06884766 C17.01163185 251.6251442 12.63837101 254.20137348 8.3359375 256.9140625 C7.6457251 257.34549561 6.9555127 257.77692871 6.24438477 258.22143555 C5.00488555 259.00166373 3.77278486 259.79384511 2.55053711 260.60083008 C0.09184466 262.14476332 -1.43944936 263.05821213 -4.37915039 262.75292969 C-7.20335303 261.94157981 -9.34147014 260.8430215 -11.859375 259.33203125 C-12.79716797 258.77580078 -13.73496094 258.21957031 -14.70117188 257.64648438 C-15.70728516 257.04126953 -16.71339844 256.43605469 -17.75 255.8125 C-19.9207282 254.52540766 -22.09264023 253.24031016 -24.265625 251.95703125 C-25.38130859 251.29783691 -26.49699219 250.63864258 -27.64648438 249.95947266 C-32.88858852 246.89649014 -38.19212494 243.94705525 -43.5 241 C-52.64458151 235.91005795 -61.71204876 230.70403998 -70.73876953 225.40820312 C-79.91214718 220.03210715 -89.14210532 214.75800919 -98.38598633 209.50439453 C-117.2143826 198.7856174 -117.2143826 198.7856174 -119 197 C-119.08095433 195.47115722 -119.0935654 193.93862403 -119.07836914 192.40771484 C-119.07249283 191.42934662 -119.06661652 190.45097839 -119.06056213 189.44296265 C-119.05217819 188.37639435 -119.04379425 187.30982605 -119.03515625 186.2109375 C-119.03887088 183.96744334 -119.04480146 181.72395196 -119.05273438 179.48046875 C-119.06327809 175.93140485 -119.0626012 172.3843448 -119.02416992 168.83544922 C-118.99099152 165.41783462 -119.00867301 162.00354567 -119.03515625 158.5859375 C-119.01260269 157.53151459 -118.99004913 156.47709167 -118.96681213 155.39071655 C-119.05173354 149.66789781 -119.05173354 149.66789781 -121.74655151 144.77642822 C-128.27870765 138.93863477 -133.80538106 137.78260291 -142.4140625 137.734375 C-145.11301391 138.01160868 -146.62514916 138.75990652 -149 140 C-152.78593219 140.65393374 -156.43710768 140.84305395 -159.8828125 138.984375 C-162.54972231 136.8456937 -163.91308383 135.26074852 -165 132 C-165.53832527 126.29375217 -164.61757835 123.4444534 -161 119 C-157.89013793 116.92675862 -157.10891613 116.72607814 -153.5625 116.75 C-152.80066406 116.74484375 -152.03882813 116.7396875 -151.25390625 116.734375 C-148.76327604 117.02789814 -147.22269494 117.87782068 -145 119 C-137.37051921 120.27158013 -131.3770242 118.15384145 -125 114 C-124.45214844 113.44957031 -123.90429688 112.89914062 -123.33984375 112.33203125 C-122 111 -122 111 -120 111 C-120.04520782 110.44448959 -120.09041565 109.88897919 -120.13699341 109.31663513 C-123.26469665 68.59599531 -123.26469665 68.59599531 -116.52978516 60.38232422 C-110.8740957 54.98230909 -103.40770887 52.36536384 -96.06542969 50.05932617 C-92.51508388 48.83242664 -89.7115815 47.16346218 -86.68041992 44.97729492 C-83.35490967 43.04325198 -80.76092415 43.4540594 -77 44 C-72.01851377 46.44374796 -69.99194394 48.87785844 -68 54 C-67.53624825 55.66516712 -67.07832506 57.33196415 -66.625 59 C-64.8991932 64.94643277 -62.49913085 68.17136767 -57.4375 71.875 C-51.59184041 73.78812496 -45.46532406 74.21118123 -39.5859375 72.15625 C-35.31976305 69.79147914 -32.53666508 66.87643971 -30.625 62.37890625 C-29.06344608 56.43524163 -28.86509334 50.41167665 -31.5 44.8125 C-33.00172539 43.12305894 -34.50509698 41.435076 -36.01171875 39.75 C-36.72972656 38.945625 -37.44773437 38.14125 -38.1875 37.3125 C-38.88230469 36.56613281 -39.57710938 35.81976563 -40.29296875 35.05078125 C-43.42556442 31.2873654 -43.32645734 27.73363139 -43 23 C-40.94554192 18.57501337 -38.54360246 16.76793289 -34.3359375 14.40625 C-32.65177734 13.44912109 -32.65177734 13.44912109 -30.93359375 12.47265625 C-29.74754782 11.81483006 -28.56134897 11.15727952 -27.375 10.5 C-26.21159932 9.84358139 -25.04883238 9.18603825 -23.88671875 8.52734375 C-21.6346041 7.2561958 -19.37658479 5.99544282 -17.11230469 4.74609375 C-15.16326944 3.6526281 -13.23276449 2.52465672 -11.33300781 1.34765625 C-10.55538086 0.87199219 -9.77775391 0.39632813 -8.9765625 -0.09375 C-8.31994629 -0.51333984 -7.66333008 -0.93292969 -6.98681641 -1.36523438 C-4.07515763 -2.2954768 -2.68452052 -1.34901554 0 0 Z " fill="#FEFEFE" transform="translate(523,371)"/>
<path d="M0 0 C3.37617753 2.17575885 5.78034129 4.11926774 7 8 C7.46047028 12.1442325 7.31061891 14.40265594 5.375 18.125 C3 21 3 21 -0.0625 23.5 C-4.07348747 26.91360635 -5.7794152 29.48603359 -6.24609375 34.8046875 C-6.31213881 37.92046054 -6.30133046 40.89668763 -6 44 C-5.9071875 45.13695312 -5.814375 46.27390625 -5.71875 47.4453125 C-2.93099041 53.2109062 2.26728898 55.09289954 7.8125 57.9375 C11.09510807 59.676278 14.36915948 61.42287773 17.61987305 63.22070312 C20.99709276 65.0692872 20.99709276 65.0692872 24.68676758 66.49804688 C28.60383761 68.31264088 31.12541973 69.76130063 34 73 C35.9007901 78.71996467 35.49147805 84.84824537 35.20043945 90.79101562 C35.06245045 93.62601805 35.01606482 96.45105157 34.98632812 99.2890625 C34.94539641 101.10168974 34.89934646 102.91421015 34.84765625 104.7265625 C34.82751968 105.5673233 34.80738312 106.40808411 34.78663635 107.27432251 C34.50842201 112.58094248 33.52325491 115.7985296 30 120 C26.51079626 122.32613583 25.05047454 122.24247293 20.9375 122.1875 C19.34228516 122.17783203 19.34228516 122.17783203 17.71484375 122.16796875 C15 122 15 122 13 121 C6.55967643 120.49865745 0.39156599 120.02051082 -5 124 C-9.56599646 128.56599646 -12.11488908 132.06233404 -12.3125 138.6875 C-12.25128964 143.92863722 -11.0425848 147.73247847 -8 152 C-4.1722678 155.72958522 -0.4161656 157.99058637 5.0078125 158.01171875 C6.55082031 157.85123047 6.55082031 157.85123047 8.125 157.6875 C9.15882813 157.58824219 10.19265625 157.48898437 11.2578125 157.38671875 C14.08401393 157.07235731 14.08401393 157.07235731 17 156 C22.35219303 155.65469722 25.66997016 155.51192041 30 159 C33.15476052 161.99425644 34.26350101 164.16611078 34.45410156 168.4230957 C34.45347214 170.17411862 34.43110072 171.92522609 34.390625 173.67578125 C34.38496521 174.6009404 34.37930542 175.52609955 34.37347412 176.47929382 C34.3511448 179.42422986 34.30095486 182.36793386 34.25 185.3125 C34.22993054 187.31313343 34.21168055 189.31378599 34.1953125 191.31445312 C34.15129125 196.21010764 34.08228747 201.10484518 34 206 C33.42894531 206.32049316 32.85789062 206.64098633 32.26953125 206.97119141 C20.23307472 213.73332626 8.25006938 220.57642234 -3.66210938 227.55517578 C-12.00051015 232.43354241 -20.38364289 237.23081083 -28.77755737 242.01263428 C-36.10388986 246.18747228 -43.41377078 250.3883075 -50.69042969 254.64941406 C-52.70303969 255.8256314 -54.71923619 256.99573698 -56.73925781 258.15917969 C-61.12185672 260.68788735 -65.43131583 263.24927824 -69.625 266.08203125 C-70.33043945 266.53715088 -71.03587891 266.99227051 -71.76269531 267.46118164 C-73.02799057 268.28175826 -74.27089893 269.13876237 -75.47949219 270.04077148 C-77.171875 271.109375 -77.171875 271.109375 -81 272 C-85.32113594 270.54866447 -89.09400976 268.32455551 -93 266 C-94.38251953 265.21858643 -94.38251953 265.21858643 -95.79296875 264.42138672 C-98.58943569 262.83253077 -101.35840215 261.2027614 -104.125 259.5625 C-106.23402286 258.32231764 -108.34341061 257.08275562 -110.453125 255.84375 C-111.53142578 255.20953125 -112.60972656 254.5753125 -113.72070312 253.921875 C-119.08994733 250.77515892 -124.48208191 247.66841381 -129.875 244.5625 C-131.49365967 243.62966187 -131.49365967 243.62966187 -133.14501953 242.67797852 C-135.33582951 241.41550269 -137.5267476 240.15321444 -139.71777344 238.89111328 C-146.21194646 235.14937985 -152.70338011 231.40289415 -159.19458008 227.65600586 C-164.29971501 224.70964478 -169.4060522 221.76542592 -174.51651001 218.82830811 C-176.94660552 217.43150193 -179.37603935 216.03354722 -181.80541992 214.63549805 C-183.53304415 213.64194008 -185.2616312 212.65005691 -186.99023438 211.65820312 C-188.02599609 211.06201172 -189.06175781 210.46582031 -190.12890625 209.8515625 C-191.04744385 209.32385254 -191.96598145 208.79614258 -192.91235352 208.25244141 C-195 207 -195 207 -196 206 C-196.09627113 204.26640402 -196.12187568 202.52885354 -196.12025452 200.79258728 C-196.12162918 199.66371597 -196.12300385 198.53484467 -196.12442017 197.37176514 C-196.12082489 196.12236145 -196.11722961 194.87295776 -196.11352539 193.58569336 C-196.11367142 192.27856888 -196.11381744 190.9714444 -196.1139679 189.62471008 C-196.11425586 186.02982901 -196.10835928 182.43498103 -196.10139394 178.84010768 C-196.09516026 175.08713748 -196.09455659 171.3341666 -196.09336853 167.58119202 C-196.09025526 160.46969174 -196.08204192 153.35820675 -196.07201904 146.24671322 C-196.06085778 138.15252934 -196.05534742 130.05834474 -196.05032361 121.96415508 C-196.03985931 105.30942775 -196.02225994 88.65471582 -196 72 C-195.2294053 71.57291465 -195.2294053 71.57291465 -194.44324303 71.13720131 C-192.08735162 69.83110051 -189.73190542 68.52419879 -187.37646484 67.21728516 C-186.16439613 66.54555016 -186.16439613 66.54555016 -184.92784119 65.86024475 C-178.77778254 62.44680105 -172.68434042 58.94710025 -166.625 55.375 C-157.78378737 50.18984149 -148.90577052 45.07309683 -140 40 C-131.11985831 34.93992921 -122.26263413 29.84315747 -113.4375 24.6875 C-112.46385498 24.12087646 -111.49020996 23.55425293 -110.48706055 22.97045898 C-105.78879431 20.23275194 -101.10998766 17.46900481 -96.4609375 14.6484375 C-95.59025635 14.12677002 -94.7195752 13.60510254 -93.82250977 13.06762695 C-92.19853851 12.09381285 -90.58128616 11.10866681 -88.97241211 10.11010742 C-88.25577393 9.68318604 -87.53913574 9.25626465 -86.80078125 8.81640625 C-86.18372314 8.43943604 -85.56666504 8.06246582 -84.9309082 7.67407227 C-82.22792617 6.73047214 -80.72508729 7.15887669 -78 8 C-76.04600028 8.97518757 -74.12989509 10.02809615 -72.24609375 11.1328125 C-71.14330078 11.77476562 -70.04050781 12.41671875 -68.90429688 13.078125 C-67.74859049 13.76023468 -66.59299185 14.44252696 -65.4375 15.125 C-64.32052734 15.77726562 -63.20355469 16.42953125 -62.05273438 17.1015625 C-57.5594093 19.72722724 -53.06907909 22.35536287 -48.61230469 25.04272461 C-47.54786133 25.67960205 -46.48341797 26.31647949 -45.38671875 26.97265625 C-43.96105591 27.83515991 -43.96105591 27.83515991 -42.5065918 28.71508789 C-39.92808387 30.23630446 -39.92808387 30.23630446 -36.375 30.3125 C-29.39475224 27.59795921 -23.25635603 24.32059736 -19 18 C-17.85926402 14.83976964 -17.85926402 14.83976964 -17.0625 11.5 C-15.54986066 6.23553867 -14.46255289 3.20388413 -10 0 C-6.18323682 -1.27225439 -3.91280349 -0.87700768 0 0 Z " fill="#FEFEFE" transform="translate(363,360)"/>
</svg>
