<svg width="317" height="292" viewBox="0 0 317 292" fill="none" xmlns="http://www.w3.org/2000/svg">
<g clip-path="url(#clip0_732_132)">
<path d="M247.59 0.0195312L316.318 145.398L247.59 290.782H189.08L257.808 145.398L189.081 0.0195312H247.59ZM136.182 123.529L160.994 76.4043L158.161 65.4335L127.234 0.0195312H68.7245L128.907 127.317L136.182 123.529ZM158.161 215.611L136.718 167.322L128.907 163.485L68.7245 290.782H127.234L158.162 225.363L158.161 215.611Z" fill="#40B4E5"/>
<path d="M189.084 290.782L120.356 145.398L189.084 0.0195312H247.594L178.865 145.398L247.594 290.782H189.084ZM68.7282 290.782L0 145.398L68.7282 0.0195312H127.239L58.5096 145.398L127.239 290.782H68.7282Z" fill="#003764"/>
</g>
<defs>
<clipPath id="clip0_732_132">
<rect width="316.703" height="292" fill="white"/>
</clipPath>
</defs>
</svg>
