<svg xmlns="http://www.w3.org/2000/svg" width="440" height="541" fill="none">
  <path fill="#03B4C8" d="M377.275 190.398c-10.196 10.471-20.828 20.518-31.198 30.823a167058.394 167058.394 0 0 0-113.249 112.651c-44.408 44.141-88.707 88.392-133.342 132.303-15.638 15.384-30.898 31.119-46.162 46.858-6.943 7.16-7.515 14.568-2.082 20.663 5.653 6.343 13.084 7.097 20.847 1.464a109.427 109.427 0 0 0 12.83-11.295c97.009-96.9 193.979-193.839 290.91-290.816a16.006 16.006 0 0 1 9.303-5.007c17.81-2.867 35.548-6.171 54.868-9.594-15.715-13.26-30.664-25.051-49.183-31.422a11.696 11.696 0 0 0-13.542 3.372Z"/>
  <path fill="#03B4C8" d="M405.978 282.575a12.943 12.943 0 0 0 2.523-7.393c-.068-10.285-11.374-16.507-21.266-11.861a41.433 41.433 0 0 0-11.259 8.843l-236.334 235.83a71.361 71.361 0 0 0-6.816 7.668c-5.355 7.17-5.001 13.076.86 18.942 5.769 5.774 11.745 6.071 19.009.668a71.423 71.423 0 0 0 7.673-6.817 659364.717 659364.717 0 0 0 239.753-239.194 78.967 78.967 0 0 0 5.857-6.686ZM235.537 255.769a47.798 47.798 0 0 0 11.197 8.926c6.196 3.271 11.382 1.683 16.049-3.104a12.458 12.458 0 0 0 2.251-15.643 34.129 34.129 0 0 0-6.735-8.575A3168253.923 3168253.923 0 0 1 28.409 8.026 25.63 25.63 0 0 0 17.113.606C7.706-1.938.003 3.85.006 12.03c-.161 7.282 3.087 11.392 6.788 15.2a1957.989 1957.989 0 0 0 20.683 20.964 910939.388 910939.388 0 0 0 208.06 207.574ZM329.006 442.044c21.226-21.07 42.453-42.138 63.68-63.206a145.72 145.72 0 0 0 12.482-13.606c5.126-6.611 4.555-13.042-.875-18.418-5.579-5.524-11.748-5.995-18.523-1.129a64.273 64.273 0 0 0-7.772 6.696 60751.204 60751.204 0 0 0-88.78 88.547c-11.551 11.547-11.535 20.877-.115 32.343 17.243 17.314 34.625 34.493 51.691 51.978 10.22 10.469 21.393 17.953 36.037 15.098a64.155 64.155 0 0 0 19.998-1.121 12.558 12.558 0 0 0 10.889-13.598c-.101-7.211-3.37-11.409-10.754-12.811a50.927 50.927 0 0 0-11.581-.622 30.416 30.416 0 0 1-23.466-9.35 3948.447 3948.447 0 0 1-37.339-37.237c-6.21-6.31-6.259-11.08-.719-18.074a63.447 63.447 0 0 1 5.147-5.49ZM207.932 306.372c9.325 3.434 18.013-2.222 18.299-12.078a17.36 17.36 0 0 0-5.966-12.657c-5.765-5.867-11.626-11.64-17.455-17.444C150.356 211.95 97.9 159.707 45.444 107.466c-3.457-3.443-7.166-6.399-10.331-6.442-10.155.139-16.85 8.694-15.117 16.624 1.23 5.634 4.836 9.76 8.725 13.644a346069.85 346069.85 0 0 0 166.434 166.067 36.119 36.119 0 0 0 12.777 9.013ZM149.861 334.31a139.462 139.462 0 0 0 12.167 11.026 13.95 13.95 0 0 0 15.495 1.274 13.732 13.732 0 0 0 7.84-12.436c-.19-7.828-5.11-12.739-9.965-17.578a96830.668 96830.668 0 0 0-104.44-103.942 31.628 31.628 0 0 0-11.282-7.569 13.464 13.464 0 0 0-16.137 3.865c-4.502 5.208-4.321 10.787-.657 16.362a86.637 86.637 0 0 0 11.37 13.661c31.864 31.784 63.734 63.563 95.609 95.337Z"/>
</svg>
