<svg xmlns="http://www.w3.org/2000/svg" width="379" height="420" fill="none">
  <path fill="#BFBFBF" d="M75.839 0s-23.4 78.7-21.7 102.1c1.2 16.4 31.7 37.9 31.7 37.9s-16.6 19.7-23 30.8c-6.6 11.4-16.7 37.6-16.7 37.6s-50-58.7-45.9-87.5C5.139 86.1 75.839 0 75.839 0Zm227.1 0s23.4 78.7 21.7 102.1c-1.2 16.4-31.7 37.9-31.7 37.9s16.6 19.7 23 30.8c6.6 11.4 16.7 37.6 16.7 37.6s50-58.7 45.9-87.5c-4.9-34.8-75.6-120.9-75.6-120.9Z"/>
  <path fill="#C6C6C6" d="M190.139 92.2c-66.3 0-124.8 46.9-144.1 115.7l144.1 47.8V92.2Z"/>
  <path fill="#DDD" d="M190.039 91.9c66.3 0 124.8 47 144.1 115.7l-144.1 47.8V91.9Z"/>
  <path fill="#C6C6C6" d="M189.739 207.8h-144v100.7s58.2 22.8 82.2 41.2c19.9 15.3 58.3 69.4 58.3 69.4h3.6V207.8h-.1Z"/>
  <path fill="#DDD" d="M189.839 206.4h144v100.7s-58.2 22.8-82.2 41.2c-20.5 15.7-58.5 70.7-58.5 70.7h-3.5l.2-212.6Z"/>
  <path fill="#1E1E1E" d="M189.939 221.1c9.996 0 18.1-8.103 18.1-18.1 0-9.996-8.104-18.1-18.1-18.1-9.996 0-18.1 8.104-18.1 18.1 0 9.997 8.104 18.1 18.1 18.1Z"/>
</svg>
