<svg xmlns="http://www.w3.org/2000/svg" width="360" height="360">
  <defs>
    <filter id="a" width="360" height="360" x="0" y="0" filterUnits="userSpaceOnUse">
      <feOffset dy="1"/>
      <feGaussianBlur result="blur" stdDeviation="3"/>
      <feFlood flood-opacity=".349"/>
      <feComposite in2="blur" operator="in"/>
      <feComposite in="SourceGraphic"/>
    </filter>
  </defs>
  <g filter="url(#a)" transform="translate(-.002 -.003)">
    <circle cx="171" cy="171" r="171" fill="#fff" data-name="Ellipse 2" transform="translate(9 8)"/>
  </g>
  <g data-name="Group 50">
    <path fill="#21a1da" d="M179.306 21C94.242 21.255 25.326 91.708 25 178.708h31.851c.326-68.779 55-124.451 122.454-124.621Z" data-name="Path 135"/>
    <path fill="#8ac13f" d="M186.418 21.143v33.133c64.438 3.591 115.645 57.874 115.96 124.432h32.161c-.321-84.882-65.927-154.011-148.121-157.565Z" data-name="Path 136"/>
    <path fill="#bcbdc0" d="M179.306 304.566c-65.424-.165-118.82-52.535-122.278-118.436H25.14c3.477 84.13 71.128 151.274 154.166 151.523Z" data-name="Path 137"/>
    <path fill="#f3931e" d="M302.202 186.13c-3.343 63.707-53.354 114.768-115.784 118.247v33.133c80.189-3.467 144.591-69.348 147.981-151.38Z" data-name="Path 138"/>
    <path fill="#1d315f" d="M212.394 160.772s-7.421-2.783-18.554-7.422c-14.843-6.185-12.06-12.679-12.06-12.679s3.092-10.823 21.337-7.112c19.036 3.872 33.088 23.811 33.088 23.811l18.245-52.261c-28.141-11.442-70.365-11.985-88.442-10.2-40.819 4.02-57.827 28.078-57.827 52.416 0 18.634 6.8 32.315 22.72 41.011 18.942 11.825 36.179 12.8 40.982 21.61 6.36 11.661-8.658 13.916-8.658 13.916-24.739 1.855-43.912-25.667-43.912-25.667l-17.935 54.73c69.578 23.5 117.51 7.422 117.51 7.422 21.956-7.422 38.964-22.574 38.964-48.241 0-25.277-14.534-40.201-45.458-51.334Z" data-name="Path 139"/>
  </g>
</svg>
