<svg xmlns="http://www.w3.org/2000/svg" width="1014" height="1167" fill="none">
  <path fill="#fff" d="M756.609 693.621 497.891 843.103 239.172 693.621V394.658l258.719-149.482 258.718 149.482v298.963Z"/>
  <path stroke="#303841" stroke-width="9.966" d="M273.181 3.186 920.94 949.911M43.715 182.22l727.482 886.93M961.059 207.705 502.646 1044.21M721.877 197.757l-468.38 846.473M552.623 197.442 104.175 1164.1"/>
  <path fill="#fff" d="M48.504 984.141c7.526 0 13.936 1.531 19.23 4.594 5.347 3.01 9.447 7.214 12.302 12.615 2.854 5.34 4.49 11.52 4.904 18.53 0 1.76-.389 3.01-1.167 3.73-.727.73-1.973 1.09-3.737 1.09H23.668c.363 7.74 2.647 13.6 6.851 17.6 4.257 3.94 10.251 5.92 17.985 5.92 4.775 0 9.498-.6 14.17-1.79 4.671-1.25 8.771-2.89 12.3-4.91.883-.47 1.688-.7 2.414-.7 1.817 0 3.296 1.38 4.438 4.13.467 1.09.7 2.07.7 2.95 0 2.08-1.14 3.69-3.425 4.83-3.996 2.03-8.72 3.66-14.17 4.91-5.45 1.24-10.925 1.87-16.427 1.87-7.837 0-14.533-1.51-20.087-4.52-5.553-3.01-9.784-7.34-12.69-13-2.907-5.66-4.36-12.38-4.36-20.17 0-7.42 1.583-13.98 4.75-19.69 3.165-5.714 7.551-10.126 13.157-13.24 5.605-3.166 12.015-4.749 19.23-4.749Zm0 11.289c-6.384 0-11.678 1.635-15.883 4.91-4.152 3.21-6.877 7.7-8.174 13.46h47.57c-1.09-5.96-3.608-10.51-7.553-13.62-3.892-3.167-9.212-4.75-15.96-4.75Zm122.838-11.289c4.723 0 8.823 1.038 12.301 3.114 3.477 2.025 6.15 4.957 8.019 8.798 1.868 3.841 2.803 8.327 2.803 13.467v37.68h6.384c1.765 0 3.01.42 3.737 1.25.778.78 1.168 2.13 1.168 4.05s-.39 3.29-1.168 4.12c-.727.78-1.972 1.17-3.737 1.17h-25.225c-1.765 0-3.037-.39-3.815-1.17-.727-.83-1.09-2.2-1.09-4.12s.363-3.27 1.09-4.05c.778-.83 2.05-1.25 3.815-1.25h7.162v-36.51c0-4.62-1.064-8.28-3.192-10.978-2.128-2.699-5.268-4.048-9.42-4.048-4.412 0-8.538 1.271-12.379 3.815-3.789 2.541-6.826 6.051-9.109 10.511-2.284 4.46-3.426 9.45-3.426 14.95v22.26h7.163c1.764 0 3.01.42 3.737 1.25.778.78 1.167 2.13 1.167 4.05s-.389 3.29-1.167 4.12c-.727.78-1.973 1.17-3.737 1.17h-25.226c-1.764 0-3.036-.39-3.815-1.17-.726-.83-1.09-2.2-1.09-4.12s.364-3.27 1.09-4.05c.779-.83 2.051-1.25 3.815-1.25h6.385v-50.758h-7.942c-1.764 0-3.036-.389-3.815-1.168-.726-.83-1.09-2.205-1.09-4.126 0-1.92.364-3.27 1.09-4.048.779-.831 2.051-1.246 3.815-1.246h13.936c1.765 0 3.011.415 3.737 1.246.779.778 1.168 2.128 1.168 4.048v9.342c3.426-5.293 7.423-9.342 11.99-12.145 4.62-2.803 9.576-4.204 14.871-4.204Zm101.66 0c5.087 0 9.784 1.142 14.092 3.426 4.308 2.283 8.097 5.553 11.367 9.81v-6.229c0-1.92.363-3.27 1.09-4.048.779-.831 2.05-1.246 3.815-1.246h12.379c1.765 0 3.01.415 3.737 1.246.779.778 1.168 2.128 1.168 4.048 0 1.921-.389 3.296-1.168 4.126-.727.779-1.972 1.168-3.737 1.168h-6.384v63.688c0 6.17-1.324 11.47-3.971 15.88-2.595 4.46-6.384 7.86-11.367 10.2-4.983 2.34-10.977 3.5-17.984 3.5-4.983 0-10.018-.44-15.104-1.32-5.087-.83-9.836-2.05-14.248-3.66-2.024-.73-3.036-2.1-3.036-4.13 0-.83.207-1.86.623-3.11.934-2.85 2.413-4.28 4.437-4.28.571 0 1.142.1 1.713.31 4.049 1.45 8.305 2.59 12.768 3.42 4.464.84 8.746 1.25 12.847 1.25 7.162 0 12.56-1.71 16.194-5.14 3.633-3.37 5.449-8.02 5.449-13.93v-15.65c-6.436 8.09-14.662 12.14-24.68 12.14-6.436 0-12.197-1.42-17.284-4.28-5.086-2.91-9.083-7.06-11.989-12.46-2.907-5.39-4.36-11.73-4.36-18.99 0-7.27 1.453-13.6 4.36-19 2.906-5.398 6.903-9.524 11.989-12.379 5.087-2.907 10.848-4.36 17.284-4.36Zm.779 11.523c-4.62 0-8.59 1.038-11.912 3.114-3.322 2.022-5.865 4.882-7.63 8.562-1.713 3.64-2.569 7.81-2.569 12.54 0 4.72.856 8.92 2.569 12.61 1.765 3.63 4.308 6.49 7.63 8.56 3.322 2.03 7.292 3.04 11.912 3.04 4.619 0 8.72-.96 12.301-2.88 3.633-1.92 6.462-4.7 8.486-8.33 2.076-3.69 3.114-8.02 3.114-13 0-4.99-1.038-9.29-3.114-12.93-2.024-3.68-4.853-6.49-8.486-8.406-3.581-1.92-7.682-2.88-12.301-2.88Zm121.047-9.81c1.764 0 3.01.415 3.737 1.246.778.778 1.167 2.128 1.167 4.048v56.052h24.992c1.765 0 3.011.42 3.737 1.25.779.78 1.168 2.13 1.168 4.05s-.389 3.29-1.168 4.12c-.726.78-1.972 1.17-3.737 1.17h-61.039c-1.764 0-3.036-.39-3.815-1.17-.726-.83-1.09-2.2-1.09-4.12s.364-3.27 1.09-4.05c.779-.83 2.051-1.25 3.815-1.25h24.369v-50.758h-19.697c-1.765 0-3.037-.389-3.815-1.168-.727-.83-1.09-2.205-1.09-4.126 0-1.92.363-3.27 1.09-4.048.778-.831 2.05-1.246 3.815-1.246h26.471Zm-2.492-34.179c2.855 0 4.801.39 5.839 1.168 1.038.727 1.557 2.024 1.557 3.893v10.121c0 1.869-.519 3.192-1.557 3.971-1.038.726-2.984 1.09-5.839 1.09-2.855 0-4.801-.364-5.839-1.09-1.038-.779-1.557-2.102-1.557-3.971v-10.121c0-1.869.519-3.166 1.557-3.893 1.038-.778 2.984-1.168 5.839-1.168Zm123.227 32.466c4.723 0 8.824 1.038 12.301 3.114 3.478 2.025 6.151 4.957 8.019 8.798 1.869 3.841 2.803 8.327 2.803 13.467v37.68h6.384c1.765 0 3.011.42 3.737 1.25.779.78 1.168 2.13 1.168 4.05s-.389 3.29-1.168 4.12c-.726.78-1.972 1.17-3.737 1.17h-25.225c-1.765 0-3.036-.39-3.815-1.17-.727-.83-1.09-2.2-1.09-4.12s.363-3.27 1.09-4.05c.779-.83 2.05-1.25 3.815-1.25h7.163v-36.51c0-4.62-1.064-8.28-3.192-10.978-2.128-2.699-5.269-4.048-9.421-4.048-4.412 0-8.538 1.271-12.379 3.815-3.789 2.541-6.825 6.051-9.109 10.511-2.284 4.46-3.426 9.45-3.426 14.95v22.26h7.163c1.765 0 3.01.42 3.737 1.25.779.78 1.168 2.13 1.168 4.05s-.389 3.29-1.168 4.12c-.727.78-1.972 1.17-3.737 1.17h-25.225c-1.765 0-3.037-.39-3.815-1.17-.727-.83-1.09-2.2-1.09-4.12s.363-3.27 1.09-4.05c.778-.83 2.05-1.25 3.815-1.25h6.384v-50.758h-7.941c-1.765 0-3.037-.389-3.815-1.168-.727-.83-1.09-2.205-1.09-4.126 0-1.92.363-3.27 1.09-4.048.778-.831 2.05-1.246 3.815-1.246h13.936c1.765 0 3.01.415 3.737 1.246.778.778 1.168 2.128 1.168 4.048v9.342c3.425-5.293 7.422-9.342 11.99-12.145 4.619-2.803 9.576-4.204 14.87-4.204Zm106.643 0c7.526 0 13.937 1.531 19.231 4.594 5.346 3.01 9.446 7.214 12.301 12.615 2.855 5.34 4.49 11.52 4.905 18.53 0 1.76-.389 3.01-1.168 3.73-.727.73-1.972 1.09-3.737 1.09H597.37c.364 7.74 2.648 13.6 6.852 17.6 4.256 3.94 10.251 5.92 17.984 5.92 4.776 0 9.499-.6 14.17-1.79 4.671-1.25 8.772-2.89 12.301-4.91.883-.47 1.687-.7 2.414-.7 1.816 0 3.296 1.38 4.438 4.13.467 1.09.7 2.07.7 2.95 0 2.08-1.142 3.69-3.425 4.83-3.997 2.03-8.72 3.66-14.17 4.91-5.45 1.24-10.926 1.87-16.428 1.87-7.837 0-14.533-1.51-20.086-4.52-5.554-3.01-9.784-7.34-12.691-13-2.906-5.66-4.36-12.38-4.36-20.17 0-7.42 1.583-13.98 4.75-19.69 3.166-5.714 7.551-10.126 13.157-13.24 5.606-3.166 12.016-4.749 19.23-4.749Zm0 11.289c-6.384 0-11.678 1.635-15.882 4.91-4.152 3.21-6.877 7.7-8.175 13.46h47.57c-1.09-5.96-3.607-10.51-7.552-13.62-3.893-3.167-9.213-4.75-15.961-4.75Zm114.741-11.289c7.526 0 13.936 1.531 19.23 4.594 5.346 3.01 9.447 7.214 12.301 12.615 2.855 5.34 4.49 11.52 4.905 18.53 0 1.76-.389 3.01-1.168 3.73-.726.73-1.972 1.09-3.737 1.09h-56.367c.363 7.74 2.647 13.6 6.851 17.6 4.256 3.94 10.251 5.92 17.985 5.92 4.775 0 9.498-.6 14.17-1.79 4.671-1.25 8.771-2.89 12.301-4.91.882-.47 1.687-.7 2.413-.7 1.817 0 3.296 1.38 4.438 4.13.467 1.09.701 2.07.701 2.95 0 2.08-1.142 3.69-3.426 4.83-3.996 2.03-8.72 3.66-14.17 4.91-5.449 1.24-10.925 1.87-16.427 1.87-7.838 0-14.533-1.51-20.087-4.52s-9.784-7.34-12.69-13c-2.907-5.66-4.36-12.38-4.36-20.17 0-7.42 1.583-13.98 4.749-19.69 3.166-5.714 7.552-10.126 13.158-13.24 5.605-3.166 12.015-4.749 19.23-4.749Zm0 11.289c-6.384 0-11.678 1.635-15.883 4.91-4.152 3.21-6.877 7.7-8.174 13.46h47.569c-1.09-5.96-3.607-10.51-7.552-13.62-3.892-3.167-9.213-4.75-15.96-4.75Zm137.864-11.289c4.048 0 7.837 1.038 11.366 3.114 2.077 1.246 3.115 2.855 3.115 4.827 0 .935-.234 2.025-.701 3.27-1.09 2.959-2.595 4.438-4.516 4.438a4.09 4.09 0 0 1-2.18-.623 16.678 16.678 0 0 0-8.174-2.102c-4.672 0-9.369 1.635-14.092 4.905-4.724 3.22-8.616 7.53-11.679 12.92-3.01 5.4-4.515 11.14-4.515 17.21v15.1h26.237c1.765 0 3.01.42 3.737 1.25.779.78 1.168 2.13 1.168 4.05s-.389 3.29-1.168 4.12c-.727.78-1.972 1.17-3.737 1.17h-50.139c-1.765 0-3.036-.39-3.815-1.17-.727-.83-1.09-2.2-1.09-4.12s.363-3.27 1.09-4.05c.779-.83 2.05-1.25 3.815-1.25h12.223v-50.758h-9.887c-1.765 0-3.037-.389-3.815-1.168-.727-.83-1.09-2.205-1.09-4.126 0-1.92.363-3.27 1.09-4.048.778-.831 2.05-1.246 3.815-1.246h15.882c1.765 0 3.011.415 3.737 1.246.779.778 1.168 2.128 1.168 4.048v15.722c2.492-4.56 5.502-8.559 9.031-11.985 3.53-3.425 7.293-6.073 11.289-7.941 3.997-1.869 7.942-2.803 11.835-2.803Zm118.088-28.495c1.764 0 3.01.415 3.737 1.246.778.778 1.168 2.128 1.168 4.048v86.26h6.386c1.76 0 3.01.42 3.73 1.25.78.78 1.17 2.13 1.17 4.05s-.39 3.29-1.17 4.12c-.72.78-1.97 1.17-3.73 1.17h-12.381c-1.765 0-3.037-.39-3.815-1.17-.727-.83-1.09-2.2-1.09-4.12v-6.23c-3.27 4.26-7.059 7.53-11.367 9.81-4.308 2.28-9.005 3.43-14.092 3.43-6.436 0-12.197-1.51-17.284-4.52-5.086-3.06-9.083-7.42-11.99-13.08-2.906-5.71-4.36-12.41-4.36-20.09s1.454-14.35 4.36-20.01c2.907-5.705 6.904-10.065 11.99-13.075 5.087-3.063 10.848-4.594 17.284-4.594 9.758 0 17.985 4.282 24.68 12.846v-30.753h-12.612c-1.765 0-3.037-.389-3.815-1.168-.727-.83-1.09-2.205-1.09-4.126 0-1.92.363-3.27 1.09-4.048.778-.831 2.05-1.246 3.815-1.246h19.386Zm-30.675 40.018c-4.62 0-8.59 1.116-11.912 3.348-3.322 2.178-5.865 5.238-7.63 9.188-1.713 3.94-2.569 8.48-2.569 13.62 0 5.14.856 9.68 2.569 13.63 1.765 3.94 4.308 7.03 7.63 9.26 3.322 2.18 7.292 3.27 11.912 3.27 4.619 0 8.719-1.04 12.301-3.11 3.633-2.08 6.462-5.09 8.486-9.03 2.076-3.95 3.114-8.62 3.114-14.02 0-5.39-1.038-10.07-3.114-14.01-2.024-3.95-4.853-6.96-8.486-9.032-3.582-2.076-7.682-3.114-12.301-3.114Z"/>
</svg>
