<svg fill="none" xmlns="http://www.w3.org/2000/svg" viewBox="0 0 808 190">
  <path d="M210.481 94.433c2.284 10.807 2.284 11.942 2.284 13.367 0 18.488-20.772 28.729-48.075 28.729-61.719 0-115.772-36.118-115.772-60.017a24.41 24.41 0 0 1 1.993-9.673C28.728 67.974 0 71.959 0 97.269 0 138.798 98.418 190 176.356 190c59.726 0 74.81-27.012 74.81-48.351 0-16.786-14.546-35.841-40.729-47.216m-42.896 15.069c16.495 0 40.38-3.403 40.38-23.04a18.817 18.817 0 0 0-.408-4.51l-9.818-42.707c-2.284-9.382-4.277-13.644-20.772-21.892C164.123 10.808 136.194 0 128.005 0c-7.68 0-9.964 9.95-19.07 9.95-8.815-.044-15.346-7.317-23.594-7.317-7.97 0-13.091 5.396-17.077 16.495 0 0-11.084 31.288-12.51 35.841a7.97 7.97 0 0 0-.29 2.56c0 12.16 47.885 52.046 112.077 52.046" fill="#E00"/>
  <path d="M210.481 94.433c2.284 10.808 2.284 11.942 2.284 13.368 0 18.488-20.772 28.728-48.075 28.728-61.719 0-115.772-36.118-115.772-60.017a24.409 24.409 0 0 1 1.993-9.673l4.844-11.942a7.973 7.973 0 0 0-.291 2.56c0 12.16 47.885 52.046 112.077 52.046 16.495 0 40.38-3.404 40.38-23.041a18.816 18.816 0 0 0-.408-4.51l2.91 12.481h.058ZM297.568 144.137h23.899v-35.318h18.182l18.314 35.391h26.648l-21.412-38.926a29.395 29.395 0 0 0 18.314-27.346c0-17.455-13.732-30.94-34.271-30.94h-49.674v97.139Zm47.449-76.745c7.913 0 12.35 5.004 12.35 10.968s-4.437 10.967-12.35 10.967h-23.55V67.392h23.55Zm38.721 40.103c0 21.368 17.456 38.024 39.958 38.024a44.048 44.048 0 0 0 30.663-11.099l-14.837-13.179c-3.476 3.608-8.611 5.542-14.706 5.542a18.997 18.997 0 0 1-18.051-11.636h52.365v-5.572c0-23.273-15.68-40.103-37.048-40.103a37.707 37.707 0 0 0-35.467 23.357 37.708 37.708 0 0 0-2.833 14.666m37.82-19.695a16.221 16.221 0 0 1 15.404 11.637h-30.649c2.211-7.36 7.768-11.637 15.259-11.637m101.822 56.337h22.212V42.14l-22.459 4.858v27.638a37.339 37.339 0 0 0-18.735-4.858c-21.368 0-38.154 16.524-38.154 37.616a37.282 37.282 0 0 0 37.47 37.819 33.087 33.087 0 0 0 19.695-6.386v5.412l-.029-.102Zm-35.07-36.773c0-10.545 8.32-18.604 19.288-18.604a22.749 22.749 0 0 1 15.535 5.688v25.673a21.59 21.59 0 0 1-15.535 5.819c-10.822 0-19.288-8.044-19.288-18.59m90.942 36.772h23.87v-38.008h39.972v38.023h23.855V46.999h-23.855v37.325H603.18V46.999h-23.87v97.138-.015Zm121.982 1.251a34.373 34.373 0 0 0 20.263-5.702v4.451h22.197V97.095c0-17.906-12.073-27.754-32.19-27.754-11.244 0-22.343 2.633-34.285 8.044l8.058 16.51c8.597-3.608 15.812-5.819 22.198-5.819 9.295 0 14.022 3.608 14.022 10.954v3.607a65.57 65.57 0 0 0-16.655-2.08c-18.91 0-30.256 7.913-30.256 22.066 0 12.903 10.27 22.765 26.648 22.765m-6.865-23.187c0-4.843 4.858-7.273 12.218-7.273 4.488.024 8.956.586 13.31 1.673v9.441a28.375 28.375 0 0 1-14.008 3.461c-7.273 0-11.52-2.778-11.52-7.36m69.821-.407c0 15.681 9.425 23.274 26.633 23.274a68.646 68.646 0 0 0 15.681-2.226v-18.183a32.709 32.709 0 0 1-10.182 1.455c-7.084 0-9.717-2.225-9.717-8.873V89.458h20.641V70.723h-20.539V46.999l-22.474 4.858v18.91H749.44v18.691h14.851v32.336l-.043-.058Z" fill="#000"/>
</svg>
