<svg width="404" height="65" viewBox="0 0 404 65" fill="none" xmlns="http://www.w3.org/2000/svg">
<path d="M95.8 28.0001C99.1 28.0001 101.7 26.7001 103.8 24.1001L108 28.5001C104.6 32.3001 100.7 34.2001 96.1 34.2001C91.5 34.2001 87.8 32.8001 84.8 29.9001C81.8 27.0001 80.4 23.4001 80.4 19.0001C80.4 14.6001 81.9 10.9001 84.9 8.0001C87.9 5.1001 91.6 3.6001 96 3.6001C100.9 3.6001 105 5.5001 108.2 9.2001L104.1 13.9001C102 11.3001 99.4 10.0001 96.3 10.0001C93.8 10.0001 91.7 10.8001 89.9 12.4001C88.1 14.0001 87.2 16.2001 87.2 19.0001C87.2 21.8001 88 24.0001 89.7 25.7001C91.4 27.1001 93.4 28.0001 95.8 28.0001Z" fill="black"/>
<path d="M113.3 33.8001V4.1001H119.9V27.9001H132.6V33.8001H113.3Z" fill="black"/>
<path d="M161.6 29.7C158.6 32.6 154.9 34.1 150.5 34.1C146.1 34.1 142.4 32.6 139.4 29.7C136.4 26.8 134.9 23.1 134.9 18.8C134.9 14.5 136.4 10.8 139.4 7.9C142.4 5 146.1 3.5 150.5 3.5C154.9 3.5 158.6 5 161.6 7.9C164.6 10.8 166.1 14.5 166.1 18.8C166.1 23.1 164.6 26.8 161.6 29.7ZM159.3 18.8C159.3 16.2 158.4 13.9 156.8 12C155.1 10.1 153 9.2 150.5 9.2C148 9.2 145.9 10.1 144.2 12C142.5 13.9 141.6 16.1 141.6 18.8C141.6 21.5 142.5 23.7 144.2 25.6C145.9 27.5 148 28.4 150.5 28.4C153 28.4 155.1 27.5 156.8 25.6C158.5 23.7 159.3 21.5 159.3 18.8Z" fill="black"/>
<path d="M179.6 26.2001C180.7 27.6001 182.2 28.3001 184.1 28.3001C186 28.3001 187.5 27.6001 188.5 26.2001C189.6 24.8001 190.1 22.9001 190.1 20.6001V4.1001H196.7V20.7001C196.7 25.0001 195.5 28.3001 193.1 30.6001C190.7 32.9001 187.7 34.1001 184 34.1001C180.3 34.1001 177.2 32.9001 174.8 30.6001C172.4 28.3001 171.2 25.0001 171.2 20.7001V4.1001H177.8V20.5001C177.9 22.9001 178.5 24.8001 179.6 26.2001Z" fill="black"/>
<path d="M226.3 8.0001C229.1 10.6001 230.6 14.2001 230.6 18.8001C230.6 23.4001 229.2 27.1001 226.5 29.8001C223.7 32.5001 219.5 33.8001 213.9 33.8001H203.6V4.1001H214.1C219.4 4.1001 223.5 5.4001 226.3 8.0001ZM221.5 25.7001C223.1 24.2001 223.9 21.9001 223.9 19.0001C223.9 16.1001 223.1 13.8001 221.5 12.3001C219.9 10.7001 217.4 9.9001 214 9.9001H210.3V28.0001H214.5C217.5 28.0001 219.8 27.2001 221.5 25.7001Z" fill="black"/>
<path d="M268.3 4.1001H275V33.8001H268.3L254.2 15.2001V33.8001H247.5V4.1001H253.8L268.3 23.3001V4.1001Z" fill="black"/>
<path d="M303.4 33.8001L300.6 27.4001H288.1L285.3 33.8001H278.2L291 4.1001H297.4L310.2 33.8001H303.4ZM294.5 13.0001L290.8 21.6001H298.2L294.5 13.0001Z" fill="black"/>
<path d="M324.4 9.9001V33.8001H317.7V9.9001H309.3V4.1001H332.8V9.9001H324.4Z" fill="black"/>
<path d="M344.2 4.1001H337.6V33.8001H344.2V4.1001Z" fill="black"/>
<path d="M362.5 23.0001L370.1 4.1001H377.3L365.3 33.8001H359.7L347.8 4.1001H355L362.5 23.0001Z" fill="black"/>
<path d="M402.2 4.1001V10.0001H387.4V16.2001H400.7V21.8001H387.4V28.0001H402.7V33.8001H380.8V4.1001H402.2Z" fill="black"/>
<path d="M88.2 59.0999C90 59.0999 91.5 58.3999 92.7 56.8999L95.1 59.3999C93.2 61.4999 91 62.5999 88.4 62.5999C85.8 62.5999 83.7 61.7999 82.1 60.1999C80.4 58.5999 79.6 56.4999 79.6 54.0999C79.6 51.5999 80.4 49.5999 82.1 47.8999C83.8 46.1999 85.9 45.3999 88.3 45.3999C91 45.3999 93.3 46.3999 95.2 48.4999L92.9 51.0999C91.7 49.5999 90.3 48.8999 88.5 48.8999C87.1 48.8999 85.9 49.3999 84.9 50.2999C83.9 51.1999 83.4 52.3999 83.4 53.9999C83.4 55.5999 83.9 56.7999 84.8 57.6999C85.7 58.6999 86.9 59.0999 88.2 59.0999Z" fill="black"/>
<path d="M111.6 60.0999C109.9 61.6999 107.8 62.5999 105.4 62.5999C103 62.5999 100.9 61.7999 99.2 60.0999C97.5 58.4999 96.7 56.3999 96.7 53.9999C96.7 51.5999 97.5 49.4999 99.2 47.8999C100.9 46.2999 103 45.3999 105.4 45.3999C107.8 45.3999 109.9 46.1999 111.6 47.8999C113.3 49.4999 114.1 51.5999 114.1 53.9999C114.1 56.3999 113.3 58.4999 111.6 60.0999ZM110.4 53.9999C110.4 52.4999 109.9 51.1999 109 50.1999C108 49.1999 106.9 48.5999 105.5 48.5999C104.1 48.5999 102.9 49.0999 102 50.1999C101 51.1999 100.6 52.4999 100.6 53.9999C100.6 55.4999 101.1 56.6999 102 57.7999C103 58.7999 104.1 59.3999 105.5 59.3999C106.9 59.3999 108.1 58.8999 109 57.7999C109.9 56.7999 110.4 55.4999 110.4 53.9999Z" fill="black"/>
<path d="M132.2 51.9001L127.7 61.1H125.5L121 51.9001V62.4001H117.3V45.8H122.3L126.6 54.9001L130.9 45.8H135.9V62.4001H132.2V51.9001Z" fill="black"/>
<path d="M151.5 47.3C152.7 48.3 153.3 49.8001 153.3 51.9001C153.3 54.0001 152.7 55.5001 151.5 56.4001C150.3 57.4001 148.5 57.8 146 57.8H143.8V62.4001H140.1V45.8H146C148.5 45.8 150.3 46.3 151.5 47.3ZM148.8 53.8C149.2 53.3 149.5 52.6 149.5 51.6C149.5 50.6 149.2 50 148.6 49.6C148 49.2 147.1 49 145.9 49H143.8V54.6H146.3C147.5 54.6 148.3 54.3 148.8 53.8Z" fill="black"/>
<path d="M160.6 58.1001C161.2 58.9001 162.1 59.3001 163.1 59.3001C164.1 59.3001 165 58.9001 165.6 58.1001C166.2 57.3001 166.5 56.3001 166.5 54.9001V45.7001H170.2V55.0001C170.2 57.4001 169.5 59.3001 168.2 60.6001C166.9 61.9001 165.2 62.5001 163.1 62.5001C161 62.5001 159.3 61.8001 158 60.5001C156.7 59.2001 156 57.3001 156 54.9001V45.6001H159.7V55.0001C159.7 56.3001 160 57.4001 160.6 58.1001Z" fill="black"/>
<path d="M181.1 49V62.4001H177.4V49H172.7V45.8H185.8V49H181.1Z" fill="black"/>
<path d="M192.3 45.8H188.6V62.5H192.3V45.8Z" fill="black"/>
<path d="M208 45.8H211.7V62.4001H208L200.1 52V62.4001H196.4V45.8H199.8L208 56.5V45.8Z" fill="black"/>
<path d="M226.7 54H230.4V59.9C228.7 61.7 226.5 62.7 223.5 62.7C221.1 62.7 219 61.9 217.3 60.3C215.6 58.7 214.8 56.6 214.8 54.2C214.8 51.7 215.6 49.7 217.3 48C219 46.3 221 45.5 223.4 45.5C225.8 45.5 227.9 46.3 229.6 47.9L227.7 50.7C227 50 226.3 49.6 225.6 49.4C225 49.2 224.3 49 223.6 49C222.2 49 221 49.5 220 50.4C219 51.4 218.5 52.6 218.5 54.2C218.5 55.8 219 57 219.9 58C220.8 58.9 221.9 59.4 223.2 59.4C224.5 59.4 225.6 59.2 226.4 58.7L226.7 54Z" fill="black"/>
<path d="M251.4 45.8V49H243.7V52.6H251.1V55.9001H243.7V62.4001H240V45.8H251.4Z" fill="black"/>
<path d="M268.6 60.0999C266.9 61.6999 264.8 62.5999 262.4 62.5999C259.9 62.5999 257.9 61.7999 256.2 60.0999C254.5 58.4999 253.7 56.3999 253.7 53.9999C253.7 51.5999 254.5 49.4999 256.2 47.8999C257.9 46.2999 260 45.3999 262.4 45.3999C264.9 45.3999 266.9 46.1999 268.6 47.8999C270.3 49.4999 271.1 51.5999 271.1 53.9999C271.1 56.3999 270.3 58.4999 268.6 60.0999ZM267.3 53.9999C267.3 52.4999 266.8 51.1999 265.9 50.1999C264.9 49.1999 263.8 48.5999 262.4 48.5999C261 48.5999 259.8 49.0999 258.9 50.1999C257.9 51.1999 257.5 52.4999 257.5 53.9999C257.5 55.4999 258 56.6999 258.9 57.7999C259.9 58.7999 261 59.3999 262.4 59.3999C263.8 59.3999 265 58.8999 265.9 57.7999C266.9 56.7999 267.3 55.4999 267.3 53.9999Z" fill="black"/>
<path d="M278.7 58.1001C279.3 58.9001 280.2 59.3001 281.2 59.3001C282.2 59.3001 283.1 58.9001 283.7 58.1001C284.3 57.3001 284.6 56.3001 284.6 54.9001V45.7001H288.3V55.0001C288.3 57.4001 287.6 59.3001 286.3 60.6001C285 61.9001 283.3 62.5001 281.2 62.5001C279.1 62.5001 277.4 61.8001 276.1 60.5001C274.8 59.2001 274.1 57.3001 274.1 54.9001V45.6001H277.8V55.0001C277.7 56.3001 278.1 57.4001 278.7 58.1001Z" fill="black"/>
<path d="M303.8 45.8H307.5V62.4001H303.8L295.9 52V62.4001H292.2V45.8H295.6L303.8 56.5V45.8Z" fill="black"/>
<path d="M324.3 48C325.9 49.5 326.7 51.5 326.7 54.1C326.7 56.7 325.9 58.7 324.4 60.2C322.9 61.7 320.5 62.5 317.3 62.5H311.6V45.8H317.5C320.5 45.8 322.8 46.5 324.3 48ZM321.6 57.9001C322.5 57.0001 323 55.8001 323 54.2001C323 52.6001 322.5 51.3001 321.6 50.4001C320.7 49.5001 319.3 49.1 317.4 49.1H315.3V59.2001H317.7C319.4 59.1 320.7 58.7001 321.6 57.9001Z" fill="black"/>
<path d="M341.3 62.4L339.8 58.7999H332.8L331.3 62.4H327.3L334.5 45.7H338.1L345.3 62.4H341.3ZM336.3 50.7L334.2 55.5H338.4L336.3 50.7Z" fill="black"/>
<path d="M353.1 49V62.4001H349.3V49H344.6V45.8H357.8V49H353.1Z" fill="black"/>
<path d="M364.2 45.8H360.5V62.5H364.2V45.8Z" fill="black"/>
<path d="M382.3 60.0999C380.6 61.6999 378.5 62.5999 376.1 62.5999C373.6 62.5999 371.6 61.7999 369.9 60.0999C368.2 58.4999 367.4 56.3999 367.4 53.9999C367.4 51.5999 368.2 49.4999 369.9 47.8999C371.6 46.2999 373.7 45.3999 376.1 45.3999C378.6 45.3999 380.6 46.1999 382.3 47.8999C384 49.4999 384.8 51.5999 384.8 53.9999C384.8 56.3999 384 58.4999 382.3 60.0999ZM381.1 53.9999C381.1 52.4999 380.6 51.1999 379.7 50.1999C378.7 49.1999 377.6 48.5999 376.2 48.5999C374.8 48.5999 373.6 49.0999 372.7 50.1999C371.7 51.1999 371.3 52.4999 371.3 53.9999C371.3 55.4999 371.8 56.6999 372.7 57.7999C373.7 58.7999 374.8 59.3999 376.2 59.3999C377.6 59.3999 378.8 58.8999 379.7 57.7999C380.6 56.7999 381.1 55.4999 381.1 53.9999Z" fill="black"/>
<path d="M399.6 45.8H403.4V62.4001H399.6L391.7 52V62.4001H388V45.8H391.5L399.6 56.5V45.8Z" fill="black"/>
<path d="M9.1 42.7H0V64.0999H21.3V54.9H9.1V42.7Z" fill="#446CA9"/>
<path d="M54.9 42.7999V54.9H42.7V54.7999V64.0999H64V42.7H54.8L54.9 42.7999Z" fill="#446CA9"/>
<path d="M0 21.4H9.2L9.1 21.3V9.2H21.3V0H0V21.4Z" fill="#446CA9"/>
<path d="M42.7 0V9.2H54.9V21.4H64V0H42.7Z" fill="#446CA9"/>
<path d="M41.5 21.4L29.3 9.2H42.7V0H21.3V9.2L33.5 21.4H41.5Z" fill="#76C4D5"/>
<path d="M30.5 42.7H22.5L32.6 52.7999L34.6 54.9H30.5H21.3V64.0999H42.7V54.7999L36.6 48.7999L30.5 42.7Z" fill="#76C4D5"/>
<path d="M54.9 21.3999V30.4999V34.6999L52.8 32.5999L42.7 22.4999V30.5999L48.7 36.5999L54.8 42.6999H64V21.3999H54.9Z" fill="#76C4D5"/>
<path d="M21.3 33.4999L9.2 21.3999H0V42.6999H9.1V29.3999L21.3 41.5999V33.4999Z" fill="#76C4D5"/>
</svg>
