<svg fill="none" xmlns="http://www.w3.org/2000/svg" viewBox="0 0 115 43">
  <path d="M8.608 12.905c-.222 0-.278-.112-.166-.278l1.166-1.5a.796.796 0 0 1 .61-.278h19.827c.222 0 .278.167.166.334l-.944 1.443a.847.847 0 0 1-.555.334l-20.104-.055ZM.222 18.012c-.222 0-.278-.11-.166-.277l1.166-1.5a.796.796 0 0 1 .61-.278h25.325a.255.255 0 0 1 .278.333l-.444 1.335a.486.486 0 0 1-.501.333l-26.268.054Zm13.44 5.11c-.222 0-.278-.167-.167-.334l.778-1.388a.735.735 0 0 1 .555-.333h11.107c.222 0 .334.166.334.388l-.112 1.333a.417.417 0 0 1-.388.39l-12.107-.056Zm57.646-11.219c-3.5.889-5.887 1.556-9.33 2.444-.833.222-.889.278-1.61-.555-.832-.944-1.443-1.555-2.61-2.11-3.498-1.722-6.886-1.222-10.051.833-3.777 2.444-5.721 6.053-5.665 10.552.056 4.443 3.111 8.108 7.497 8.72 3.777.5 6.942-.834 9.44-3.666.5-.611.944-1.277 1.5-2.055h-10.72c-1.166 0-1.443-.722-1.054-1.666.722-1.722 2.055-4.61 2.832-6.053a1.499 1.499 0 0 1 1.388-.889H73.14c-.111 1.5-.111 3-.333 4.499a23.685 23.685 0 0 1-4.554 10.885c-3.999 5.274-9.22 8.55-15.828 9.44-5.442.721-10.496-.334-14.939-3.666a17.444 17.444 0 0 1-7.052-12.329c-.722-6.053 1.055-11.495 4.72-16.272 3.943-5.165 9.163-8.44 15.549-9.607 5.22-.944 10.218-.333 14.717 2.72a17.408 17.408 0 0 1 6.442 7.832c.334.5.112.777-.554.943Z" fill="#fff"/>
  <path d="M89.69 42.615c-5.054-.111-9.663-1.555-13.552-4.887a17.418 17.418 0 0 1-5.998-10.719c-1-6.275.722-11.829 4.499-16.771C78.693 4.907 83.58 2.13 90.189.963c5.664-1 10.996-.444 15.827 2.833 4.387 2.998 7.108 7.053 7.831 12.384.944 7.497-1.222 13.606-6.387 18.826a25.447 25.447 0 0 1-13.328 7.109c-1.499.278-2.998.333-4.442.5Zm13.217-22.436a15.844 15.844 0 0 0-.167-1.833c-1.001-5.498-6.053-8.608-11.329-7.386-5.164 1.166-8.496 4.443-9.718 9.663a9.146 9.146 0 0 0 5.109 10.496c3.054 1.334 6.109 1.167 9.052-.333 4.387-2.277 6.776-5.831 7.053-10.607Z" fill="#fff"/>
</svg>
