<svg width="903" height="342" viewBox="0 0 903 342" fill="none" xmlns="http://www.w3.org/2000/svg">
<g filter="url(#filter0_d_126_153)">
<path d="M750.937 170.096C750.467 169.985 750.04 169.739 749.709 169.389C748.757 166.913 747.302 164.662 745.436 162.778C743.57 160.894 741.334 159.417 738.868 158.442L738.745 158.345C738.645 153.34 734.731 150.329 732.5 146.442C720.872 126.174 710.988 105.594 716.109 80.9988C717.687 73.4168 722.584 67.3425 724.091 59.8852L724.275 59.7327C726.039 59.3335 727.646 58.4238 728.896 57.117C730.146 55.8101 730.984 54.1641 731.305 52.3842C732.03 51.7626 732.754 51.1408 733.479 50.5186C737.26 50.7799 739.718 48.1161 742.331 46.17C751.023 39.9886 760.105 34.3741 769.519 29.3617C792.248 16.6043 815.283 12.9681 840.433 23.1845C850.018 27.0784 858.685 32.8489 868.622 35.7909C869.32 36.4333 870.018 37.0756 870.716 37.7178C870.675 38.3199 870.741 38.9247 870.911 39.5037C881.748 60.1315 885.66 80.7344 870.883 101.358C870.581 101.779 870.748 102.536 870.696 103.136C870.027 103.803 869.359 104.47 868.691 105.137C862.107 107.615 855.711 109.347 848.821 105.41C840.08 101.073 830.842 97.8198 821.312 95.7211C815.809 94.1643 809.515 91.8995 804.315 97.2562L803.939 97.6251C798.156 103.349 803.817 106.981 806.863 110.229C821.101 125.407 841.064 131.517 858.317 141.948C860.144 143.76 861.971 145.573 863.798 147.385C869.356 159.096 876.056 170.21 881.082 182.224C889.463 202.258 892.86 221.812 883.66 242.964C879.37 252.827 874.583 262.635 871.199 272.939L871.215 272.913C870.104 273.312 869.058 273.874 868.112 274.58C849.654 293.38 826.434 299.735 800.992 300.53C774.89 301.93 748.721 299.566 723.292 293.511L723.161 293.373C724.056 286.813 719.671 281.983 717.65 276.368C713.823 265.734 705.507 256.115 709.767 243.568C714.656 229.802 720.612 216.44 727.583 203.602C730.622 197.808 733.06 196.391 739.457 200.043C756.051 209.517 771.587 221.155 790.877 225.456C803.184 228.199 812.596 225.394 818.74 215.535C823.829 207.369 821.502 200.493 812.211 197.901C806.383 196.184 800.726 193.934 795.311 191.18C780.597 183.992 765.738 177.104 750.937 170.096ZM791.918 268.657C797.165 268.657 803.317 269.017 809.415 268.592C831.472 267.056 849.447 258.32 860.898 238.534C867.312 226.656 870.212 213.198 869.261 199.733C868.542 172.603 857.636 152.261 832.719 140.045C820.929 134.264 809.381 127.981 797.835 121.718C787.639 116.557 779.578 107.98 775.058 97.4839C768.359 81.5217 777.1 65.0151 794.025 63.1704C809.591 61.4739 825.445 61.1092 840.108 67.665C846.638 70.5846 848.477 68.2748 851.013 63.0506C860.133 44.2679 860.22 44.1789 840.741 37.0309C839.594 36.6101 838.537 35.9322 837.38 35.5568C822.571 30.7546 807.776 24.7013 791.992 31.1665C775.828 37.6239 760.437 45.8673 746.105 55.7433C739.357 60.4161 733.851 66.6646 730.064 73.9469C726.277 81.2291 724.324 89.3253 724.375 97.5331C724.425 105.741 726.477 113.812 730.352 121.048C734.228 128.283 739.81 134.464 746.614 139.054C758.746 147.487 772.744 152.123 785.841 158.586C800.312 165.729 815.868 171.012 826.126 184.691C836.994 199.184 836.645 218.926 824.554 227.614C819.65 231.306 813.973 233.838 807.95 235.021C801.926 236.204 795.714 236.006 789.778 234.443C772.963 229.869 757.035 222.506 742.658 212.66C737.559 209.403 734.84 209.291 732.561 215.733C729.537 225.004 725.702 233.99 721.102 242.589C716.071 251.437 720.409 254.785 727.542 257.439C747.898 265.926 769.892 269.758 791.918 268.657ZM785.243 292.995C795.552 292.153 803.784 291.647 811.968 290.718C814.646 290.414 817.993 289.25 818.575 286.432C819.33 282.77 815.184 282.836 813.054 281.499C809.671 280.013 805.942 279.494 802.282 280.001C787.347 279.626 772.499 280.465 757.568 276.889C747.483 274.474 737.787 270.826 727.653 268.77C725.886 268.412 723.545 266.06 722.356 269.542C721.134 273.123 730.394 286.849 734.598 287.342C752.155 289.402 769.734 291.279 785.243 292.995ZM834.065 79.4577C831.859 79.972 829.223 80.5666 826.597 81.2054C824.378 81.7451 821.185 81.3533 821.681 85.0372C822.084 88.0216 824.645 88.6328 827.183 88.6887C830.481 88.9929 833.728 89.7107 836.847 90.8252C841.175 92.0175 847.245 98.2637 849.915 91.5721C852.484 85.1333 844.402 83.6617 839.802 81.2945C837.94 80.5327 836.022 79.9185 834.065 79.4577Z" fill="#4035A7"/>
<path d="M522.929 292.303C521.656 293.64 520.384 294.976 519.112 296.313C509.162 300.862 499.276 305.562 489.236 309.903C486.351 311.372 483.151 312.115 479.914 312.068C476.678 312.022 473.501 311.187 470.66 309.636C458.66 302.885 447.458 294.806 437.264 285.552C434.999 283.478 433.282 280.876 432.268 277.978C431.253 275.08 430.971 271.975 431.448 268.942C432.66 257.137 435.157 245.499 438.894 234.235C446.727 211.431 452.828 188.139 458.53 164.745C465.447 136.359 472.376 107.969 478.663 79.44C481.746 65.447 488.265 52.6315 491.315 38.6965L491.47 38.529C506.383 30.7539 522.613 28.2279 538.987 25.3368C559.132 21.78 578.978 13.8858 598.236 27.7846C598.404 27.9063 598.818 27.6893 599.117 27.6306L599.208 27.7254C599.121 28.9181 599.228 30.1168 599.522 31.2756C618.519 73.865 637.564 116.432 656.659 158.978C667.425 182.86 680.779 205.468 691.516 229.397C695.269 237.762 692 242.015 685.145 244.028C664.488 250.095 646.271 261.329 626.883 270.067C617.022 274.511 607.419 284.285 594.797 276.521C591.147 272.844 587.496 269.167 583.846 265.49C584.131 262.669 582.187 261.001 580.523 259.241C573.873 251.943 569.96 242.566 569.449 232.707C567.634 218.807 564.737 205.071 560.784 191.622C559.799 187.58 558.827 182.483 552.811 183.703C547.734 184.793 542.766 186.339 537.967 188.322C534.751 189.612 532.009 192.157 533.155 196.181C536.957 209.527 536.763 223.398 538.439 236.998C540.857 256.612 546.246 277.712 523.516 290.627C523.128 290.847 523.116 291.73 522.929 292.303ZM443.852 275.158C450.127 281.218 456.968 278.007 463.158 275.604C475.17 271.145 486.7 265.48 497.569 258.696C512.46 249.091 514.374 254.042 510.396 232.652C510.069 229.919 509.986 227.161 510.15 224.413C510.105 207.295 510.073 190.177 510.055 173.059L511.873 171.242C524.122 168.118 534.256 160.244 546.1 156.119C559.614 151.412 560.863 151.87 565.948 165.467C573.364 185.294 575.364 206.379 580.174 226.807C582.005 234.585 585.259 234.493 591.119 232.414C597.411 230.182 603.891 228.483 610.224 226.358C622.909 222.954 635.24 218.345 647.049 212.595C652.356 209.605 654.578 207.197 651.247 200.441C641.657 180.991 633.14 161.012 624.223 141.23C608.783 106.978 593.275 72.7557 578.004 38.4283C574.998 31.672 571.816 28.2196 563.464 31.0013C549.882 35.5246 535.398 36.5799 521.517 39.8541C511.2 42.2877 498.278 41.568 493.6 55.327C488.405 72.2054 484.362 89.4171 481.5 106.843C476.084 134.681 468.245 161.898 461.691 189.438C455.435 215.726 448.102 241.758 441.318 267.922C440.645 270.521 439.788 273.491 443.545 274.804L443.852 275.158ZM670.453 231.808C670.093 230.147 669.397 228.576 668.408 227.194C667.419 225.811 666.158 224.645 664.702 223.767C663.246 222.89 661.626 222.319 659.942 222.091C658.257 221.862 656.543 221.981 654.906 222.439C647.086 225.646 639.333 229.022 631.605 232.447C619.635 237.75 606.163 237.743 594.204 243.134C591.304 244.441 588.352 245.62 588.129 249.123C587.743 255.181 604.439 266.735 609.916 264.15C628.487 255.384 647.004 246.505 665.467 237.511C667.832 236.366 670.82 235.471 670.453 231.808ZM479.588 300.098C483.55 299.964 509.582 287.15 516.241 282.45C523.39 277.404 522.811 272.581 515.011 268.364C512.906 267.431 510.589 267.079 508.301 267.344C506.014 267.609 503.839 268.482 502.003 269.872C491.473 275.868 480.258 280.573 468.602 283.885C465.503 284.644 463.022 286.839 464.942 289.737C468.422 294.836 473.621 298.514 479.588 300.098Z" fill="#4035A7"/>
<path d="M45.2954 281.677C44.6425 281.021 43.9896 280.365 43.3367 279.71C38.9325 267.737 30.4406 257.942 26.0199 245.838C17.2317 221.776 9.38135 197.984 9.35288 171.64C9.32852 149.067 13.9347 127.45 17.8817 105.678C19.6271 96.0508 20.9461 85.5096 26.5036 77.0807C43.0122 52.0427 61.7276 29.7194 93.0479 21.95C117.752 15.8217 139.31 18.2162 157.489 37.9604C168.945 50.6417 178.292 65.0802 185.171 80.7248C197.007 107.149 204.884 135.172 208.549 163.893C211.663 186.992 205.615 209.21 197.571 230.93C192.021 247.045 182.786 261.643 170.601 273.562C158.416 285.481 143.619 294.392 127.385 299.586C103.395 307.6 79.1434 300.959 57.2345 287.981C53.3612 285.687 50.3198 281.798 45.2954 281.677ZM37.2794 162.287C36.743 190.792 51.5388 227.217 85.1517 254.824C100.082 267.087 117.693 275.65 137.532 271.773C172.852 264.87 190.454 229.691 195.66 204.393C199.637 182.09 198.5 159.175 192.334 137.375C185.004 107.917 175.101 79.6799 157.278 54.6524C129.59 15.7717 77.1712 19.9028 55.8505 62.7305C42.5209 89.506 37.7679 118.068 37.2794 162.287ZM33.6633 88.0453C29.8285 90.753 27.2034 94.852 26.3481 99.4679C25.1191 106.299 22.5548 112.889 21.2954 119.718C18.2229 136.376 13.0902 152.815 17.0055 170.198C19.4052 180.852 20.3383 191.796 22.8456 202.49C27.1286 223.633 35.1212 243.852 46.4533 262.209C54.0544 273.804 60.5662 275.262 73.5698 270.6C81.9213 267.605 79.473 264.649 74.6927 261.24C65.8008 254.252 58.2377 245.722 52.364 236.058C40.137 217.817 32.0569 197.118 28.6926 175.418C25.4551 155.225 25.4202 134.647 28.5892 114.442C29.8116 106.208 34.0834 98.5254 33.6633 88.0453Z" fill="#4035A7"/>
<path d="M421.436 103.831C423.113 128.811 415.378 153.514 399.753 173.076C393.425 180.149 386.039 186.2 377.858 191.012C371.799 195.072 371.473 198.112 375.212 204.263C386.245 221.483 395.982 239.5 404.341 258.166C411.98 276.352 412.274 293.931 390.153 305.421C380.938 310.208 372.086 315.654 362.536 319.857C355.347 323.021 350.266 322.436 345.316 315.441C335.189 301.13 327.981 285.25 319.286 270.18C317.949 267.863 317.587 263.016 313.729 264.275C310.443 265.347 311.39 269.721 311.825 272.542C313.575 285.894 313.308 299.432 311.033 312.704C309.203 325.261 302.973 329.605 290.832 326.287C281.604 323.984 272.07 323.161 262.585 323.848C257.992 324.158 253.4 323.236 249.284 321.177C245.167 319.118 241.675 315.997 239.169 312.136C233.85 305.521 229.995 297.854 227.858 289.639C225.721 281.425 225.351 272.851 226.772 264.483C230.614 238.616 232.855 212.36 236.235 186.352C241.419 146.45 246.353 106.503 252.966 66.7778C254.609 56.9067 256.658 47.0219 257.738 36.9857C259.659 19.119 268.937 11.531 287.576 10.5628C296.139 10.6234 304.65 11.9141 312.846 14.3954C333.283 19.2173 354.666 19.7931 374.379 27.7148C407.315 40.9497 420.94 61.0473 421.425 96.4915C421.459 98.9402 421.43 101.39 421.436 103.831ZM308.223 286.102H308.313C308.313 280.898 307.927 275.656 308.422 270.499C308.92 265.31 305.45 256.904 311.178 255.7C317.535 254.364 319.734 263.044 322.381 268.232C329.879 283.866 338.493 298.938 348.157 313.334C351.721 318.375 355.064 320.362 361.062 316.776C367.286 313.057 374.266 310.625 380.648 307.14C407.538 292.453 410.929 283.388 399.204 254.859C391.311 237.05 381.865 219.97 370.976 203.818C367.008 197.576 367.898 194.1 373.237 190.326C376.473 188.037 379.661 185.679 382.799 183.252C391.236 177.209 398.477 169.651 404.152 160.962C416.086 140.498 421.097 116.728 418.438 93.1871C415.689 57.4635 399.416 36.3211 363.981 28.0734C342.064 22.9722 319.71 19.7555 297.775 14.724C287.676 12.4076 278.974 15.6638 270.397 18.9502C260.248 22.8388 261.789 33.8508 260.379 41.8911C255.39 70.3408 251.664 99.0131 247.549 127.614C244.299 150.208 240.798 172.776 238.098 195.438C234.749 223.549 232.184 251.752 229.122 279.899C228.175 288.601 241.826 314.422 249.844 318.062C251.537 318.773 253.376 319.063 255.206 318.907C267.713 318.547 280.214 319.826 292.39 322.712C303.055 324.676 307.551 321.064 308.141 309.976C308.563 302.039 308.223 294.062 308.223 286.102Z" fill="#837CC6"/>
<path d="M45.2942 281.677C50.3187 281.798 53.36 285.687 57.2334 287.981C79.1423 300.959 103.394 307.6 127.383 299.586C143.617 294.392 158.415 285.481 170.6 273.562C182.784 261.643 192.019 247.045 197.57 230.93C205.614 209.21 211.662 186.992 208.548 163.893C204.883 135.172 197.006 107.149 185.17 80.7248C178.291 65.0803 168.944 50.6418 157.487 37.9605C139.309 18.2163 117.751 15.8218 93.0469 21.9501C61.7265 29.7195 43.0111 52.0428 26.5027 77.0808C20.945 85.5097 19.626 96.0509 17.8805 105.678C13.9337 127.45 9.32728 149.067 9.35165 171.64C9.38012 197.984 17.2304 221.776 26.0186 245.838C30.4394 257.941 38.9313 267.737 43.3354 279.71C33.8673 273.434 30.6705 262.928 25.8876 253.563C8.06077 218.658 3.50762 181.197 7.54609 142.935C9.60188 122.887 13.7716 103.112 19.9856 83.9398C26.328 64.6229 41.6109 51.8127 55.5003 37.9331C71.2906 22.154 91.5726 17.6976 112.058 14.7888C128.317 12.4801 142.568 19.949 154.654 30.6202C174.486 48.1312 185.918 71.1114 194.728 95.3827C205.063 123.859 214.438 152.93 211.51 183.709C206.955 231.594 188.851 270.605 144.011 296.136C114.348 313.025 69.8763 302.546 49.1478 286.5C47.5634 285.273 45.3848 284.224 45.2942 281.677Z" fill="#837CC6"/>
<path d="M491.315 38.6965C488.265 52.6315 481.746 65.447 478.663 79.44C472.376 107.969 465.448 136.359 458.53 164.744C452.828 188.139 446.727 211.431 438.894 234.235C435.157 245.499 432.661 257.137 431.448 268.942C430.971 271.975 431.253 275.08 432.268 277.978C433.283 280.876 434.999 283.478 437.264 285.552C447.458 294.806 458.66 302.885 470.66 309.636C473.501 311.187 476.678 312.021 479.915 312.068C483.152 312.115 486.351 311.372 489.236 309.903C499.277 305.561 509.162 300.862 519.113 296.313C508.619 307.249 494.745 311.974 480.776 315.604C473.296 317.548 467.173 311.206 461.095 307.263C451.663 301.565 442.811 294.956 434.669 287.531C431.886 284.882 429.825 281.568 428.678 277.901C427.531 274.235 427.337 270.337 428.114 266.574C431.47 247.671 436.397 229.081 442.843 210.997C448.442 193.575 452.057 175.691 456.229 157.922C460.468 139.867 465.733 122.048 469.789 103.956C472.778 88.0993 476.866 72.4693 482.023 57.1792C484.438 50.7502 485.63 43.5453 491.315 38.6965Z" fill="#837CC6"/>
<path d="M594.797 276.521C607.419 284.285 617.022 274.511 626.884 270.067C646.271 261.329 664.488 250.095 685.145 244.028C692 242.015 695.27 237.762 691.516 229.397C680.779 205.468 667.425 182.86 656.66 158.978C637.495 116.464 618.449 73.8965 599.523 31.2757C599.228 30.1168 599.122 28.9181 599.208 27.7255C605.312 30.2425 605.194 36.6624 607.371 41.419C634.819 101.397 659.972 162.437 690.802 220.846C692.085 223.276 693.214 225.792 694.315 228.312C698.4 237.669 696.557 244.015 686.687 246.957C660.961 254.624 638.332 268.773 614.283 279.935C607.228 283.21 599.774 286.254 594.797 276.521Z" fill="#837CC6"/>
<path d="M750.937 170.096C765.738 177.104 780.597 183.992 795.31 191.18C800.725 193.934 806.383 196.184 812.211 197.901C821.502 200.493 823.828 207.369 818.739 215.535C812.595 225.394 803.184 228.199 790.877 225.456C771.586 221.155 756.05 209.517 739.457 200.043C733.059 196.391 730.622 197.809 727.582 203.602C720.612 216.44 714.655 229.802 709.767 243.568C705.507 256.115 713.823 265.734 717.65 276.368C719.67 281.983 724.056 286.813 723.161 293.373C715.568 282.044 709.887 269.545 706.342 256.375C703.055 244.123 710.244 233.288 714.638 222.374C717.589 215.043 721.724 208.196 725.144 201.043C728.537 193.947 733.115 193.135 740.005 196.663C753.032 203.335 764.295 213.21 778.458 217.76C784.534 219.712 790.623 221.643 796.773 223.345C799.636 223.916 802.598 223.735 805.37 222.821C808.142 221.907 810.631 220.291 812.593 218.129C814.394 216.93 815.817 215.244 816.697 213.268C817.577 211.292 817.878 209.107 817.565 206.966C816.623 202.446 812.428 201.599 808.637 200.196C789.708 192.518 771.278 183.661 753.457 173.677C752.307 173.079 751.763 171.317 750.937 170.096Z" fill="#837CC6"/>
<path d="M522.929 292.303C523.116 291.73 523.128 290.847 523.516 290.627C546.246 277.712 540.857 256.612 538.439 236.998C536.763 223.398 536.956 209.527 533.155 196.181C532.008 192.157 534.751 189.612 537.967 188.322C542.766 186.339 547.734 184.793 552.811 183.703C558.827 182.483 559.799 187.58 560.784 191.622C564.736 205.071 567.633 218.807 569.449 232.707C569.96 242.566 573.873 251.943 580.523 259.241C582.187 261.001 584.131 262.669 583.846 265.49C572.163 257.425 567.807 245.87 566.125 232.138C564.122 218.91 561.43 205.796 558.06 192.849C556.407 185.679 551.123 187.925 546.332 189.014C540.931 190.241 536.621 191.447 537.333 198.923C539.066 217.143 543.278 235.12 542.769 253.559C542.668 257.229 542.787 260.906 542.78 264.579C542.752 279.495 537.618 286.66 522.929 292.303Z" fill="#837CC6"/>
<path d="M723.292 293.511C748.721 299.566 774.889 301.93 800.992 300.53C826.434 299.735 849.653 293.381 868.111 274.58C869.057 273.874 870.103 273.312 871.215 272.914C868.559 282.529 860.053 286.573 852.548 290.555C828.199 303.473 801.937 306.463 774.689 303.928C761.62 303.275 748.603 301.816 735.714 299.557C730.993 298.521 725.821 298.864 723.292 293.511Z" fill="#837CC6"/>
<path d="M868.622 35.7909C858.685 32.8489 850.018 27.0785 840.432 23.1845C815.283 12.9682 792.247 16.6043 769.519 29.3617C760.105 34.3741 751.023 39.9886 742.331 46.1701C739.718 48.1161 737.259 50.7799 733.478 50.5186C733.377 48.2934 735.206 47.3382 736.581 46.3378C752.431 34.4897 769.842 24.8866 788.319 17.8005C806.31 11.1325 823.661 13.8421 840.778 20.1246C850.806 23.8055 861.777 26.2704 868.622 35.7909Z" fill="#837CC6"/>
<path d="M871.198 272.938C874.582 262.635 879.369 252.827 883.659 242.964C892.859 221.812 889.462 202.257 881.081 182.224C876.055 170.21 869.355 159.096 863.797 147.385C865.006 147.616 866.14 148.14 867.1 148.91C868.06 149.68 868.818 150.674 869.306 151.803C881.287 173.702 894.961 195.62 891.854 221.746C889.665 240.159 884.811 258.603 871.198 272.938Z" fill="#837CC6"/>
<path d="M599.117 27.6306C598.818 27.6895 598.405 27.9063 598.236 27.7846C578.979 13.8858 559.133 21.78 538.988 25.3368C522.614 28.2279 506.384 30.7537 491.47 38.5289C497.564 29.7872 507.364 27.135 516.647 25.7118C534.38 22.9937 551.83 19.2384 569.354 15.549C581.148 13.0659 590.624 20.0248 599.117 27.6306Z" fill="#837CC6"/>
<path d="M724.091 59.8852C722.584 67.3424 717.687 73.4168 716.108 80.9988C710.988 105.594 720.872 126.174 732.5 146.442C734.73 150.329 738.645 153.34 738.745 158.345C726.831 148.258 722.566 133.823 716.661 120.212C712.965 111.981 711.121 103.038 711.26 94.0166C711.399 84.9947 713.516 76.1132 717.463 67.9993C718.941 64.7264 719.993 61.0463 724.091 59.8852Z" fill="#837CC6"/>
<path d="M858.317 141.948C841.064 131.516 821.101 125.407 806.863 110.229C803.817 106.981 798.156 103.349 803.939 97.6251C805.315 107.429 812.829 112.513 820.076 117.222C828.906 122.96 838.521 127.478 847.599 132.857C851.618 135.238 856.607 136.743 858.317 141.948Z" fill="#837CC6"/>
<path d="M870.696 103.136C870.748 102.536 870.582 101.78 870.884 101.358C885.661 80.7346 881.748 60.1317 870.912 39.5037C870.741 38.9247 870.675 38.32 870.717 37.7178C881.307 43.189 880.908 54.0739 882.815 63.4575C885.483 76.5861 884.717 89.4352 874.909 100.072C873.731 101.348 872.869 103.177 870.696 103.136Z" fill="#837CC6"/>
<path d="M804.315 97.2559C809.514 91.8991 815.809 94.1639 821.312 95.7207C830.841 97.8194 840.079 101.073 848.821 105.409C855.71 109.347 862.107 107.614 868.691 105.136C864.668 112.154 859.159 112.946 851.889 110.085C836.539 104.046 821.538 96.4481 804.315 97.2559Z" fill="#837CC6"/>
<path d="M738.868 158.442C741.334 159.417 743.57 160.894 745.436 162.778C747.302 164.662 748.757 166.913 749.708 169.389C747.125 168.627 744.775 167.224 742.88 165.31C740.984 163.396 739.604 161.033 738.868 158.442Z" fill="#837CC6"/>
<path d="M731.305 52.3843C730.984 54.1642 730.146 55.8102 728.896 57.117C727.646 58.4238 726.038 59.3336 724.274 59.7327C724.41 57.8817 725.186 56.1356 726.469 54.7945C727.752 53.4534 729.462 52.6012 731.305 52.3843Z" fill="#837CC6"/>
<path d="M791.918 268.657C769.892 269.758 747.897 265.926 727.542 257.439C720.409 254.785 716.071 251.437 721.102 242.589C725.702 233.99 729.536 225.004 732.561 215.733C734.84 209.291 737.558 209.403 742.657 212.66C757.035 222.506 772.963 229.869 789.778 234.443C795.713 236.006 801.926 236.204 807.95 235.021C813.973 233.838 819.65 231.306 824.554 227.614C836.644 218.926 836.994 199.184 826.126 184.691C815.867 171.012 800.312 165.729 785.84 158.586C772.745 152.123 758.746 147.487 746.614 139.054C739.81 134.464 734.227 128.283 730.352 121.048C726.477 113.812 724.425 105.741 724.375 97.533C724.324 89.3252 726.277 81.2291 730.064 73.9469C733.851 66.6646 739.357 60.4161 746.105 55.7433C760.437 45.8673 775.829 37.6238 791.992 31.1664C807.776 24.7011 822.571 30.7545 837.38 35.5567C838.538 35.9321 839.594 36.61 840.741 37.0308C860.221 44.1788 860.134 44.2678 851.013 63.0505C848.477 68.2747 846.638 70.5845 840.108 67.6649C825.445 61.1091 809.591 61.474 794.025 63.1702C777.1 65.015 768.359 81.5218 775.058 97.4838C779.578 107.98 787.639 116.557 797.835 121.718C809.381 127.981 820.929 134.264 832.719 140.045C857.636 152.261 868.542 172.603 869.261 199.733C870.212 213.198 867.312 226.656 860.898 238.534C849.447 258.32 831.472 267.056 809.415 268.592C803.317 269.017 797.164 268.657 791.918 268.657Z" fill="#CCF575"/>
<path d="M785.242 292.995C769.734 291.279 752.155 289.402 734.598 287.342C730.393 286.849 721.133 273.123 722.356 269.542C723.544 266.06 725.886 268.412 727.653 268.77C737.787 270.826 747.482 274.474 757.568 276.889C772.499 280.465 787.346 279.626 802.282 280.001C805.942 279.494 809.671 280.013 813.053 281.499C815.183 282.836 819.33 282.77 818.574 286.432C817.993 289.25 814.646 290.414 811.968 290.718C803.784 291.647 795.552 292.154 785.242 292.995Z" fill="#837CC6"/>
<path d="M834.065 79.4576C836.023 79.9184 837.941 80.5324 839.802 81.2941C844.403 83.6613 852.485 85.133 849.916 91.5718C847.245 98.2637 841.176 92.0175 836.848 90.8249C833.729 89.7104 830.482 88.9926 827.184 88.6884C824.645 88.6325 822.084 88.0213 821.682 85.0369C821.185 81.353 824.378 81.7448 826.597 81.2051C829.223 80.5666 831.859 79.9719 834.065 79.4576Z" fill="#837CC6"/>
<path d="M511.874 171.241C511.267 171.847 510.662 172.453 510.056 173.06C506.852 173.825 506.906 176.432 506.93 178.86C507.118 197.471 506.487 216.151 507.947 234.664C508.719 244.448 507.395 250.754 497.943 255.029C480.351 262.983 464.66 275.862 443.852 275.158L443.547 274.803C447.259 259.663 450.693 244.449 454.731 229.397C469.47 174.46 482.768 119.18 494.625 63.5566C495.233 58.7332 497.469 54.262 500.965 50.8831C504.46 47.5043 509.005 45.4204 513.846 44.9763C529.759 41.954 545.718 38.9778 561.375 34.8991C568.847 32.9527 572.238 34.3615 575.411 41.44C598.934 93.9166 622.713 146.278 646.747 198.526C649.949 205.507 648.414 209.481 641.425 211.857C624.058 217.762 606.675 223.621 589.342 229.625C585.1 231.095 583.977 229.109 583.313 225.456C581.834 217.334 580.131 209.252 578.442 201.17C576.193 187.589 572.765 174.229 568.197 161.243C563.598 149.714 558.736 147.628 547.652 152.073C545.906 152.639 544.196 153.309 542.531 154.081C532.271 159.728 519.695 161.253 511.874 171.241ZM510.684 111.345C509.814 129.194 513.401 131.756 527.722 126.714C529.446 126.107 531.281 125.82 533.009 125.222C556.083 117.243 557.32 113.807 550.641 89.9187C544.89 69.3526 541.079 73.2076 525.38 78.0171C523.101 78.9277 521.062 80.3498 519.419 82.1737C517.777 83.9975 516.576 86.1743 515.908 88.5361C512.86 95.7792 511.092 103.497 510.684 111.345Z" fill="#FCFCFD"/>
<path d="M511.874 171.241C519.695 161.253 532.271 159.728 542.531 154.081C544.196 153.31 545.906 152.639 547.652 152.073C558.736 147.628 563.598 149.714 568.197 161.243C572.765 174.229 576.193 187.589 578.442 201.17C580.131 209.252 581.834 217.334 583.312 225.456C583.977 229.109 585.1 231.095 589.342 229.625C606.675 223.621 624.058 217.762 641.425 211.857C648.413 209.481 649.949 205.507 646.747 198.526C622.77 146.254 598.992 93.8921 575.411 41.4401C572.237 34.3616 568.847 32.9527 561.374 34.8992C545.717 38.9779 529.758 41.9541 513.846 44.9764C509.005 45.4204 504.46 47.5044 500.965 50.8832C497.469 54.2621 495.232 58.7333 494.624 63.5567C482.872 119.197 469.574 174.477 454.731 229.397C450.693 244.449 447.259 259.663 443.546 274.803C439.788 273.491 440.645 270.521 441.319 267.921C448.102 241.757 455.435 215.725 461.691 189.437C468.245 161.898 476.084 134.681 481.5 106.843C484.362 89.4167 488.405 72.2049 493.601 55.3266C498.278 41.5676 511.2 42.2873 521.518 39.8537C535.398 36.5797 549.882 35.5244 563.464 31.0011C571.816 28.2194 574.998 31.6718 578.004 38.4281C593.275 72.7555 608.784 106.978 624.223 141.23C633.14 161.011 641.657 180.991 651.247 200.441C654.578 207.196 652.356 209.604 647.049 212.595C635.24 218.345 622.909 222.954 610.224 226.357C603.891 228.482 597.411 230.182 591.119 232.414C585.259 234.493 582.005 234.585 580.174 226.807C575.364 206.379 573.364 185.294 565.948 165.467C560.863 151.87 559.614 151.412 546.1 156.118C534.256 160.243 524.123 168.118 511.874 171.241Z" fill="#837CC6"/>
<path d="M670.445 231.802C670.82 235.471 667.832 236.366 665.467 237.511C646.983 246.459 628.467 255.339 609.917 264.15C604.44 266.735 587.743 255.181 588.129 249.123C588.353 245.62 591.305 244.441 594.205 243.134C606.163 237.744 619.635 237.75 631.605 232.447C639.334 229.023 647.087 225.646 654.907 222.439C656.543 221.98 658.256 221.862 659.939 222.09C661.623 222.318 663.243 222.888 664.698 223.765C666.154 224.642 667.414 225.807 668.403 227.189C669.391 228.571 670.086 230.141 670.445 231.802Z" fill="#837CC6"/>
<path d="M479.588 300.098C473.621 298.514 468.422 294.836 464.942 289.737C463.022 286.839 465.503 284.643 468.602 283.885C480.258 280.573 491.473 275.868 502.003 269.872C503.839 268.482 506.014 267.609 508.301 267.344C510.589 267.079 512.906 267.431 515.011 268.364C522.811 272.581 523.391 277.404 516.241 282.45C509.582 287.15 483.55 299.964 479.588 300.098Z" fill="#837CC6"/>
<path d="M443.851 275.158C464.659 275.861 480.35 262.983 497.942 255.029C507.395 250.754 508.718 244.448 507.947 234.664C506.487 216.151 507.118 197.471 506.93 178.86C506.905 176.432 506.852 173.825 510.056 173.06C510.084 190.177 510.115 207.295 510.15 224.413C509.986 227.161 510.069 229.919 510.396 232.652C514.374 254.042 512.46 249.091 497.569 258.696C486.7 265.48 475.17 271.145 463.158 275.604C456.968 278.007 450.127 281.218 443.851 275.158Z" fill="#837CC6"/>
<path d="M37.2794 162.287C37.7679 118.068 42.521 89.506 55.8505 62.7305C77.1712 19.9028 129.59 15.7717 157.278 54.6525C175.101 79.6799 185.004 107.917 192.334 137.375C198.5 159.175 199.637 182.09 195.66 204.393C190.454 229.691 172.852 264.87 137.532 271.773C117.693 275.65 100.083 267.087 85.1518 254.824C51.5388 227.217 36.7431 190.792 37.2794 162.287ZM83.9872 117.654C83.7861 134.451 85.6328 151.21 89.4864 167.561C91.7308 179.952 97.5674 191.411 106.271 200.512C109.715 204.006 113.934 206.639 118.585 208.197C123.237 209.756 128.19 210.196 133.044 209.483C137.897 208.77 142.515 206.923 146.521 204.092C150.528 201.261 153.81 197.525 156.104 193.188C166.826 173.64 165.876 153.41 159.645 132.814C152.864 110.398 143.783 89.0936 127.574 71.7996C114.135 57.4602 94.9538 62.1916 88.667 80.6178C85.0211 92.6091 83.4386 105.133 83.9872 117.654Z" fill="#D04485"/>
<path d="M33.6628 88.0453C34.083 98.5254 29.811 106.208 28.5886 114.442C25.4197 134.647 25.4545 155.225 28.692 175.418C32.0563 197.118 40.1364 217.817 52.3635 236.058C58.2371 245.722 65.8003 254.252 74.6922 261.24C79.4725 264.649 81.9208 267.605 73.5693 270.6C60.5657 275.262 54.0539 273.804 46.4528 262.209C35.1207 243.852 27.1282 223.633 22.8452 202.49C20.3378 191.796 19.4046 180.852 17.0052 170.198C13.0901 152.815 18.2225 136.376 21.295 119.718C22.5545 112.889 25.1187 106.299 26.3478 99.4679C27.203 94.8521 29.828 90.7531 33.6628 88.0453Z" fill="#837CC6"/>
<path d="M308.223 286.102C308.223 294.062 308.563 302.039 308.141 309.976C307.551 321.064 303.054 324.676 292.39 322.712C280.214 319.826 267.713 318.547 255.206 318.907C253.376 319.063 251.536 318.773 249.844 318.062C241.826 314.422 228.175 288.601 229.122 279.899C232.184 251.753 234.749 223.549 238.098 195.438C240.798 172.776 244.298 150.208 247.549 127.614C251.664 99.0135 255.39 70.3411 260.379 41.8917C261.789 33.8514 260.248 22.8394 270.397 18.9508C278.974 15.6644 287.676 12.4081 297.775 14.7246C319.71 19.7562 342.064 22.9729 363.981 28.074C399.416 36.3216 415.689 57.4641 418.438 93.1877C421.097 116.728 416.086 140.498 404.152 160.963C398.477 169.651 391.236 177.21 382.799 183.253C379.659 185.673 376.472 188.031 373.237 190.326C367.898 194.101 367.008 197.576 370.976 203.818C381.865 219.971 391.311 237.05 399.204 254.86C410.929 283.389 407.538 292.453 380.648 307.14C374.266 310.625 367.286 313.057 361.062 316.777C355.064 320.362 351.721 318.375 348.157 313.334C338.493 298.939 329.879 283.866 322.381 268.233C319.734 263.044 317.535 254.365 311.178 255.701C305.45 256.904 308.92 265.311 308.422 270.5C307.927 275.657 308.313 280.898 308.313 286.103L308.223 286.102ZM239.917 279.989C239.697 280.984 239.709 282.017 239.95 283.007C240.191 283.998 240.656 284.92 241.309 285.703C241.962 286.486 242.786 287.108 243.717 287.523C244.648 287.938 245.662 288.135 246.681 288.097C255.161 289.133 263.639 290.279 272.152 290.935C287.632 292.127 288.072 292.032 289.585 276.178C292.367 247.024 294.592 217.816 297.036 188.63C297.261 185.94 296.607 182.474 299.899 181.589C303.168 180.71 304.531 183.877 305.833 186.243C312.137 197.695 318.564 209.085 324.583 220.686C334.932 240.631 345.223 260.612 355.086 280.799C358.583 287.956 362.122 288.789 368.413 284.114C374.095 280.011 380.095 276.368 386.356 273.217C387.421 272.751 388.376 272.067 389.159 271.209C389.943 270.351 390.538 269.338 390.906 268.236C391.274 267.133 391.406 265.966 391.294 264.809C391.182 263.653 390.829 262.532 390.257 261.521C386.538 251.562 382.204 241.843 377.281 232.421C369.098 217.466 360.043 202.987 351.272 188.357C350.338 187.234 349.649 185.929 349.249 184.525C348.849 183.121 348.747 181.649 348.948 180.203C349.15 178.757 349.651 177.369 350.421 176.128C351.19 174.887 352.209 173.82 353.415 172.996C356.853 169.943 360.093 166.673 363.115 163.207C378.765 146.471 394.708 129.893 403.533 108.211C407.003 101.393 408.776 93.8384 408.702 86.1886C406.682 65.6205 382.206 41.0012 361.721 37.5145C338.608 33.5807 315.554 29.3002 292.507 24.9922C280.293 22.7091 275.004 27.2628 272.794 39.1741C269.346 57.7534 266.878 76.4566 264.039 95.1126C260.83 116.196 257.577 137.278 254.822 158.423C251.673 182.599 249.339 206.881 246.099 231.043C243.911 247.361 244.732 264.043 239.917 279.989ZM254.964 298.232C251.2 299.417 245.787 296.438 244.868 300.719C244.03 304.621 247.683 308.354 251.484 310.945C254.133 312.472 257.183 313.163 260.231 312.925C268.783 313.235 277.338 313.52 285.881 314.002C289.25 314.192 293.511 317.226 294.966 311.705C295.292 310.651 295.359 309.533 295.159 308.448C294.959 307.362 294.499 306.341 293.819 305.472C293.138 304.603 292.257 303.912 291.251 303.459C290.244 303.005 289.143 302.802 288.041 302.867C276.69 302.45 265.734 299.565 254.964 298.232ZM351.001 301.836C351.615 300.71 351.955 299.456 351.994 298.174C352.034 296.892 351.77 295.618 351.225 294.457C341.87 271.574 331.079 249.304 318.917 227.781C317.478 225.022 316.722 218.898 311.786 221.918C307.338 224.639 311.998 228.507 313.411 231.394C320.608 246.098 328.013 260.7 335.626 275.199C340.208 283.949 343.231 293.654 351.001 301.836Z" fill="#4035A7"/>
<path d="M510.684 111.345C511.091 103.497 512.859 95.7792 515.908 88.5361C516.575 86.1743 517.776 83.9975 519.419 82.1736C521.061 80.3498 523.101 78.9277 525.38 78.0171C541.079 73.2075 544.889 69.3526 550.64 89.9186C557.32 113.807 556.082 117.243 533.009 125.222C531.281 125.82 529.445 126.107 527.721 126.714C513.4 131.756 509.813 129.194 510.684 111.345ZM526.42 103.499C527.045 106.211 525.088 110.499 529.923 110.553C530.701 110.58 531.477 110.452 532.206 110.176C532.934 109.9 533.6 109.481 534.164 108.944C534.728 108.407 535.18 107.763 535.492 107.05C535.804 106.336 535.971 105.568 535.982 104.789C536.029 102.911 535.374 101.083 534.144 99.6627C532.915 98.2423 531.2 97.3313 529.335 97.1079C525.192 96.8097 527.404 101.282 526.42 103.499Z" fill="#4035A7"/>
<path d="M83.9905 117.654C83.4387 105.132 85.0198 92.6085 88.6664 80.6173C94.9531 62.1911 114.134 57.4597 127.574 71.7991C143.782 89.0931 152.863 110.398 159.644 132.813C165.875 153.41 166.825 173.64 156.103 193.188C153.81 197.525 150.527 201.26 146.52 204.091C142.514 206.922 137.897 208.769 133.043 209.483C128.19 210.196 123.236 209.755 118.585 208.197C113.933 206.638 109.714 204.005 106.27 200.512C97.5669 191.41 91.7303 179.952 89.4859 167.561C85.6317 151.21 83.7863 134.451 83.9905 117.654ZM113.125 191.703C114.959 198.02 117.812 199.241 122.327 195.642L125.751 193.512C127.554 193.556 129.349 193.771 131.112 194.153C144.575 198.374 147.827 196.985 153.992 184.329C155.265 181.717 156.351 178.783 154.091 176.716C151.542 174.385 148.981 176.947 146.691 178.244C142.202 180.787 140.408 186.42 135.305 188.305L134.765 187.718C132.089 181.882 141.954 177.712 136.916 171.561L137.247 164.354C142.013 160.589 141.992 156.813 137.275 153.025L136.861 147.675C140.158 143.048 138.358 140.17 133.639 138.292L133.072 134.822C133.696 130.937 133.155 126.954 131.517 123.376C129.88 119.798 127.22 116.785 123.873 114.717C123.46 114.465 123.143 114.083 122.972 113.631C124.286 109.453 122.389 107.64 118.37 107.391L118.379 107.4C118.013 100.116 111.642 99.9674 106.993 98.6003C103.266 97.5044 98.9779 98.1834 98.4531 103.732C94.2787 116.363 97.4856 129.344 96.627 142.132C93.7986 146.958 93.9443 150.955 99.7651 153.369L100.405 158.668C97.1764 163.238 99.8072 165.821 103.58 168.018L104.097 171.531C103.827 179.724 105.401 187.091 113.131 191.706L113.125 191.703Z" fill="#4035A7"/>
<path d="M239.917 279.989C244.732 264.043 243.911 247.361 246.099 231.044C249.339 206.881 251.673 182.599 254.823 158.423C257.577 137.278 260.83 116.196 264.039 95.1127C266.878 76.4567 269.346 57.7535 272.794 39.1743C275.005 27.2629 280.294 22.7092 292.507 24.9923C315.554 29.3003 338.608 33.5808 361.721 37.5146C382.206 41.0013 406.683 65.6208 408.702 86.1887C408.776 93.8386 407.003 101.393 403.533 108.211C394.708 129.893 378.765 146.471 363.115 163.207C360.094 166.673 356.854 169.943 353.415 172.996C352.21 173.82 351.19 174.887 350.421 176.128C349.652 177.369 349.15 178.757 348.948 180.203C348.747 181.649 348.849 183.121 349.249 184.525C349.649 185.929 350.338 187.234 351.272 188.357C360.043 202.987 369.098 217.467 377.281 232.421C382.204 241.843 386.537 251.562 390.257 261.521C390.829 262.532 391.182 263.653 391.294 264.809C391.406 265.966 391.273 267.133 390.906 268.236C390.538 269.338 389.943 270.351 389.159 271.209C388.375 272.067 387.42 272.751 386.356 273.217C380.095 276.368 374.095 280.011 368.412 284.114C362.122 288.789 358.583 287.956 355.086 280.799C345.223 260.612 334.931 240.631 324.583 220.686C318.564 209.085 312.137 197.695 305.833 186.242C304.531 183.877 303.168 180.71 299.899 181.589C296.606 182.474 297.261 185.94 297.036 188.63C294.592 217.816 292.367 247.023 289.585 276.177C288.072 292.032 287.632 292.126 272.152 290.935C263.639 290.279 255.161 289.133 246.681 288.097C245.662 288.134 244.648 287.938 243.717 287.523C242.786 287.108 241.962 286.485 241.309 285.703C240.656 284.92 240.191 283.998 239.95 283.007C239.709 282.017 239.698 280.984 239.917 279.989ZM295.022 115.317C295.022 120.741 295.023 124.103 295.022 127.465C295.02 140.335 296.982 142.319 309.901 141.988C319.866 141.823 329.652 139.322 338.474 134.686C347.296 130.05 354.907 123.409 360.696 115.296C373.538 98.465 373.836 68.0257 352 58.2056C336.823 51.3799 321.092 52.7758 305.535 56.4593C303.55 56.9431 301.798 58.1077 300.583 59.7504C299.368 61.3932 298.768 63.4099 298.887 65.4495C299.994 82.9485 294.125 99.9116 295.022 115.317Z" fill="#5EBAB4"/>
<path d="M254.964 298.232C265.733 299.565 276.69 302.45 288.041 302.867C289.143 302.802 290.244 303.005 291.25 303.459C292.256 303.913 293.137 304.604 293.818 305.472C294.499 306.341 294.959 307.362 295.159 308.448C295.358 309.533 295.292 310.651 294.965 311.705C293.511 317.226 289.25 314.192 285.881 314.002C277.338 313.521 268.783 313.235 260.231 312.925C257.182 313.163 254.133 312.473 251.483 310.945C247.683 308.354 244.03 304.621 244.867 300.719C245.786 296.438 251.199 299.417 254.964 298.232Z" fill="#837CC6"/>
<path d="M351 301.836C343.231 293.654 340.208 283.949 335.626 275.199C328.032 260.695 320.627 246.093 313.411 231.394C311.998 228.507 307.338 224.639 311.786 221.918C316.722 218.898 317.478 225.022 318.917 227.781C331.079 249.304 341.87 271.574 351.225 294.457C351.77 295.618 352.034 296.892 351.995 298.174C351.955 299.456 351.615 300.711 351 301.836Z" fill="#837CC6"/>
<path d="M526.42 103.499C527.405 101.282 525.193 96.81 529.335 97.1079C531.201 97.3313 532.916 98.2423 534.145 99.6627C535.374 101.083 536.029 102.911 535.983 104.789C535.971 105.568 535.805 106.336 535.492 107.05C535.18 107.763 534.729 108.407 534.164 108.944C533.6 109.481 532.934 109.899 532.206 110.176C531.478 110.452 530.702 110.58 529.924 110.552C525.089 110.499 527.045 106.212 526.42 103.499Z" fill="#837CC6"/>
<path d="M133.072 134.822C133.262 135.979 133.451 137.135 133.64 138.292C133.256 140.001 133.355 141.783 133.923 143.44C134.492 145.096 135.509 146.562 136.862 147.676C137 149.459 137.138 151.242 137.275 153.026C136.334 156.742 136.324 160.633 137.248 164.354L136.916 171.561L125.752 193.512L122.327 195.642C118.95 195.221 115.761 193.856 113.126 191.703L113.131 191.706C110.19 184.95 109.017 177.402 104.097 171.531L103.58 168.018C104.036 166.32 103.978 164.525 103.412 162.861C102.847 161.196 101.801 159.737 100.405 158.668C100.192 156.902 99.9789 155.135 99.7659 153.369C100.13 151.381 100.037 149.336 99.4928 147.389C98.9491 145.442 97.9691 143.644 96.6273 142.132C97.4858 129.344 94.279 116.363 98.4532 103.732C106.026 99.9031 112.114 104.133 118.379 107.401L118.37 107.391C118.511 110.497 120.779 112.037 122.973 113.631C123.144 114.083 123.461 114.466 123.873 114.717C126.67 121.542 128.121 128.982 133.072 134.822Z" fill="#FCFCFD"/>
<path d="M125.752 193.512L136.916 171.561C141.954 177.712 132.089 181.882 134.771 187.725C133.842 188.343 132.568 188.758 132.07 189.62C131.969 189.821 131.933 190.048 131.967 190.27C132.001 190.492 132.103 190.698 132.26 190.86C132.416 191.021 132.619 191.129 132.84 191.17C133.061 191.21 133.289 191.181 133.493 191.086C134.347 190.585 134.721 189.265 135.305 188.305C140.408 186.42 142.203 180.787 146.692 178.244C148.982 176.947 151.543 174.385 154.091 176.716C156.352 178.783 155.265 181.717 153.992 184.329C147.827 196.985 144.576 198.374 131.112 194.153C129.349 193.771 127.555 193.556 125.752 193.512Z" fill="#837CC6"/>
<path d="M165.301 84.435C159.036 81.167 152.948 76.9375 145.375 80.7664C145.9 75.2179 150.188 74.5389 153.915 75.6348C158.565 77.0019 164.935 77.1507 165.301 84.435Z" fill="#837CC6"/>
<path d="M133.072 134.822C128.121 128.982 126.67 121.542 123.873 114.717C127.22 116.785 129.88 119.798 131.517 123.376C133.155 126.954 133.695 130.937 133.072 134.822Z" fill="#837CC6"/>
<path d="M104.097 171.531C109.017 177.402 110.189 184.95 113.13 191.706C105.401 187.091 103.827 179.724 104.097 171.531Z" fill="#837CC6"/>
<path d="M96.6269 142.132C97.9687 143.644 98.9486 145.442 99.4924 147.388C100.036 149.335 100.13 151.381 99.7654 153.369C93.9442 150.955 93.7985 146.958 96.6269 142.132Z" fill="#837CC6"/>
<path d="M136.861 147.676C135.509 146.562 134.492 145.096 133.923 143.44C133.354 141.783 133.256 140.001 133.639 138.292C138.358 140.17 140.158 143.049 136.861 147.676Z" fill="#837CC6"/>
<path d="M137.248 164.354C136.324 160.633 136.334 156.742 137.275 153.026C141.992 156.813 142.013 160.59 137.248 164.354Z" fill="#837CC6"/>
<path d="M100.405 158.668C101.8 159.737 102.847 161.196 103.412 162.861C103.977 164.525 104.035 166.32 103.58 168.018C99.8072 165.822 97.1761 163.238 100.405 158.668Z" fill="#837CC6"/>
<path d="M113.125 191.703C115.76 193.856 118.95 195.221 122.326 195.642C117.812 199.241 114.958 198.02 113.125 191.703Z" fill="#837CC6"/>
<path d="M122.973 113.631C120.78 112.037 118.512 110.497 118.371 107.391C122.39 107.64 124.286 109.453 122.973 113.631Z" fill="#837CC6"/>
<path d="M295.022 115.318C294.124 99.9118 299.994 82.9487 298.887 65.4496C298.768 63.4099 299.368 61.3932 300.583 59.7505C301.798 58.1078 303.55 56.9431 305.535 56.4593C321.092 52.7758 336.823 51.38 352 58.2056C373.836 68.0257 373.538 98.465 360.696 115.296C354.907 123.409 347.296 130.05 338.474 134.686C329.652 139.322 319.866 141.823 309.901 141.988C296.982 142.319 295.02 140.335 295.022 127.465C295.023 124.103 295.022 120.74 295.022 115.318ZM339.752 85.1246C333.818 84.3426 328.872 86.3833 328.633 93.9965C328.365 102.516 328.661 111.054 328.7 119.583C328.723 124.466 330.82 125.532 334.989 123.118C342.309 118.676 348.26 112.298 352.185 104.687C358.761 92.8245 354.301 85.3875 339.752 85.1246ZM306.232 102.332H306.144C306.144 109.066 306.081 115.801 306.17 122.534C306.217 126.13 305.606 130.831 310.962 130.688C315.854 130.557 317.199 126.557 317.197 122.126C317.192 113.861 316.928 105.578 317.399 97.3377C317.589 91.8581 316.21 86.4382 313.426 81.7149C312.235 79.4787 310.894 76.6713 308.418 76.9739C305.039 77.3866 306.36 80.862 306.297 83.0499C306.115 89.4725 306.232 95.9039 306.232 102.332Z" fill="#4035A7"/>
<path d="M135.305 188.305C134.721 189.265 134.347 190.585 133.493 191.086C133.289 191.181 133.061 191.21 132.84 191.17C132.619 191.129 132.416 191.021 132.259 190.86C132.103 190.699 132 190.492 131.967 190.27C131.933 190.048 131.969 189.821 132.07 189.62C132.568 188.758 133.842 188.343 134.771 187.725L135.305 188.305Z" fill="#4035A7"/>
<path d="M339.752 85.1246C354.301 85.3875 358.761 92.8245 352.185 104.687C348.26 112.298 342.309 118.676 334.989 123.118C330.82 125.532 328.723 124.466 328.7 119.583C328.661 111.053 328.365 102.516 328.633 93.9964C328.872 86.3833 333.819 84.3426 339.752 85.1246Z" fill="#FCFCFD"/>
<path d="M306.233 102.332C306.233 95.9038 306.115 89.4724 306.298 83.0495C306.36 80.8617 305.04 77.3863 308.418 76.9735C310.894 76.671 312.236 79.4783 313.427 81.7146C316.211 86.4379 317.589 91.8578 317.4 97.3374C316.929 105.577 317.193 113.86 317.197 122.125C317.2 126.557 315.855 130.557 310.963 130.688C305.607 130.83 306.218 126.13 306.171 122.534C306.082 115.801 306.145 109.066 306.145 102.332H306.233Z" fill="#837CC6"/>
</g>
<defs>
<filter id="filter0_d_126_153" x="-4" y="0" width="910.328" height="349.03" filterUnits="userSpaceOnUse" color-interpolation-filters="sRGB">
<feFlood flood-opacity="0" result="BackgroundImageFix"/>
<feColorMatrix in="SourceAlpha" type="matrix" values="0 0 0 0 0 0 0 0 0 0 0 0 0 0 0 0 0 0 127 0" result="hardAlpha"/>
<feOffset dy="4"/>
<feGaussianBlur stdDeviation="2"/>
<feComposite in2="hardAlpha" operator="out"/>
<feColorMatrix type="matrix" values="0 0 0 0 0 0 0 0 0 0 0 0 0 0 0 0 0 0 0.25 0"/>
<feBlend mode="normal" in2="BackgroundImageFix" result="effect1_dropShadow_126_153"/>
<feBlend mode="normal" in="SourceGraphic" in2="effect1_dropShadow_126_153" result="shape"/>
</filter>
</defs>
</svg>
