<svg fill="none" xmlns="http://www.w3.org/2000/svg" viewBox="0 0 896 190">
  <g clip-path="url(#a)">
    <path d="M372.45 38v114h-19.896V62.542h-.265L316.742 152h-13.264l-36.343-89.458h-.266V152h-18.304V38h28.65l32.895 84.445h.53L345.392 38h27.058Zm16.447 8.708c0-3.166 1.061-5.805 3.449-7.916 2.387-2.111 5.04-3.167 8.223-3.167 3.449 0 6.367 1.056 8.489 3.167 2.123 2.11 3.449 4.75 3.449 7.916 0 3.167-1.061 5.806-3.449 7.917-2.387 2.111-5.04 3.167-8.489 3.167-3.448 0-6.101-1.056-8.223-3.167-2.122-2.375-3.449-5.014-3.449-7.917Zm21.488 23.487V152h-19.366V70.195h19.366Zm58.626 67.819c2.918 0 6.102-.528 9.55-2.111 3.449-1.32 6.632-3.167 9.55-5.278v17.945c-3.183 1.847-6.632 3.166-10.611 3.958-3.979.792-8.224 1.319-12.999 1.319-12.202 0-22.018-3.694-29.445-11.347-7.693-7.653-11.407-17.417-11.407-29.028 0-13.194 3.979-24.014 11.672-32.458 7.693-8.444 18.569-12.667 32.894-12.667 3.714 0 7.428.528 10.877 1.32 3.714.791 6.632 2.11 8.754 3.166v18.473c-2.918-2.111-6.102-3.959-9.02-5.014-3.183-1.056-6.366-1.847-9.55-1.847-7.693 0-13.794 2.375-18.569 7.388-4.775 5.014-6.897 11.612-6.897 20.056 0 8.181 2.387 14.778 6.897 19.264 4.51 4.486 10.611 6.861 18.304 6.861Zm74.013-69.139c1.591 0 2.918 0 4.244.264 1.326.264 2.388.528 3.183.792v19.527c-1.061-.791-2.387-1.583-4.509-2.11-2.123-.528-4.245-1.056-7.163-1.056-4.775 0-8.754 2.11-11.937 6.07-3.184 3.958-5.041 10.027-5.041 18.471V152h-19.365V70.195h19.365v12.93h.266c1.857-4.486 4.509-7.917 7.958-10.555 3.714-2.375 7.958-3.695 12.999-3.695Zm8.489 43.542c0-13.459 3.979-24.278 11.406-32.195 7.694-7.916 18.305-11.875 31.834-11.875 12.733 0 22.814 3.695 29.976 11.348 7.163 7.652 10.877 17.944 10.877 30.875 0 13.194-3.98 23.75-11.407 31.666-7.693 7.917-18.039 11.875-31.303 11.875-12.733 0-22.814-3.694-30.242-11.083-7.428-7.653-11.141-17.945-11.141-30.611Zm20.161-.792c0 8.445 1.857 15.042 5.836 19.528 3.979 4.486 9.55 6.861 16.712 6.861 6.897 0 12.468-2.111 16.182-6.861 3.714-4.486 5.571-11.083 5.571-20.056 0-8.708-1.857-15.305-5.571-20.055-3.714-4.486-9.285-6.861-15.916-6.861-7.163 0-12.469 2.375-16.448 7.125-4.509 5.014-6.366 11.611-6.366 20.319Zm92.847-19.792c0 2.64.796 5.014 2.653 6.598 1.857 1.583 5.57 3.43 11.672 5.805 7.693 3.167 13.264 6.597 16.182 10.292 3.183 3.958 4.775 8.444 4.775 13.986 0 7.653-2.918 13.722-9.02 18.472-5.836 4.75-14.059 6.861-24.14 6.861-3.449 0-7.162-.527-11.407-1.319-4.244-.792-7.693-1.847-10.611-3.167v-19c3.449 2.375 7.428 4.486 11.407 5.806 3.979 1.319 7.693 2.111 11.142 2.111 4.244 0 7.693-.528 9.55-1.847 2.122-1.32 3.183-3.167 3.183-6.07 0-2.639-1.061-4.75-3.183-6.861-2.123-1.847-6.367-3.958-12.203-6.333-7.163-2.903-12.203-6.334-15.121-10.028-2.918-3.694-4.51-8.444-4.51-14.25 0-7.389 2.918-13.458 8.754-18.208 5.837-4.75 13.53-7.125 22.814-7.125 2.918 0 6.102.264 9.55 1.055 3.449.792 6.632 1.584 9.02 2.375v18.736c-2.653-1.583-5.571-3.166-9.02-4.486a28.202 28.202 0 0 0-10.08-1.847c-3.714 0-6.632.792-8.489 2.111-1.857 1.847-2.918 3.695-2.918 6.333Zm43.505 20.584c0-13.459 3.98-24.278 11.407-32.195 7.693-7.916 18.305-11.875 31.834-11.875 12.733 0 22.814 3.695 29.976 11.348 7.163 7.652 10.876 17.944 10.876 30.875 0 13.194-3.979 23.75-11.407 31.666-7.693 7.917-18.038 11.875-31.302 11.875-12.734 0-22.814-3.694-30.242-11.083-7.162-7.653-11.142-17.945-11.142-30.611Zm20.162-.792c0 8.445 1.856 15.042 5.836 19.528 3.979 4.486 9.55 6.861 16.712 6.861 6.897 0 12.468-2.111 16.182-6.861 3.714-4.486 5.571-11.083 5.571-20.056 0-8.708-1.857-15.305-5.571-20.055-3.714-4.486-9.285-6.861-15.917-6.861-7.162 0-12.468 2.375-16.447 7.125-4.244 5.014-6.366 11.611-6.366 20.319Zm128.394-25.597h-28.915V152h-19.631V86.028h-13.794V70.195h13.794V58.847c0-8.444 2.918-15.57 8.489-21.11 5.571-5.542 12.733-8.181 21.487-8.181 2.388 0 4.51.264 6.367.264 1.857 0 3.449.527 4.775 1.055V47.5c-.53-.264-1.857-.792-3.448-1.32-1.592-.527-3.449-.791-5.571-.791-3.979 0-7.163 1.32-9.285 3.694-2.122 2.375-3.183 6.334-3.183 11.084v9.764h28.915V51.458l19.365-5.805V69.93h19.631v15.833h-19.631v38.264c0 5.014 1.061 8.444 2.653 10.555 1.857 2.112 4.775 3.167 8.754 3.167 1.061 0 2.388-.264 3.979-.792 1.592-.527 2.918-1.055 3.98-1.847v15.834c-1.327.791-3.184 1.319-6.102 1.847s-5.571.791-8.489.791c-8.223 0-14.325-2.111-18.304-6.333-3.979-4.222-6.101-10.819-6.101-19.528l.265-41.694Z" fill="#fff"/>
    <path d="M90.725 0H0v90.25h90.725V0Z" fill="#F25022"/>
    <path d="M191 0h-90.725v90.25H191V0Z" fill="#7FBA00"/>
    <path d="M90.725 99.75H0V190h90.725V99.75Z" fill="#00A4EF"/>
    <path d="M191 99.75h-90.725V190H191V99.75Z" fill="#FFB900"/>
  </g>
  <defs>
    <clipPath id="a">
      <path fill="#fff" d="M0 0h895.578v190H0z"/>
    </clipPath>
  </defs>
</svg>
