<svg fill="none" xmlns="http://www.w3.org/2000/svg" viewBox="0 0 318 190">
  <path d="M89.539 69.004c0 3.91.422 7.08 1.162 9.405.846 2.325 1.902 4.861 3.382 7.609.528.845.74 1.69.74 2.43 0 1.057-.635 2.114-2.008 3.17l-6.658 4.439c-.95.634-1.902.95-2.747.95-1.057 0-2.114-.528-3.17-1.479a32.697 32.697 0 0 1-3.805-4.966c-1.056-1.797-2.113-3.805-3.276-6.235-8.242 9.722-18.598 14.583-31.067 14.583-8.877 0-15.957-2.536-21.135-7.608-5.178-5.073-7.82-11.836-7.82-20.29 0-8.982 3.17-16.273 9.616-21.768C29.2 43.749 37.76 41 48.643 41c3.593 0 7.292.317 11.202.846 3.91.528 7.925 1.373 12.152 2.324v-7.714c0-8.031-1.69-13.632-4.967-16.908-3.381-3.275-9.087-4.86-17.224-4.86-3.699 0-7.503.422-11.413 1.373-3.91.951-7.714 2.114-11.413 3.593-1.69.74-2.959 1.163-3.698 1.374-.74.211-1.268.317-1.691.317-1.48 0-2.22-1.057-2.22-3.276v-5.178c0-1.69.212-2.959.74-3.698.529-.74 1.48-1.48 2.96-2.22 3.698-1.902 8.136-3.487 13.314-4.755C41.563.845 47.058.211 52.87.211c12.575 0 21.769 2.854 27.687 8.56 5.812 5.706 8.77 14.371 8.77 25.995v34.238h.212ZM46.635 85.067c3.488 0 7.08-.634 10.885-1.902 3.804-1.268 7.186-3.593 10.039-6.763 1.69-2.008 2.959-4.227 3.593-6.764.634-2.536 1.056-5.6 1.056-9.193v-4.438a88.254 88.254 0 0 0-9.721-1.797 79.625 79.625 0 0 0-9.934-.634c-7.08 0-12.258 1.374-15.745 4.227s-5.178 6.869-5.178 12.153c0 4.966 1.268 8.665 3.91 11.2 2.536 2.643 6.235 3.91 11.096 3.91Zm84.856 11.412c-1.902 0-3.17-.317-4.016-1.056-.845-.634-1.585-2.114-2.219-4.121L100.423 9.615c-.634-2.113-.951-3.487-.951-4.227 0-1.69.845-2.642 2.536-2.642h10.356c2.008 0 3.382.318 4.121 1.057.846.634 1.48 2.114 2.114 4.121l17.753 69.956 16.485-69.956c.528-2.113 1.162-3.487 2.008-4.12.845-.635 2.324-1.058 4.227-1.058h8.453c2.008 0 3.382.318 4.227 1.057.846.634 1.585 2.114 2.008 4.121l16.696 70.801 18.282-70.8c.634-2.114 1.374-3.488 2.113-4.122.846-.634 2.219-1.056 4.122-1.056h9.827c1.691 0 2.642.845 2.642 2.641 0 .529-.106 1.057-.211 1.691-.106.634-.317 1.48-.74 2.642l-25.467 81.685c-.634 2.114-1.374 3.487-2.219 4.121-.846.634-2.22 1.057-4.016 1.057h-9.088c-2.008 0-3.381-.317-4.227-1.057-.845-.74-1.585-2.113-2.008-4.227l-16.379-68.159-16.273 68.054c-.529 2.113-1.163 3.487-2.008 4.227-.846.74-2.325 1.056-4.227 1.056h-9.088Zm135.79 2.854c-5.495 0-10.99-.634-16.274-1.903-5.284-1.268-9.405-2.641-12.152-4.226-1.691-.951-2.853-2.008-3.276-2.96a7.453 7.453 0 0 1-.634-2.958v-5.39c0-2.219.845-3.275 2.43-3.275.634 0 1.268.105 1.902.317.634.211 1.585.634 2.642 1.056a57.493 57.493 0 0 0 11.624 3.699c4.227.845 8.348 1.268 12.575 1.268 6.658 0 11.836-1.162 15.429-3.487 3.592-2.325 5.495-5.707 5.495-10.04 0-2.958-.951-5.388-2.854-7.396-1.902-2.008-5.495-3.804-10.673-5.495l-15.322-4.755c-7.714-2.43-13.421-6.024-16.908-10.78-3.487-4.649-5.283-9.827-5.283-15.322 0-4.438.951-8.348 2.853-11.73 1.902-3.38 4.438-6.34 7.608-8.665 3.17-2.43 6.763-4.226 10.99-5.495C261.68.528 266.118 0 270.768 0c2.325 0 4.755.106 7.08.423 2.43.317 4.65.74 6.869 1.162 2.113.528 4.121 1.057 6.023 1.69 1.902.635 3.382 1.269 4.438 1.903 1.48.845 2.537 1.69 3.171 2.642.634.845.951 2.008.951 3.487v4.967c0 2.219-.846 3.381-2.431 3.381-.845 0-2.219-.422-4.015-1.268-6.024-2.747-12.787-4.121-20.29-4.121-6.023 0-10.778.95-14.054 2.959-3.276 2.008-4.967 5.072-4.967 9.405 0 2.958 1.057 5.495 3.17 7.502 2.114 2.008 6.024 4.016 11.624 5.812l15.006 4.756c7.608 2.43 13.103 5.812 16.379 10.144 3.276 4.333 4.861 9.3 4.861 14.794 0 4.544-.951 8.666-2.747 12.259-1.902 3.592-4.438 6.763-7.714 9.299-3.276 2.642-7.186 4.544-11.73 5.918-4.755 1.479-9.722 2.219-15.111 2.219Z" fill="#252F3E"/>
  <path fill-rule="evenodd" clip-rule="evenodd" d="M287.253 150.689C252.487 176.368 201.975 190 158.543 190c-60.867 0-115.712-22.509-157.135-59.917-3.276-2.959-.317-6.974 3.592-4.649 44.806 25.995 100.073 41.74 157.242 41.74 38.571 0 80.945-8.031 119.939-24.516 5.812-2.642 10.778 3.804 5.072 8.031Z" fill="#F90"/>
  <path fill-rule="evenodd" clip-rule="evenodd" d="M301.73 134.205c-4.438-5.707-29.377-2.748-40.684-1.374-3.382.423-3.91-2.536-.845-4.755 19.866-13.949 52.519-9.934 56.323-5.284 3.805 4.755-1.056 37.408-19.655 53.048-2.853 2.43-5.601 1.162-4.332-2.008 4.226-10.462 13.631-34.027 9.193-39.627Z" fill="#F90"/>
</svg>
