<svg fill="none" xmlns="http://www.w3.org/2000/svg" viewBox="0 0 1196 190">
  <path d="M283.962 82.996c9.782 0 17.489-3.854 23.713-11.56l12.45 13.042c-10.078 11.263-21.638 16.895-35.273 16.895-13.635 0-24.603-4.15-33.495-12.746-8.892-8.596-13.042-19.266-13.042-32.308 0-13.043 4.446-24.01 13.338-32.606 8.893-8.596 19.86-13.042 32.902-13.042 14.524 0 26.677 5.632 36.162 16.6L308.565 41.2c-6.225-7.706-13.932-11.56-23.121-11.56-7.41 0-13.635 2.372-18.97 7.114-5.335 4.743-8.003 11.264-8.003 19.564s2.371 14.82 7.41 19.86c5.039 4.149 10.967 6.817 18.081 6.817ZM335.835 100.187V12.153h19.563V82.7h37.644v17.488h-57.207ZM479.001 88.034c-8.892 8.596-19.859 13.043-32.901 13.043-13.043 0-24.01-4.447-32.902-13.043s-13.339-19.563-13.339-32.309c0-12.745 4.447-23.712 13.339-32.308s19.859-13.043 32.902-13.043c13.042 0 24.009 4.447 32.901 13.043 8.893 8.596 13.339 19.563 13.339 32.308 0 12.746-4.446 23.714-13.339 32.31Zm-6.817-32.309c0-7.706-2.668-14.524-7.41-20.156-5.039-5.631-11.264-8.299-18.674-8.299-7.411 0-13.635 2.668-18.674 8.3-5.039 5.631-7.707 12.152-7.707 20.155 0 8.004 2.668 14.525 7.707 20.157 5.039 5.631 11.263 8.3 18.674 8.3 7.41 0 13.635-2.669 18.674-8.3 5.039-5.632 7.41-12.153 7.41-20.157ZM532.356 77.66c3.26 4.15 7.706 6.225 13.338 6.225 5.632 0 10.078-2.075 13.042-6.225 3.261-4.15 4.743-9.781 4.743-16.599V12.153h19.563v49.204c0 12.746-3.557 22.528-10.671 29.345-7.114 6.818-16.006 10.375-26.973 10.375-10.968 0-20.156-3.557-27.27-10.375-7.114-6.817-10.671-16.599-10.671-29.345V12.153h19.563v48.612c.297 7.114 2.075 12.745 5.336 16.895ZM670.781 23.713c8.299 7.707 12.745 18.378 12.745 32.013 0 13.635-4.149 24.602-12.153 32.605-8.299 8.003-20.748 11.856-37.347 11.856h-30.531V12.153h31.123c15.71 0 27.863 3.853 36.163 11.56Zm-14.228 52.465c4.742-4.446 7.114-11.264 7.114-19.86s-2.372-15.413-7.114-19.86c-4.743-4.742-12.153-7.113-22.231-7.113h-10.967v53.65h12.449c8.892 0 15.71-2.37 20.749-6.817ZM795.273 12.153h19.859v88.034h-19.859l-41.794-55.132v55.132h-19.86V12.153h18.674l42.98 56.911v-56.91ZM899.313 100.187l-8.299-18.97h-37.052l-8.299 18.97h-21.045l37.94-88.034h18.971l37.94 88.034h-20.156Zm-26.38-61.653-10.967 25.491H883.9l-10.967-25.491ZM961.56 29.345v70.842h-19.859V29.345h-24.899V12.153h69.657v17.192H961.56ZM1020.25 12.153h-19.56v88.034h19.56V12.153ZM1074.49 68.175l22.53-56.022h21.34l-35.57 88.034h-16.6l-35.27-88.034h21.34l22.23 56.022ZM1192.17 12.153v17.488h-43.87V48.02h39.42v16.599h-39.42v18.378h45.35v17.191h-64.91V12.153h63.43ZM261.436 175.179c5.335 0 9.781-2.075 13.338-6.521l7.114 7.41c-5.632 6.225-12.153 9.486-19.86 9.486-7.706 0-13.931-2.372-18.674-7.114-5.039-4.743-7.41-10.967-7.41-18.081 0-7.411 2.371-13.339 7.41-18.378s11.264-7.41 18.378-7.41c8.003 0 14.821 2.964 20.452 9.189l-6.817 7.706c-3.557-4.446-7.707-6.521-13.042-6.521-4.15 0-7.707 1.482-10.671 4.15-2.964 2.668-4.446 6.225-4.446 10.967 0 4.743 1.482 8.3 4.15 10.967 2.667 2.965 6.224 4.15 10.078 4.15ZM330.796 178.143c-5.04 4.743-11.264 7.411-18.378 7.411-7.114 0-13.339-2.372-18.378-7.411-5.039-4.742-7.41-10.967-7.41-18.081 0-7.114 2.371-13.338 7.41-18.081 5.039-4.742 11.264-7.41 18.378-7.41 7.114 0 13.338 2.371 18.378 7.41 5.039 4.743 7.41 10.967 7.41 18.081 0 7.114-2.371 13.339-7.41 18.081Zm-3.557-18.081c0-4.446-1.482-8.299-4.15-11.263-2.964-2.965-6.225-4.743-10.375-4.743-4.149 0-7.706 1.482-10.374 4.743-2.964 2.964-4.15 6.817-4.15 11.263s1.482 8.003 4.15 11.264c2.964 2.964 6.225 4.742 10.374 4.742 4.15 0 7.707-1.482 10.375-4.742 2.668-2.964 4.15-6.818 4.15-11.264ZM391.857 153.838l-13.339 27.27h-6.521l-13.339-27.27v31.123h-10.967v-49.204h14.821l12.745 26.973 12.746-26.973h14.821v49.204h-10.967v-31.123ZM449.064 140.203c3.557 2.964 5.336 7.41 5.336 13.635s-1.779 10.671-5.336 13.339c-3.557 2.964-8.892 4.149-16.302 4.149h-6.521v13.635h-10.968v-49.204h17.489c7.41 0 12.745 1.482 16.302 4.446Zm-8.003 19.267c1.186-1.482 2.075-3.557 2.075-6.521s-.889-4.743-2.668-5.929c-1.778-1.185-4.446-1.778-8.003-1.778h-6.224v16.599h7.41c3.557 0 5.928-.889 7.41-2.371ZM476.037 172.216c1.779 2.371 4.446 3.556 7.411 3.556 2.964 0 5.631-1.185 7.41-3.556 1.778-2.372 2.668-5.336 2.668-9.486v-27.27h10.967v27.567c0 7.114-2.075 12.745-5.928 16.599-3.854 3.853-8.893 5.632-15.117 5.632-6.225 0-11.264-2.075-15.117-5.929-3.854-3.853-5.929-9.485-5.929-16.599v-27.566h10.968v27.863c0 3.853.889 7.114 2.667 9.189ZM536.802 145.242v39.719h-10.967v-39.719h-13.932v-9.485h38.83v9.485h-13.931ZM570 135.757h-10.967v49.501H570v-49.501ZM616.536 135.757h10.967v49.204h-10.967l-23.416-30.827v30.827h-10.968v-49.204h10.078l24.306 31.716v-31.716ZM671.966 160.062h10.967v17.489c-5.039 5.335-11.56 8.299-20.452 8.299-7.114 0-13.339-2.371-18.378-7.114-5.039-4.742-7.41-10.967-7.41-18.081 0-7.41 2.371-13.338 7.41-18.377s10.967-7.411 18.081-7.411c7.114 0 13.339 2.372 18.378 7.114l-5.632 8.3c-2.075-2.075-4.15-3.261-6.225-3.854-1.778-.592-3.853-1.185-5.928-1.185-4.15 0-7.707 1.482-10.671 4.15-2.964 2.964-4.446 6.521-4.446 11.263 0 4.743 1.482 8.3 4.15 11.264 2.668 2.668 5.928 4.15 9.781 4.15 3.854 0 7.114-.593 9.486-2.075l.889-13.932ZM745.18 135.757v9.485h-22.824v10.671h21.934v9.781h-21.934v19.267h-10.967v-49.204h33.791ZM796.162 178.143c-5.039 4.743-11.264 7.411-18.378 7.411-7.41 0-13.338-2.372-18.377-7.411-5.039-4.742-7.41-10.967-7.41-18.081 0-7.114 2.371-13.338 7.41-18.081 5.039-4.742 11.263-7.41 18.377-7.41 7.411 0 13.339 2.371 18.378 7.41 5.039 4.743 7.41 10.967 7.41 18.081 0 7.114-2.371 13.339-7.41 18.081Zm-3.853-18.081c0-4.446-1.483-8.299-4.15-11.263-2.964-2.965-6.225-4.743-10.375-4.743-4.149 0-7.706 1.482-10.374 4.743-2.964 2.964-4.15 6.817-4.15 11.263s1.482 8.003 4.15 11.264c2.964 2.964 6.225 4.742 10.374 4.742 4.15 0 7.707-1.482 10.375-4.742 2.964-2.964 4.15-6.818 4.15-11.264ZM826.1 172.216c1.779 2.371 4.446 3.556 7.411 3.556 2.964 0 5.631-1.185 7.41-3.556 1.778-2.372 2.668-5.336 2.668-9.486v-27.27h10.967v27.567c0 7.114-2.075 12.745-5.928 16.599-3.854 3.853-8.893 5.632-15.117 5.632-6.225 0-11.264-2.075-15.117-5.929-3.854-3.853-5.929-9.485-5.929-16.599v-27.566h10.968v27.863c-.297 3.853.889 7.114 2.667 9.189ZM900.499 135.757h10.967v49.204h-10.967l-23.417-30.827v30.827h-10.967v-49.204h10.078l24.306 31.716v-31.716ZM961.264 142.278c4.743 4.446 7.114 10.374 7.114 18.081 0 7.707-2.372 13.635-6.818 18.081s-11.56 6.818-21.045 6.818H923.62v-49.501h17.488c8.892 0 15.71 2.075 20.156 6.521Zm-8.003 29.345c2.668-2.668 4.15-6.225 4.15-10.968 0-4.742-1.482-8.596-4.15-11.263-2.668-2.668-6.818-3.854-12.45-3.854h-6.224v29.938h7.114c5.039-.296 8.892-1.482 11.56-3.853ZM1011.65 184.961l-4.44-10.671h-20.751l-4.446 10.671h-11.857l21.342-49.501h10.672l21.34 49.501h-11.86Zm-14.817-34.68-6.224 14.227h12.451l-6.227-14.227ZM1046.63 145.242v39.719h-11.26v-39.719h-13.93v-9.485h39.12v9.485h-13.93ZM1079.53 135.757h-10.97v49.501h10.97v-49.501ZM1133.18 178.143c-5.04 4.743-11.26 7.411-18.38 7.411-7.41 0-13.33-2.372-18.37-7.411-5.04-4.742-7.41-10.967-7.41-18.081 0-7.114 2.37-13.338 7.41-18.081 5.04-4.742 11.26-7.41 18.37-7.41 7.41 0 13.34 2.371 18.38 7.41 5.04 4.743 7.41 10.967 7.41 18.081 0 7.114-2.37 13.339-7.41 18.081Zm-3.55-18.081c0-4.446-1.49-8.299-4.15-11.263-2.97-2.965-6.23-4.743-10.38-4.743s-7.71 1.482-10.37 4.743c-2.97 2.964-4.15 6.817-4.15 11.263s1.48 8.003 4.15 11.264c2.96 2.964 6.22 4.742 10.37 4.742 4.15 0 7.71-1.482 10.38-4.742 2.66-2.964 4.15-6.818 4.15-11.264ZM1184.46 135.757h11.27v49.204h-11.27l-23.41-30.827v30.827h-10.97v-49.204h10.37l24.01 31.716v-31.716Z" fill="#000"/>
  <path d="M26.974 126.568H0V190h63.136v-27.27H26.973v-36.162ZM162.73 126.864v35.866h-36.162v-.297V190h63.135v-63.432h-27.27l.297.296ZM0 63.432h27.27l-.296-.296V27.27h36.162V0H0v63.432ZM126.568 0v27.27h36.162v36.162h26.973V0h-63.135Z" fill="#446CA9"/>
  <path d="M123.011 63.432 86.849 27.27h39.719V0H63.136v27.27l36.162 36.162h23.713ZM90.406 126.568H66.693l29.938 29.937 5.928 6.225H63.136V190h63.432v-27.567l-18.081-17.784-18.081-18.081ZM162.73 63.432v39.423l-6.225-6.225-29.937-29.938v24.01l17.784 17.784 18.081 18.082h27.27V63.432H162.73ZM63.136 99.298 27.27 63.432H0v63.136h26.974V87.145l36.162 36.162v-24.01Z" fill="#76C4D5"/>
</svg>
