<svg xmlns="http://www.w3.org/2000/svg" width="443" height="358" fill="none">
  <path fill="#EA4335" d="M281.104 99.043h13.511l38.508-38.508 1.892-16.349a173.083 173.083 0 0 0-281.58 84.447 20.944 20.944 0 0 1 13.51-.81l77.017-12.701s3.918-6.486 5.945-6.081a96.067 96.067 0 0 1 131.467-9.998h-.27Z"/>
  <path fill="#4285F4" d="M387.98 128.632a173.497 173.497 0 0 0-52.29-84.312l-54.046 54.047a96.062 96.062 0 0 1 35.265 76.205v9.593a48.1 48.1 0 0 1 18.407 92.54 48.082 48.082 0 0 1-18.407 3.662h-96.202l-9.593 9.728v57.694l9.593 9.594h96.202a125.118 125.118 0 0 0 71.071-228.751Z"/>
  <path fill="#FBBC05" d="M124.369 107.01A125.112 125.112 0 0 0 6.543 192.195 125.114 125.114 0 0 0 48.84 331.301l55.803-55.803a48.095 48.095 0 0 1-26.114-58.161 48.095 48.095 0 0 1 31.591-31.591 48.1 48.1 0 0 1 58.162 26.113l55.803-55.803a124.989 124.989 0 0 0-99.716-49.046Z"/>
  <path fill="#34A853" d="M124.369 356.834h96.203v-77.016h-96.203a47.83 47.83 0 0 1-19.861-4.324l-13.512 4.189-38.778 38.508-3.378 13.511a124.44 124.44 0 0 0 75.529 25.132Z"/>
</svg>
