<svg xmlns="http://www.w3.org/2000/svg" width="509" height="491" fill="none">
  <path fill="#E24329" d="m500.527 194.036-.715-1.829-69.279-180.803a18.05 18.05 0 0 0-7.129-8.587 18.553 18.553 0 0 0-21.203 1.14 18.561 18.561 0 0 0-6.149 9.328l-46.777 143.117H159.858L113.08 13.285a18.182 18.182 0 0 0-6.149-9.355 18.551 18.551 0 0 0-21.202-1.14 18.208 18.208 0 0 0-7.13 8.587L9.188 192.101l-.69 1.829a128.645 128.645 0 0 0 42.67 148.682l.24.185.635.451 105.535 79.032 52.211 39.516 31.804 24.012a21.389 21.389 0 0 0 25.867 0l31.803-24.012 52.211-39.516 106.171-79.509.265-.212a128.7 128.7 0 0 0 42.617-148.523Z"/>
  <path fill="#FC6D26" d="m500.527 194.038-.715-1.829a234.023 234.023 0 0 0-93.158 41.875L254.5 349.133c51.813 39.198 96.922 73.255 96.922 73.255l106.171-79.509.265-.212a128.706 128.706 0 0 0 46.145-67.192 128.69 128.69 0 0 0-3.476-81.437Z"/>
  <path fill="#FCA326" d="m157.578 422.385 52.211 39.516 31.803 24.012a21.39 21.39 0 0 0 25.867 0l31.804-24.012 52.211-39.516s-45.161-34.162-96.975-73.254c-51.813 39.092-96.921 73.254-96.921 73.254Z"/>
  <path fill="#FC6D26" d="M102.32 234.08A233.737 233.737 0 0 0 9.188 192.1l-.69 1.828a128.647 128.647 0 0 0 42.67 148.682l.24.186.635.45 105.535 79.032 96.922-73.254L102.32 234.08Z"/>
</svg>
