<svg width="337" height="344" viewBox="0 0 337 344" fill="none" xmlns="http://www.w3.org/2000/svg">
<path d="M97.2036 86.9415L110.575 41.9406L64.3492 50.1322L50.9782 95.1331L97.2036 86.9415Z" fill="#CCF575" stroke="#628D06" stroke-width="0.5"/>
<path d="M82.063 130.299L128.26 122.112L97.3057 87.4312L51.1084 95.6178L82.063 130.299Z" fill="#CCF575" stroke="#628D06" stroke-width="0.5"/>
<path d="M97.6786 87.0982L128.633 121.779L141.996 76.8055L111.042 42.1247L97.6786 87.0982Z" fill="#CCF575" stroke="#628D06" stroke-width="0.5"/>
<path d="M152.204 72.9415L165.575 27.9406L119.35 36.1322L105.979 81.1331L152.204 72.9415Z" fill="#837CC6" fill-opacity="0.75" stroke="#281E8B" stroke-width="0.5"/>
<path d="M137.063 116.298L183.261 108.112L152.306 73.431L106.109 81.6176L137.063 116.298Z" fill="#837CC6" fill-opacity="0.75" stroke="#281E8B" stroke-width="0.5"/>
<path d="M152.679 73.0982L183.634 107.779L196.997 62.8055L166.042 28.1247L152.679 73.0982Z" fill="#837CC6" fill-opacity="0.75" stroke="#281E8B" stroke-width="0.5"/>
<path d="M80.2032 136.942L93.5742 91.9409L47.3488 100.132L33.9778 145.133L80.2032 136.942Z" fill="#FCFCFD" stroke="#BFBFBF" stroke-width="0.5"/>
<path d="M65.0627 180.299L111.26 172.112L80.3054 137.431L34.1081 145.618L65.0627 180.299Z" fill="#FCFCFD" stroke="#BFBFBF" stroke-width="0.5"/>
<path d="M80.6786 137.098L111.633 171.779L124.996 126.806L94.0415 92.1249L80.6786 137.098Z" fill="#FCFCFD" stroke="#BFBFBF" stroke-width="0.5"/>
<path d="M134.204 126.941L147.575 81.9406L101.349 90.1322L87.9784 135.133L134.204 126.941Z" fill="#FCFCFD" stroke="#BFBFBF" stroke-width="0.5"/>
<path d="M119.063 170.299L165.261 162.112L134.306 127.431L88.1088 135.618L119.063 170.299Z" fill="#FCFCFD" stroke="#BFBFBF" stroke-width="0.5"/>
<path d="M134.679 127.098L165.634 161.779L178.997 116.806L148.042 82.1247L134.679 127.098Z" fill="#FCFCFD" stroke="#BFBFBF" stroke-width="0.5"/>
<g filter="url(#filter0_b_100_80)">
<path d="M121.204 280.941L134.575 235.941L88.3494 244.132L74.9784 289.133L121.204 280.941Z" fill="#4035A7" stroke="#1E1476" stroke-width="0.5"/>
<path d="M106.063 324.298L152.261 316.112L121.306 281.431L75.1086 289.618L106.063 324.298Z" fill="#4035A7" stroke="#1E1476" stroke-width="0.5"/>
<path d="M121.679 281.098L152.633 315.779L165.996 270.806L135.042 236.125L121.679 281.098Z" fill="#4035A7" stroke="#1E1476" stroke-width="0.5"/>
</g>
<path d="M75.2034 253.941L88.5745 208.941L42.349 217.132L28.978 262.133L75.2034 253.941Z" fill="#FCFCFD" stroke="#BFBFBF" stroke-width="0.5"/>
<path d="M60.063 297.298L106.26 289.112L75.3057 254.431L29.1083 262.618L60.063 297.298Z" fill="#FCFCFD" stroke="#BFBFBF" stroke-width="0.5"/>
<path d="M75.6786 254.098L106.633 288.779L119.996 243.806L89.0415 209.125L75.6786 254.098Z" fill="#FCFCFD" stroke="#BFBFBF" stroke-width="0.5"/>
<g filter="url(#filter1_b_100_80)">
<path d="M63.2032 186.941L76.5742 141.941L30.3488 150.132L16.9777 195.133L63.2032 186.941Z" fill="white" fill-opacity="0.5" stroke="#C2C2C2" stroke-width="0.5"/>
<path d="M48.063 230.299L94.2604 222.112L63.3057 187.431L17.1084 195.618L48.063 230.299Z" fill="white" fill-opacity="0.5" stroke="#C2C2C2" stroke-width="0.5"/>
<path d="M63.6787 187.098L94.6333 221.779L107.996 176.806L77.0416 142.125L63.6787 187.098Z" fill="white" fill-opacity="0.5" stroke="#C2C2C2" stroke-width="0.5"/>
</g>
<path d="M177.204 266.941L190.575 221.941L144.35 230.132L130.979 275.133L177.204 266.941Z" fill="#D04485" fill-opacity="0.75" stroke="#8F0646" stroke-width="0.5"/>
<path d="M162.064 310.298L208.261 302.112L177.306 267.431L131.109 275.618L162.064 310.298Z" fill="#D04485" fill-opacity="0.75" stroke="#8F0646" stroke-width="0.5"/>
<path d="M177.679 267.098L208.634 301.779L221.997 256.806L191.042 222.125L177.679 267.098Z" fill="#D04485" fill-opacity="0.75" stroke="#8F0646" stroke-width="0.5"/>
<g filter="url(#filter2_b_100_80)">
<path d="M149.204 221.941L162.575 176.941L116.35 185.132L102.979 230.133L149.204 221.941Z" fill="#5EBAB4" stroke="#07837B" stroke-width="0.5"/>
<path d="M134.064 265.298L180.261 257.112L149.306 222.431L103.109 230.618L134.064 265.298Z" fill="#5EBAB4" stroke="#07837B" stroke-width="0.5"/>
<path d="M149.679 222.098L180.634 256.779L193.997 211.806L163.042 177.125L149.679 222.098Z" fill="#5EBAB4" stroke="#07837B" stroke-width="0.5"/>
</g>
<path d="M117.204 176.941L130.575 131.941L84.3495 140.132L70.9785 185.133L117.204 176.941Z" fill="#CCF575" fill-opacity="0.75" stroke="#628D06" stroke-width="0.5"/>
<path d="M102.063 220.298L148.261 212.112L117.306 177.431L71.1087 185.618L102.063 220.298Z" fill="#CCF575" fill-opacity="0.75" stroke="#628D06" stroke-width="0.5"/>
<path d="M117.679 177.098L148.634 211.779L161.997 166.806L131.042 132.125L117.679 177.098Z" fill="#CCF575" fill-opacity="0.75" stroke="#628D06" stroke-width="0.5"/>
<path d="M275.205 150.941L288.576 105.941L242.351 114.132L228.979 159.133L275.205 150.941Z" fill="#4035A7" fill-opacity="0.75" stroke="#1E1476" stroke-width="0.5"/>
<path d="M260.065 194.298L306.262 186.112L275.307 151.431L229.11 159.618L260.065 194.298Z" fill="#4035A7" fill-opacity="0.75" stroke="#1E1476" stroke-width="0.5"/>
<path d="M275.68 151.098L306.635 185.779L319.998 140.806L289.043 106.125L275.68 151.098Z" fill="#4035A7" fill-opacity="0.75" stroke="#1E1476" stroke-width="0.5"/>
<g filter="url(#filter3_b_100_80)">
<path d="M273.205 95.9415L286.576 50.9406L240.351 59.1322L226.98 104.133L273.205 95.9415Z" fill="white" fill-opacity="0.5" stroke="#C2C2C2" stroke-width="0.5"/>
<path d="M258.065 139.298L304.262 131.112L273.307 96.431L227.11 104.618L258.065 139.298Z" fill="white" fill-opacity="0.5" stroke="#C2C2C2" stroke-width="0.5"/>
<path d="M273.68 96.0982L304.635 130.779L317.998 85.8055L287.043 51.1247L273.68 96.0982Z" fill="white" fill-opacity="0.5" stroke="#C2C2C2" stroke-width="0.5"/>
</g>
<path d="M209.205 63.9415L222.576 18.9406L176.35 27.1322L162.979 72.1331L209.205 63.9415Z" fill="#FCFCFD" stroke="#BFBFBF" stroke-width="0.5"/>
<path d="M194.064 107.299L240.261 99.112L209.307 64.4312L163.109 72.6178L194.064 107.299Z" fill="#FCFCFD" stroke="#BFBFBF" stroke-width="0.5"/>
<path d="M209.68 64.0982L240.634 98.779L253.997 53.8055L223.042 19.1247L209.68 64.0982Z" fill="#FCFCFD" stroke="#BFBFBF" stroke-width="0.5"/>
<path d="M259.205 203.941L272.576 158.941L226.35 167.132L212.979 212.133L259.205 203.941Z" fill="#837CC6" stroke="#281E8B" stroke-width="0.5"/>
<path d="M244.064 247.298L290.262 239.112L259.307 204.431L213.11 212.618L244.064 247.298Z" fill="#837CC6" stroke="#281E8B" stroke-width="0.5"/>
<path d="M259.68 204.098L290.635 238.779L303.998 193.806L273.043 159.125L259.68 204.098Z" fill="#837CC6" stroke="#281E8B" stroke-width="0.5"/>
<path d="M240.205 151.941L253.576 106.941L207.35 115.132L193.979 160.133L240.205 151.941Z" fill="#FCFCFD" stroke="#BFBFBF" stroke-width="0.5"/>
<path d="M225.064 195.299L271.262 187.112L240.307 152.431L194.11 160.618L225.064 195.299Z" fill="#FCFCFD" stroke="#BFBFBF" stroke-width="0.5"/>
<path d="M240.68 152.098L271.634 186.779L284.997 141.806L254.043 107.125L240.68 152.098Z" fill="#FCFCFD" stroke="#BFBFBF" stroke-width="0.5"/>
<g filter="url(#filter4_b_100_80)">
<path d="M188.204 116.941L201.575 71.9406L155.35 80.1322L141.979 125.133L188.204 116.941Z" fill="#D04485" stroke="#8F0646" stroke-width="0.5"/>
<path d="M173.064 160.299L219.261 152.112L188.307 117.431L142.109 125.618L173.064 160.299Z" fill="#D04485" stroke="#8F0646" stroke-width="0.5"/>
<path d="M188.68 117.098L219.634 151.779L232.997 106.806L202.043 72.1247L188.68 117.098Z" fill="#D04485" stroke="#8F0646" stroke-width="0.5"/>
</g>
<g filter="url(#filter5_b_100_80)">
<path d="M241.205 262.941L254.576 217.941L208.35 226.132L194.979 271.133L241.205 262.941Z" fill="white" fill-opacity="0.5" stroke="#C2C2C2" stroke-width="0.5"/>
<path d="M226.064 306.298L272.262 298.112L241.307 263.431L195.11 271.618L226.064 306.298Z" fill="white" fill-opacity="0.5" stroke="#C2C2C2" stroke-width="0.5"/>
<path d="M241.68 263.098L272.635 297.779L285.997 252.806L255.043 218.125L241.68 263.098Z" fill="white" fill-opacity="0.5" stroke="#C2C2C2" stroke-width="0.5"/>
</g>
<path d="M208.205 205.941L221.576 160.941L175.35 169.132L161.979 214.133L208.205 205.941Z" fill="#5EBAB4" fill-opacity="0.75" stroke="#07837B" stroke-width="0.5"/>
<path d="M193.064 249.298L239.261 241.112L208.307 206.431L162.109 214.618L193.064 249.298Z" fill="#5EBAB4" fill-opacity="0.75" stroke="#07837B" stroke-width="0.5"/>
<path d="M208.68 206.098L239.634 240.779L252.997 195.806L222.042 161.125L208.68 206.098Z" fill="#5EBAB4" fill-opacity="0.75" stroke="#07837B" stroke-width="0.5"/>
<path d="M169.204 167.941L182.575 122.941L136.35 131.132L122.979 176.133L169.204 167.941Z" fill="#FCFCFD" stroke="#BFBFBF" stroke-width="0.5"/>
<path d="M154.064 211.298L200.261 203.112L169.306 168.431L123.109 176.618L154.064 211.298Z" fill="#FCFCFD" stroke="#BFBFBF" stroke-width="0.5"/>
<path d="M169.679 168.098L200.634 202.779L213.997 157.806L183.042 123.125L169.679 168.098Z" fill="#FCFCFD" stroke="#BFBFBF" stroke-width="0.5"/>
<defs>
<filter id="filter0_b_100_80" x="70.6234" y="231.624" width="99.6523" height="96.9451" filterUnits="userSpaceOnUse" color-interpolation-filters="sRGB">
<feFlood flood-opacity="0" result="BackgroundImageFix"/>
<feGaussianBlur in="BackgroundImageFix" stdDeviation="2"/>
<feComposite in2="SourceAlpha" operator="in" result="effect1_backgroundBlur_100_80"/>
<feBlend mode="normal" in="SourceGraphic" in2="effect1_backgroundBlur_100_80" result="shape"/>
</filter>
<filter id="filter1_b_100_80" x="12.6228" y="137.624" width="99.6527" height="96.9453" filterUnits="userSpaceOnUse" color-interpolation-filters="sRGB">
<feFlood flood-opacity="0" result="BackgroundImageFix"/>
<feGaussianBlur in="BackgroundImageFix" stdDeviation="2"/>
<feComposite in2="SourceAlpha" operator="in" result="effect1_backgroundBlur_100_80"/>
<feBlend mode="normal" in="SourceGraphic" in2="effect1_backgroundBlur_100_80" result="shape"/>
</filter>
<filter id="filter2_b_100_80" x="98.6238" y="172.624" width="99.6524" height="96.9451" filterUnits="userSpaceOnUse" color-interpolation-filters="sRGB">
<feFlood flood-opacity="0" result="BackgroundImageFix"/>
<feGaussianBlur in="BackgroundImageFix" stdDeviation="2"/>
<feComposite in2="SourceAlpha" operator="in" result="effect1_backgroundBlur_100_80"/>
<feBlend mode="normal" in="SourceGraphic" in2="effect1_backgroundBlur_100_80" result="shape"/>
</filter>
<filter id="filter3_b_100_80" x="222.625" y="46.6238" width="99.6524" height="96.9451" filterUnits="userSpaceOnUse" color-interpolation-filters="sRGB">
<feFlood flood-opacity="0" result="BackgroundImageFix"/>
<feGaussianBlur in="BackgroundImageFix" stdDeviation="2"/>
<feComposite in2="SourceAlpha" operator="in" result="effect1_backgroundBlur_100_80"/>
<feBlend mode="normal" in="SourceGraphic" in2="effect1_backgroundBlur_100_80" result="shape"/>
</filter>
<filter id="filter4_b_100_80" x="137.624" y="67.6238" width="99.6525" height="96.9453" filterUnits="userSpaceOnUse" color-interpolation-filters="sRGB">
<feFlood flood-opacity="0" result="BackgroundImageFix"/>
<feGaussianBlur in="BackgroundImageFix" stdDeviation="2"/>
<feComposite in2="SourceAlpha" operator="in" result="effect1_backgroundBlur_100_80"/>
<feBlend mode="normal" in="SourceGraphic" in2="effect1_backgroundBlur_100_80" result="shape"/>
</filter>
<filter id="filter5_b_100_80" x="190.624" y="213.624" width="99.6523" height="96.9451" filterUnits="userSpaceOnUse" color-interpolation-filters="sRGB">
<feFlood flood-opacity="0" result="BackgroundImageFix"/>
<feGaussianBlur in="BackgroundImageFix" stdDeviation="2"/>
<feComposite in2="SourceAlpha" operator="in" result="effect1_backgroundBlur_100_80"/>
<feBlend mode="normal" in="SourceGraphic" in2="effect1_backgroundBlur_100_80" result="shape"/>
</filter>
</defs>
</svg>
