<svg version="1.1" xmlns="http://www.w3.org/2000/svg" viewBox="180.7467 -431.2554 225.9374 407.4072">
    <path fill="#fff" fill-rule="evenodd" clip-rule="evenodd"
          d="M 343.51 -262.53 C 351.502 -249.066 371.878 -259.434 372.742 -274.626 C 373.606 -289.818 371.374 -308.97 361.51 -309.69 C 351.646 -310.41 344.59 -320.274 334.726 -320.994 C 324.862 -321.714 314.278 -311.85 309.67 -324.954 C 305.062 -338.058 322.054 -343.602 334.726 -345.69 C 323.422 -356.994 316.798 -369.522 311.83 -382.554 C 306.862 -395.586 303.19 -407.538 317.086 -412.65 C 330.982 -417.762 329.83 -391.482 345.742 -379.458 C 341.062 -397.17 339.334 -404.514 339.694 -414.81 C 340.054 -425.106 339.334 -432.954 353.95 -430.938 C 368.566 -428.922 362.23 -398.538 373.606 -386.154 C 377.062 -397.89 379.15 -412.794 387.502 -418.914 C 395.854 -425.034 414.862 -425.178 402.766 -400.05 C 390.67 -374.922 406.294 -361.314 402.622 -341.514 C 398.95 -321.714 387.574 -325.314 382.678 -312.57 C 377.782 -299.826 385.558 -270.81 376.342 -257.778 C 367.126 -244.746 365.47 -224.73 371.446 -208.746 C 353.086 -225.882 343.51 -262.53 343.51 -262.53 Z"/>
    <path fill="#fff" fill-rule="evenodd" clip-rule="evenodd"
          d="M 229.102 -245.61 C 221.686 -194.778 195.91 -188.73 194.614 -167.634 C 193.318 -146.538 201.454 -144.522 200.95 -125.01 C 200.446 -105.498 183.094 -97.578 181.006 -86.994 C 178.918 -76.41 189.934 -73.026 196.342 -73.026 C 202.75 -73.026 209.158 -101.106 211.75 -118.962 C 214.342 -136.818 203.254 -147.33 203.254 -159.57 C 203.254 -171.81 219.31 -194.202 216.358 -174.546 C 229.678 -195.57 236.015 -222.355 229.102 -245.61 Z"/>
    <path fill="#fff" fill-rule="evenodd" clip-rule="evenodd"
          d="M 239.039 -226.243 C 233.423 -198.739 198.359 -45.163 216.215 -43.219 C 234.071 -41.275 259.487 -90.739 301.103 -90.379 C 342.791 -90.019 359.207 -34.939 369.359 -35.299 C 379.511 -35.659 386.207 -31.699 387.287 -93.763 C 388.367 -155.827 350.495 -235.099 328.103 -270.019 C 327.186 -269.96 326.267 -269.881 325.346 -269.783 C 326.626 -266.729 327.477 -263.37 327.829 -259.723 C 329.227 -237.36 313.335 -218.551 291.829 -213.536 C 276.113 -209.87 256.927 -214.714 248.266 -229.371 C 247.821 -230.124 247.399 -230.884 247.002 -231.65 C 244.287 -229.799 241.63 -227.987 239.039 -226.243 Z M 398.806 -82.602 C 398.662 -30.114 384.982 -24.21 367.99 -23.85 C 350.998 -23.49 339.478 -77.418 303.19 -78.498 C 266.974 -79.578 238.102 -31.626 215.35 -31.626 C 202.462 -31.626 199.438 -39.402 200.446 -59.13 C 202.75 -105.426 212.614 -160.434 222.478 -203.706 C 232.342 -246.906 238.03 -370.098 229.606 -387.738 C 267.982 -366.283 399.31 -239.275 398.806 -82.602 Z M 315.816 -271.254 C 306.117 -285.36 286.209 -284.657 272.285 -278.331 C 265.539 -275.265 258.729 -270.436 254.506 -264.265 C 249.499 -256.946 248.957 -248.399 251.869 -240.067 C 257.572 -223.748 275.095 -217.637 290.965 -221.491 C 305.962 -225.133 318.416 -237.688 319.909 -253.315 C 320.134 -259.615 319.491 -265.908 315.816 -271.254 Z"/>
</svg>